<svg width="8" height="5" viewBox="0 0 8 5" fill="none" xmlns="http://www.w3.org/2000/svg">
<path d="M-0.00195312 0.5C-0.00195312 0.429688 0.0117188 0.365234 0.0390625 0.306641C0.0664062 0.244141 0.101562 0.191406 0.144531 0.148438C0.191406 0.101562 0.244141 0.0644531 0.302734 0.0371094C0.365234 0.00976562 0.431641 -0.00390625 0.501953 -0.00390625C0.576172 -0.00390625 0.640625 0.00976562 0.695312 0.0371094C0.75 0.0605469 0.802734 0.0976562 0.853516 0.148438L4 3.29492L7.14648 0.148438C7.24805 0.046875 7.36523 -0.00390625 7.49805 -0.00390625C7.56836 -0.00390625 7.63281 0.00976562 7.69141 0.0371094C7.75391 0.0644531 7.80664 0.101562 7.84961 0.148438C7.89648 0.191406 7.93359 0.244141 7.96094 0.306641C7.98828 0.365234 8.00195 0.429688 8.00195 0.5C8.00195 0.636719 7.95312 0.753906 7.85547 0.851562L4.35156 4.35547C4.25391 4.45312 4.13672 4.50195 4 4.50195C3.86328 4.50195 3.74609 4.45312 3.64844 4.35547L0.144531 0.851562C0.046875 0.753906 -0.00195312 0.636719 -0.00195312 0.5Z" fill="black" fill-opacity="0.6063"/>
</svg>
