<svg xmlns="http://www.w3.org/2000/svg" width="15" height="15" viewBox="0 0 15 15" fill="none">
  <path d="M12.5 5.9375V5.46875C12.5 4.69375 11.875 4.0625 11.0938 4.0625H7.51875L6.025 2.825C5.775 2.6125 5.4625 2.5 5.13125 2.5H2.65625C1.88125 2.5 1.25 3.125 1.25 3.90625V11.0938C1.25 11.8687 1.875 12.5 2.65625 12.5H11.5437C12.0437 12.5 12.4812 12.1562 12.6062 11.6687L13.7 7.29375C13.7398 7.13257 13.7425 6.96443 13.7077 6.80208C13.6729 6.63973 13.6016 6.48744 13.4992 6.35673C13.3968 6.22603 13.266 6.12036 13.1167 6.04772C12.9674 5.97508 12.8035 5.93739 12.6375 5.9375H12.5ZM2.65625 3.4375H5.13125C5.2375 3.4375 5.34375 3.475 5.43125 3.54375L7.04375 4.89375C7.13125 4.95625 7.23125 5 7.34375 5H11.0938C11.35 5 11.5625 5.2125 11.5625 5.46875V5.9375H4.0125C3.36875 5.9375 2.80625 6.375 2.65 7L2.1875 8.8625V3.90625C2.1875 3.65 2.4 3.4375 2.65625 3.4375ZM3.5625 7.23125C3.58743 7.1304 3.64515 7.04068 3.7266 6.9762C3.80805 6.91172 3.90862 6.87612 4.0125 6.875H12.6375C12.7375 6.875 12.8125 6.96875 12.7875 7.06875L11.6937 11.4437C11.6854 11.4774 11.6662 11.5073 11.639 11.5288C11.6119 11.5503 11.5784 11.5621 11.5437 11.5625H2.675C2.65143 11.5622 2.62823 11.5567 2.60712 11.5462C2.58602 11.5357 2.56756 11.5205 2.55313 11.5019C2.5387 11.4833 2.52868 11.4616 2.5238 11.4386C2.51893 11.4155 2.51934 11.3916 2.525 11.3688L3.5625 7.23125Z" fill="black"/>
</svg>