<svg xmlns="http://www.w3.org/2000/svg" width="27" height="27" viewBox="0 0 27 27" fill="none">
  <g opacity="0.35">
    <path d="M13.25 23.25C18.6348 23.25 23 18.8848 23 13.5C23 8.11522 18.6348 3.75 13.25 3.75C7.86522 3.75 3.5 8.11522 3.5 13.5C3.5 18.8848 7.86522 23.25 13.25 23.25Z" stroke="black" stroke-width="1.4" stroke-linecap="round" stroke-linejoin="round"/>
    <path d="M13.25 20C13.9231 20 14.4688 19.4543 14.4688 18.7812C14.4688 18.1082 13.9231 17.5625 13.25 17.5625C12.5769 17.5625 12.0312 18.1082 12.0312 18.7812C12.0312 19.4543 12.5769 20 13.25 20Z" fill="black"/>
    <path d="M13.25 15.125V14.3125C13.8124 14.3125 14.3623 14.1457 14.8299 13.8332C15.2976 13.5208 15.662 13.0766 15.8773 12.557C16.0925 12.0374 16.1488 11.4656 16.0391 10.914C15.9294 10.3623 15.6585 9.85562 15.2608 9.45792C14.8631 9.06021 14.3564 8.78937 13.8048 8.67964C13.2532 8.56992 12.6814 8.62623 12.1617 8.84147C11.6421 9.05671 11.198 9.4212 10.8855 9.88885C10.573 10.3565 10.4062 10.9063 10.4062 11.4688" stroke="black" stroke-width="1.4" stroke-linecap="round" stroke-linejoin="round"/>
  </g>
</svg>