<svg xmlns="http://www.w3.org/2000/svg" width="114" height="25" viewBox="0 0 114 25" fill="none">
  <g clip-path="url(#clip0_331_9261)">
    <path d="M113.972 11.2356V9.18965H111.483V6.00892L111.399 6.03523L109.061 6.76532L109.015 6.77966V9.18965H105.325V7.84722C105.325 7.22208 105.462 6.74365 105.732 6.42461C106 6.10936 106.383 5.94914 106.872 5.94914C107.224 5.94914 107.588 6.03368 107.954 6.20038L108.046 6.24216V4.08749L108.003 4.07131C107.661 3.94597 107.196 3.88281 106.62 3.88281C105.894 3.88281 105.234 4.04402 104.659 4.36363C104.084 4.68366 103.631 5.14056 103.314 5.72153C102.997 6.3018 102.837 6.97196 102.837 7.71358V9.18965H101.104V11.2356H102.837V19.8547H105.325V11.2356H109.015V16.7129C109.015 18.9687 110.058 20.112 112.113 20.112C112.451 20.112 112.807 20.0715 113.17 19.9923C113.539 19.9111 113.791 19.8299 113.939 19.7433L113.972 19.7236V17.6587L113.871 17.727C113.736 17.819 113.568 17.894 113.37 17.9497C113.172 18.0065 113.007 18.0351 112.879 18.0351C112.397 18.0351 112.041 17.9026 111.82 17.6412C111.596 17.3774 111.483 16.916 111.483 16.2708V11.2356H113.972ZM95.5476 18.0353C94.6445 18.0353 93.9326 17.7296 93.4308 17.1275C92.926 16.5224 92.6702 15.6596 92.6702 14.5635C92.6702 13.4326 92.926 12.5475 93.4311 11.9317C93.9331 11.3199 94.6383 11.0094 95.5274 11.0094C96.3901 11.0094 97.0768 11.306 97.5687 11.8913C98.0631 12.4796 98.314 13.3577 98.314 14.5018C98.314 15.6599 98.078 16.5495 97.6128 17.1446C97.1508 17.7352 96.4561 18.0353 95.5476 18.0353ZM95.6584 8.9327C93.9355 8.9327 92.567 9.44798 91.5914 10.4643C90.6163 11.4808 90.1219 12.8874 90.1219 14.6455C90.1219 16.3153 90.6045 17.6584 91.5564 18.6369C92.5083 19.6159 93.8037 20.1117 95.4063 20.1117C97.0765 20.1117 98.4177 19.5893 99.393 18.5589C100.368 17.5294 100.862 16.1362 100.862 14.4192C100.862 12.7232 100.399 11.3701 99.4839 10.3981C98.5686 9.42561 97.2813 8.9327 95.6584 8.9327ZM86.1103 8.93264C84.9383 8.93264 83.9689 9.23861 83.2283 9.84195C82.4833 10.4488 82.1054 11.2449 82.1054 12.208C82.1054 12.7087 82.187 13.1535 82.3475 13.5306C82.5091 13.9092 82.7591 14.2423 83.0911 14.522C83.4207 14.7994 83.9292 15.09 84.6034 15.3855C85.17 15.6236 85.5927 15.825 85.8611 15.9837C86.1235 16.1391 86.3098 16.2955 86.415 16.4477C86.5171 16.5967 86.5691 16.8006 86.5691 17.0524C86.5691 17.7688 86.0435 18.1174 84.9618 18.1174C84.5606 18.1174 84.1029 18.032 83.6015 17.8633C83.0999 17.6949 82.6312 17.4528 82.2086 17.1424L82.1054 17.0668V19.5119L82.1433 19.5299C82.4954 19.6957 82.9392 19.8355 83.4623 19.9457C83.9845 20.0558 84.4589 20.112 84.8711 20.112C86.1428 20.112 87.1669 19.8045 87.9141 19.1976C88.6662 18.5865 89.0474 17.7718 89.0474 16.7751C89.0474 16.0563 88.8422 15.4397 88.4377 14.9426C88.0361 14.4494 87.339 13.9967 86.3666 13.5965C85.592 13.2791 85.0957 13.0156 84.891 12.8135C84.6937 12.6181 84.5935 12.3418 84.5935 11.992C84.5935 11.6818 84.7171 11.4334 84.9711 11.2321C85.227 11.0298 85.5832 10.9269 86.0299 10.9269C86.4445 10.9269 86.8687 10.9938 87.2904 11.1247C87.712 11.2557 88.0821 11.4311 88.3913 11.6458L88.4928 11.7167V9.39728L88.4538 9.38012C88.1687 9.25535 87.7927 9.14858 87.3361 9.06192C86.8814 8.97611 86.4689 8.93264 86.1103 8.93264ZM75.619 18.0353C74.7162 18.0353 74.004 17.7296 73.5024 17.1275C72.9974 16.5224 72.742 15.6599 72.742 14.5635C72.742 13.4326 72.9977 12.5475 73.5029 11.9317C74.0045 11.3199 74.7096 11.0094 75.5991 11.0094C76.4615 11.0094 77.1482 11.306 77.6402 11.8913C78.1347 12.4796 78.3855 13.3577 78.3855 14.5018C78.3855 15.6599 78.1495 16.5495 77.6842 17.1446C77.2222 17.7352 76.5278 18.0353 75.619 18.0353ZM75.7301 8.9327C74.0067 8.9327 72.6383 9.44798 71.6631 10.4643C70.688 11.4808 70.1933 12.8874 70.1933 14.6455C70.1933 16.316 70.6762 17.6584 71.6281 18.6369C72.58 19.6159 73.8753 20.1117 75.4781 20.1117C77.1478 20.1117 78.4894 19.5893 79.4647 18.5589C80.4396 17.5294 80.934 16.1362 80.934 14.4192C80.934 12.7232 80.4702 11.3701 79.5553 10.3981C78.6398 9.42561 77.3527 8.9327 75.7301 8.9327ZM66.4164 11.0365V9.18965H63.9587V19.8544H66.4164V14.399C66.4164 13.4713 66.6225 12.7093 67.029 12.1336C67.4305 11.5649 67.9655 11.2767 68.6186 11.2767C68.8399 11.2767 69.0884 11.3139 69.3575 11.3876C69.6239 11.4609 69.8169 11.5404 69.9307 11.6241L70.0339 11.7005V9.17137L69.9941 9.15392C69.7652 9.05461 69.4415 9.00453 69.0317 9.00453C68.4142 9.00453 67.8614 9.2071 67.388 9.6059C66.9725 9.95645 66.6721 10.4371 66.4425 11.0365H66.4164ZM59.5574 8.93264C58.4299 8.93264 57.4241 9.17952 56.5686 9.66597C55.7114 10.1535 55.0485 10.8497 54.5974 11.735C54.1484 12.6181 53.9205 13.6496 53.9205 14.7999C53.9205 15.8076 54.1415 16.7323 54.5784 17.5472C55.0155 18.3636 55.6343 19.0022 56.4175 19.4452C57.1996 19.8876 58.1035 20.112 59.1044 20.112C60.2723 20.112 61.2696 19.8735 62.0692 19.4035L62.1014 19.3846V17.0863L61.9982 17.1632C61.636 17.4325 61.2312 17.6474 60.7957 17.8023C60.3614 17.957 59.9653 18.0352 59.6181 18.0352C58.6537 18.0352 57.8796 17.7272 57.3176 17.12C56.7543 16.5119 56.4688 15.6582 56.4688 14.5837C56.4688 13.5025 56.7666 12.6268 57.3536 11.9806C57.9386 11.3363 58.7142 11.0095 59.6586 11.0095C60.4665 11.0095 61.2537 11.2888 61.9985 11.8402L62.1014 11.9166V9.49491L62.0682 9.47578C61.7879 9.31569 61.4057 9.18346 60.9311 9.08316C60.4587 8.98315 59.9966 8.93264 59.5574 8.93264ZM52.2277 9.18968H49.77V19.8544H52.2277V9.18968ZM51.0239 4.64641C50.6195 4.64641 50.2667 4.78694 49.9768 5.06547C49.6858 5.34484 49.538 5.69652 49.538 6.1115C49.538 6.52001 49.684 6.86522 49.9721 7.13714C50.2585 7.40821 50.6124 7.54565 51.0239 7.54565C51.4353 7.54565 51.7906 7.40821 52.0804 7.13756C52.3722 6.86522 52.5201 6.52001 52.5201 6.1115C52.5201 5.71101 52.3762 5.36285 52.0924 5.07672C51.8091 4.79116 51.4495 4.64641 51.0239 4.64641ZM44.8918 8.40285V19.8544H47.4V4.97299H43.9286L39.516 16.0264L35.234 4.97299H31.6212V19.8544H33.9783V8.40172H34.0593L38.581 19.8544H40.3597L44.8109 8.40285H44.8918Z" fill="#706D6E"/>
    <path d="M11.5618 11.8015H0V0H11.5618V11.8015Z" fill="#F1511B"/>
    <path d="M24.3274 11.8015H12.7657V0H24.3274V11.8015Z" fill="#80CC28"/>
    <path d="M11.5615 24.8367H0V13.0352H11.5615V24.8367Z" fill="#00ADEF"/>
    <path d="M24.3274 24.8367H12.7657V13.0352H24.3274V24.8367Z" fill="#FBBC09"/>
  </g>
  <defs>
    <clipPath id="clip0_331_9261">
      <rect width="114" height="25" fill="white"/>
    </clipPath>
  </defs>
</svg>