<svg xmlns="http://www.w3.org/2000/svg" width="18" height="19" viewBox="0 0 18 19" fill="none">
  <path d="M9 6.125C9.62132 6.125 10.125 5.62132 10.125 5C10.125 4.37868 9.62132 3.875 9 3.875C8.37868 3.875 7.875 4.37868 7.875 5C7.875 5.62132 8.37868 6.125 9 6.125Z" fill="black"/>
  <path d="M9 10.625C9.62132 10.625 10.125 10.1213 10.125 9.5C10.125 8.87868 9.62132 8.375 9 8.375C8.37868 8.375 7.875 8.87868 7.875 9.5C7.875 10.1213 8.37868 10.625 9 10.625Z" fill="black"/>
  <path d="M9 15.125C9.62132 15.125 10.125 14.6213 10.125 14C10.125 13.3787 9.62132 12.875 9 12.875C8.37868 12.875 7.875 13.3787 7.875 14C7.875 14.6213 8.37868 15.125 9 15.125Z" fill="black"/>
</svg>