<svg xmlns="http://www.w3.org/2000/svg" width="15" height="15" viewBox="0 0 15 15" fill="none">
  <path d="M4.75 2.88103C4.67872 2.84341 4.59895 2.82482 4.51838 2.82703C4.43782 2.82924 4.35918 2.85219 4.29008 2.89365C4.22097 2.93512 4.16372 2.9937 4.12385 3.06375C4.08399 3.13379 4.06286 3.21293 4.0625 3.29353V11.706C4.0625 12.056 4.4375 12.2873 4.75 12.1123L12.4812 7.91228C12.5557 7.87211 12.6178 7.81256 12.6612 7.73994C12.7045 7.66733 12.7274 7.58434 12.7274 7.49978C12.7274 7.41521 12.7045 7.33223 12.6612 7.25961C12.6178 7.18699 12.5557 7.12744 12.4812 7.08728L4.75625 2.88103H4.75ZM3.125 3.29353C3.125 2.23103 4.26875 1.54978 5.20625 2.06228L12.9313 6.26228C13.1545 6.38277 13.341 6.56141 13.471 6.77927C13.6009 6.99713 13.6696 7.24609 13.6696 7.49978C13.6696 7.75346 13.6009 8.00242 13.471 8.22028C13.341 8.43814 13.1545 8.61678 12.9313 8.73728L5.20625 12.9373C4.99228 13.0544 4.75153 13.1138 4.50765 13.1097C4.26378 13.1056 4.02516 13.0381 3.81524 12.9139C3.60531 12.7897 3.4313 12.6131 3.31028 12.4013C3.18927 12.1895 3.12542 11.9499 3.125 11.706V3.29353Z" fill="black"/>
</svg>