<svg xmlns="http://www.w3.org/2000/svg" width="15" height="15" viewBox="0 0 15 15" fill="none">
  <path d="M12.3438 1.25C13.1187 1.25 13.75 1.875 13.75 2.65625V6.06875C13.75 6.60625 13.5375 7.125 13.1562 7.50625L7.84375 12.8188C7.65509 13.0077 7.43101 13.1576 7.18435 13.2599C6.93769 13.3622 6.67328 13.4149 6.40625 13.4149C6.13922 13.4149 5.87481 13.3622 5.62815 13.2599C5.38148 13.1576 5.15741 13.0077 4.96875 12.8188L2.1875 10.0375C1.99852 9.84884 1.8486 9.62476 1.74631 9.3781C1.64402 9.13144 1.59137 8.86703 1.59137 8.6C1.59137 8.33297 1.64402 8.06856 1.74631 7.8219C1.8486 7.57524 1.99852 7.35116 2.1875 7.1625L7.5 1.85C7.68834 1.66033 7.91227 1.50969 8.15895 1.40673C8.40563 1.30377 8.6702 1.25051 8.9375 1.25H12.35H12.3438ZM12.3438 2.1875H8.925C8.6375 2.1875 8.3625 2.3 8.15625 2.50625L2.83125 7.8375C2.4125 8.2625 2.41875 8.95 2.84375 9.375L5.625 12.1562C6.05 12.5813 6.75 12.5813 7.175 12.1562L12.4875 6.84375C12.6937 6.6375 12.8062 6.3625 12.8062 6.06875V2.65625C12.8062 2.53193 12.7569 2.4127 12.669 2.32479C12.581 2.23689 12.4618 2.1875 12.3375 2.1875H12.3438ZM10.625 3.4375C10.7481 3.4375 10.87 3.46175 10.9838 3.50886C11.0975 3.55598 11.2009 3.62503 11.2879 3.71209C11.375 3.79914 11.444 3.90249 11.4911 4.01623C11.5382 4.12998 11.5625 4.25189 11.5625 4.375C11.5625 4.49811 11.5382 4.62002 11.4911 4.73377C11.444 4.84751 11.375 4.95086 11.2879 5.03791C11.2009 5.12497 11.0975 5.19402 10.9838 5.24114C10.87 5.28825 10.7481 5.3125 10.625 5.3125C10.3764 5.3125 10.1379 5.21373 9.96209 5.03791C9.78627 4.8621 9.6875 4.62364 9.6875 4.375C9.6875 4.12636 9.78627 3.8879 9.96209 3.71209C10.1379 3.53627 10.3764 3.4375 10.625 3.4375Z" fill="#007EDF"/>
</svg>