<svg xmlns="http://www.w3.org/2000/svg" width="15" height="15" viewBox="0 0 15 15" fill="none">
  <path d="M11.4062 2.19385C11.5306 2.19385 11.6498 2.14446 11.7377 2.05655C11.8256 1.96865 11.875 1.84942 11.875 1.7251C11.875 1.60078 11.8256 1.48155 11.7377 1.39364C11.6498 1.30573 11.5306 1.25635 11.4062 1.25635H3.28125C3.15693 1.25635 3.0377 1.30573 2.94979 1.39364C2.86189 1.48155 2.8125 1.60078 2.8125 1.7251C2.8125 1.84942 2.86189 1.96865 2.94979 2.05655C3.0377 2.14446 3.15693 2.19385 3.28125 2.19385H11.4062ZM7.28125 13.7501H7.34375C7.58125 13.7501 7.78125 13.5751 7.80625 13.3501L7.8125 13.2876V4.7251L10.1375 7.0501C10.3062 7.21885 10.5625 7.23135 10.75 7.09385L10.8 7.0501C10.8798 6.97035 10.9281 6.86451 10.9361 6.75201C10.9442 6.6395 10.9114 6.52787 10.8438 6.4376L10.8 6.3876L7.675 3.2626C7.59562 3.18447 7.49102 3.13716 7.37993 3.12914C7.26884 3.12113 7.15852 3.15293 7.06875 3.21885L7.0125 3.2626L3.8875 6.3876C3.80426 6.47155 3.75581 6.58385 3.75187 6.70201C3.74792 6.82017 3.78877 6.93545 3.86623 7.02477C3.94369 7.11408 4.05203 7.17083 4.16956 7.18364C4.28709 7.19645 4.40512 7.16438 4.5 7.09385L4.55 7.0501L6.875 4.7376V13.2813C6.875 13.5188 7.05 13.7188 7.28125 13.7501Z" fill="black"/>
</svg>