<svg width="205" height="260" viewBox="0 0 205 260" fill="none" xmlns="http://www.w3.org/2000/svg">
<circle cx="104" cy="87.5" r="87" stroke="black"/>
<mask id="mask0_6_410" style="mask-type:alpha" maskUnits="userSpaceOnUse" x="16" y="0" width="176" height="175">
<circle cx="104" cy="87.5" r="87.5" fill="#D9D9D9"/>
</mask>
<g mask="url(#mask0_6_410)">
<path d="M78.676 101.562C80.825 105.541 83.908 108.95 86.108 112.901C89.532 119.044 90.667 126.24 90.604 133.273C90.587 135.196 90.503 137.209 91.339 138.942C93.132 142.658 98.044 143.328 102.167 143.507C108.735 143.792 117.221 142.748 118.846 136.378C119.511 133.769 118.686 131.042 118.515 128.356C117.991 120.082 123.658 112.737 129.717 107.08C135.777 101.422 142.753 96.2723 146.297 88.7773C147.215 86.8353 147.863 84.4964 146.864 82.5954C144.702 78.4784 137.309 80.1504 135.024 76.0994C134.339 74.8844 134.313 73.4263 134.154 72.0403C132.729 59.6563 119.233 51.4474 106.774 51.8444C97.253 52.1484 79.779 57.1473 75.496 66.8083C71.554 75.6993 74.326 93.5033 78.676 101.562Z" fill="#FFE7FB"/>
<path d="M44.8514 196.225C44.7284 200.123 45.4004 204.653 48.7454 206.658C50.4264 207.666 52.4694 207.813 54.4264 207.928C89.9564 210.011 125.614 209.903 161.13 207.608C162.105 207.544 163.143 207.456 163.915 206.859C165.517 205.616 165.033 203.117 164.371 201.202C160.944 191.299 156.867 181.621 152.173 172.252C149.414 166.739 145.934 160.888 140.105 158.882C131.995 156.09 123.704 161.909 115.329 163.762C98.6654 167.448 84.5314 149.583 69.3914 154.398C54.1244 159.252 45.3054 181.828 44.8514 196.225Z" fill="#C3C62B"/>
<path d="M84.0424 146.823C83.7314 147.323 83.4294 147.873 83.4624 148.46C83.5034 149.17 84.0174 149.752 84.5204 150.255C94.9154 160.656 112.858 162.36 125.024 154.1C126.547 153.066 128.03 151.838 128.807 150.169C130.338 146.881 128.533 142.751 125.513 140.742C122.494 138.733 118.628 138.458 115.024 138.858C111.419 139.257 107.898 140.26 104.284 140.57C95.2534 141.347 89.3854 138.231 84.0424 146.823Z" fill="#6987FF"/>
<path d="M88.2707 95.6216C85.8387 95.6456 83.4087 95.6696 80.9777 95.6936C80.2787 95.6996 79.4867 95.7486 79.0387 96.2856C78.4877 96.9456 78.8137 98.0206 79.4887 98.5536C80.1627 99.0866 81.0587 99.2226 81.9117 99.3396C83.0067 99.4906 84.1027 99.6416 85.1987 99.7926C86.7427 100.006 88.4947 100.162 89.6847 99.1556C90.8757 98.1506 90.4287 95.6006 88.8747 95.7186" fill="#F03FA3"/>
<path d="M122.452 96.8413C120.021 96.8653 117.59 96.8893 115.159 96.9123C114.461 96.9193 113.668 96.9693 113.22 97.5053C112.669 98.1653 112.996 99.2393 113.669 99.7733C114.344 100.307 115.241 100.443 116.092 100.56C117.188 100.71 118.284 100.861 119.379 101.012C120.924 101.225 122.676 101.382 123.867 100.375C125.057 99.3693 124.61 96.8193 123.055 96.9383" fill="#F03FA3"/>
<path d="M81.3965 76.9634C82.2095 76.2814 83.1615 75.8744 84.1295 75.5764C85.1045 75.2894 86.1205 75.1524 87.1375 75.1494C89.1595 75.1474 91.2725 75.6774 92.8615 77.0584C91.8005 77.1604 90.8645 77.1104 89.9185 77.1424L87.1415 77.1494C85.2895 77.1314 83.4635 77.1774 81.3965 76.9634Z" fill="black"/>
<path d="M88.9669 86.8854C88.9669 88.5004 88.1458 89.8094 87.1328 89.8094C86.1198 89.8094 85.2979 88.5004 85.2979 86.8854C85.2979 85.2714 86.1198 83.9624 87.1328 83.9624C88.1458 83.9624 88.9669 85.2714 88.9669 86.8854Z" fill="black"/>
<path d="M121.42 76.8221C119.356 77.0621 117.531 77.0371 115.678 77.0761L112.903 77.1041C111.956 77.0821 111.019 77.1451 109.959 77.0551C111.53 75.6551 113.637 75.0991 115.658 75.0771C116.676 75.0681 117.692 75.1931 118.67 75.4681C119.643 75.7541 120.6 76.1501 121.42 76.8221Z" fill="black"/>
<path d="M114.298 86.8854C114.298 88.5004 115.12 89.8094 116.133 89.8094C117.146 89.8094 117.967 88.5004 117.967 86.8854C117.967 85.2714 117.146 83.9624 116.133 83.9624C115.12 83.9624 114.298 85.2714 114.298 86.8854Z" fill="black"/>
<path d="M98.0473 85.2295C98.1633 85.4815 97.7333 92.1835 96.5693 95.4475C96.5693 95.4475 96.5693 100.117 101.943 99.1365" stroke="black" stroke-miterlimit="10"/>
<path d="M94.7656 106.104C94.7656 106.104 102.764 106.643 109.122 105.549" stroke="black" stroke-miterlimit="10"/>
<path d="M43 204.009L48.03 180.879C50.68 168.689 58.13 158.089 68.7 151.458L88.25 139.198L88.83 133.019H88.84L90.15 119.099L90.18 118.799" stroke="black" stroke-miterlimit="10"/>
<path d="M160.89 204.009L155.86 180.879C153.21 168.689 145.76 158.089 135.19 151.458L115.64 139.198L114.25 124.589L113.76 119.328L113.74 119.158" stroke="black" stroke-miterlimit="10"/>
<path d="M69.2305 67.6792C69.6705 68.4292 68.6705 97.9582 86.3105 115.679C90.3305 119.708 95.3204 123.139 101.52 125.458C101.52 125.458 107.18 124.599 113.76 119.328C115.06 118.299 116.39 117.089 117.72 115.679C125.28 107.698 132.82 93.3492 133.67 67.6792" stroke="black" stroke-miterlimit="10"/>
<path d="M70.5942 83.8503C70.5942 83.8503 63.1882 76.0093 60.0782 80.2033C56.9662 84.3993 65.3522 102.715 75.7902 99.5943" stroke="black" stroke-miterlimit="10"/>
<path d="M65.0996 87.3942C65.0996 87.3942 70.1286 86.9912 72.6126 90.7952" stroke="black" stroke-miterlimit="10"/>
<path d="M68.1084 91.1721C68.1084 91.1721 68.1224 89.4411 71.3594 89.3701" stroke="black" stroke-miterlimit="10"/>
<path d="M132.038 83.8503C132.038 83.8503 138.914 75.5394 142.294 79.5224C145.672 83.5044 138.506 102.331 127.886 99.9014" stroke="black" stroke-miterlimit="10"/>
<path d="M137.94 87.0294C137.94 87.0294 132.896 86.9574 130.667 90.9164" stroke="black" stroke-miterlimit="10"/>
<path d="M135.184 90.9961C135.184 90.9961 135.057 89.2701 131.823 89.4121" stroke="black" stroke-miterlimit="10"/>
<path d="M88.2471 139.195C88.2471 139.195 101.701 148.804 115.639 139.195" stroke="black" stroke-miterlimit="10"/>
<path d="M101.45 143.466L94.8764 151.753C94.8764 151.753 87.4304 149.929 83.8154 141.975" stroke="black" stroke-miterlimit="10"/>
<path d="M102.736 143.466L109.309 151.753C109.309 151.753 116.755 149.929 120.37 141.975" stroke="black" stroke-miterlimit="10"/>
<path d="M79.0791 144.945C79.0791 144.945 88.5261 157.868 101.943 160.467C101.943 160.467 116.062 158.579 124.043 144.466" stroke="black" stroke-miterlimit="10"/>
<path d="M76.165 146.864C76.165 146.864 88.526 161.766 101.943 164.364C101.943 164.364 118.931 160.378 126.912 146.265" stroke="black" stroke-miterlimit="10"/>
<path d="M101.943 164.364V204.011" stroke="black" stroke-miterlimit="10"/>
<path d="M120.371 57.7405C120.371 57.7405 98.1008 70.0945 83.8158 71.0405C69.5318 71.9865 71.2588 84.9965 71.2588 84.9965C71.2588 84.9965 60.0998 70.5815 61.4748 50.1745C62.8508 29.7675 104.097 14.1745 124.633 30.9135C124.633 30.9135 152.982 43.6725 132.329 82.2765C132.329 82.2765 124.693 75.6265 120.371 57.7405Z" fill="black"/>
<path d="M112.963 29.7264C113.101 28.1034 113.423 26.4964 113.929 24.9494C115.496 20.1584 120.502 17.6354 125.306 17.1134C126.929 16.9374 128.587 16.9404 130.176 17.3084C134.559 18.3224 137.938 22.0504 139.586 26.2364C140.71 29.0914 141.15 32.2144 140.845 35.2684C140.673 36.9904 140.258 38.7124 139.397 40.2144C138.71 41.4134 137.753 42.4454 136.677 43.3144C132.835 46.4204 126.869 47.5084 122.1 46.5184C118.923 45.8604 116.576 43.8864 115.118 41.0274C113.351 37.5624 112.633 33.5974 112.963 29.7264Z" fill="black"/>
<path d="M114.251 124.589C108.301 126.658 96.4108 130.559 88.8408 133.019L90.1508 119.099C93.4008 121.649 97.1608 123.828 101.521 125.458C101.521 125.458 107.181 124.599 113.761 119.328L114.251 124.589Z" fill="black"/>
</g>
<path d="M2.34375 221.109C1.8125 221.109 1.36719 220.969 1.00781 220.688C0.773438 220.312 0.65625 219.906 0.65625 219.469C0.65625 219.078 0.804688 218.742 1.10156 218.461C1.39844 218.18 1.74219 218.039 2.13281 218.039C2.50781 218.039 2.91406 218.281 3.35156 218.766C3.77344 219.234 4.09375 219.469 4.3125 219.469C5.01562 219.469 5.46875 218.922 5.67188 217.828C5.78125 217.281 5.85938 216.594 5.90625 215.766C5.96875 214.922 6 213.945 6 212.836V203.766C6 202.766 5.9375 202.156 5.8125 201.938C5.76562 201.844 5.64062 201.758 5.4375 201.68C5.25 201.586 5.05469 201.508 4.85156 201.445C4.64844 201.383 4.48438 201.352 4.35938 201.352C4.29688 201.352 4.26562 201.219 4.26562 200.953C4.26562 200.672 4.28125 200.516 4.3125 200.484L7.71094 200.625C7.86719 200.641 8.21875 200.633 8.76562 200.602C9.3125 200.57 10.0547 200.531 10.9922 200.484C11.0391 200.625 11.0625 200.766 11.0625 200.906C11.0625 201.203 11.0312 201.352 10.9688 201.352C10.875 201.352 10.7109 201.383 10.4766 201.445C10.2422 201.508 10.0156 201.586 9.79688 201.68C9.59375 201.758 9.47656 201.836 9.44531 201.914C9.33594 202.305 9.28125 202.969 9.28125 203.906V212.648C9.28125 214.414 9 215.93 8.4375 217.195C7.875 218.461 7.07812 219.43 6.04688 220.102C5.01562 220.773 3.78125 221.109 2.34375 221.109ZM15.1406 216.164C14.2812 216.164 13.5938 215.93 13.0781 215.461C12.5781 214.977 12.3281 214.375 12.3281 213.656C12.3281 213.047 12.5156 212.516 12.8906 212.062C13.2812 211.609 13.7656 211.25 14.3438 210.984C14.5625 210.891 14.7656 210.812 14.9531 210.75C15.1406 210.672 15.3125 210.602 15.4688 210.539C16.0625 210.352 16.5391 210.219 16.8984 210.141C17.2578 210.047 17.5234 209.969 17.6953 209.906C17.8359 209.859 17.9062 209.742 17.9062 209.555V208.711C17.9062 207.43 17.5156 206.789 16.7344 206.789C15.8281 206.789 15.375 207.312 15.375 208.359C15.375 208.703 15.2344 208.961 14.9531 209.133C14.6719 209.289 14.3594 209.367 14.0156 209.367C13.2969 209.367 12.8047 209.133 12.5391 208.664C12.5391 208.258 12.6797 207.867 12.9609 207.492C13.2578 207.117 13.6406 206.781 14.1094 206.484C14.5938 206.172 15.1328 205.93 15.7266 205.758C16.3359 205.57 16.9453 205.477 17.5547 205.477C18.6484 205.477 19.4844 205.781 20.0625 206.391C20.6562 206.984 20.9531 208.07 20.9531 209.648V213.445C20.9531 213.977 21.1406 214.242 21.5156 214.242C21.7969 214.242 22.0625 214.141 22.3125 213.938C22.4219 214 22.4766 214.117 22.4766 214.289C22.4766 214.695 22.4219 214.984 22.3125 215.156C22.0938 215.359 21.7344 215.578 21.2344 215.812C20.75 216.031 20.2891 216.141 19.8516 216.141C19.4766 216.141 19.1172 216.031 18.7734 215.812C18.4297 215.578 18.2031 215.312 18.0938 215.016C18.0781 215.016 17.9922 215.07 17.8359 215.18C17.6797 215.289 17.5625 215.375 17.4844 215.438C17.1719 215.641 16.8125 215.812 16.4062 215.953C16 216.094 15.5781 216.164 15.1406 216.164ZM16.6172 214.477C17.0234 214.477 17.3359 214.383 17.5547 214.195C17.7891 213.992 17.9062 213.75 17.9062 213.469V211.102L16.6875 211.523C16.3594 211.633 16.0547 211.797 15.7734 212.016C15.5078 212.234 15.375 212.523 15.375 212.883C15.375 213.445 15.4922 213.852 15.7266 214.102C15.9766 214.352 16.2734 214.477 16.6172 214.477ZM23.625 216.094C23.5625 216.031 23.5312 215.867 23.5312 215.602C23.5312 215.352 23.5625 215.227 23.625 215.227C23.75 215.227 23.9219 215.195 24.1406 215.133C24.375 215.055 24.5938 214.969 24.7969 214.875C25.0156 214.781 25.1328 214.703 25.1484 214.641C25.2578 214.203 25.3125 213.609 25.3125 212.859V209.648C25.3125 208.773 25.1719 208.188 24.8906 207.891C24.7656 207.734 24.5938 207.625 24.375 207.562C24.1719 207.5 23.9922 207.461 23.8359 207.445C23.6797 207.414 23.6016 207.383 23.6016 207.352C23.6016 206.805 23.6406 206.531 23.7188 206.531C24.125 206.531 24.7031 206.445 25.4531 206.273C26.2031 206.086 27.0547 205.891 28.0078 205.688L28.125 205.664C28.1406 205.648 28.1719 205.641 28.2188 205.641L28.2656 205.617C28.3438 205.617 28.4219 205.672 28.5 205.781C28.5938 205.875 28.6328 205.953 28.6172 206.016L28.5234 206.742C28.5234 206.82 28.5312 206.867 28.5469 206.883C28.5781 206.883 28.6328 206.844 28.7109 206.766C29.5703 205.953 30.6562 205.547 31.9688 205.547C32.875 205.547 33.6094 205.93 34.1719 206.695C34.75 207.461 35.0391 208.625 35.0391 210.188V212.508C35.0391 213.539 35.0938 214.25 35.2031 214.641C35.2344 214.703 35.3516 214.781 35.5547 214.875C35.7578 214.969 35.9688 215.055 36.1875 215.133C36.4219 215.195 36.5859 215.227 36.6797 215.227C36.7109 215.227 36.7344 215.289 36.75 215.414C36.7656 215.539 36.7734 215.672 36.7734 215.812C36.7734 215.953 36.7578 216.047 36.7266 216.094C36.6328 216.094 36.4531 216.078 36.1875 216.047C35.9219 216.031 35.6094 216.016 35.25 216C34.9062 215.969 34.5781 215.945 34.2656 215.93C33.9531 215.914 33.7031 215.906 33.5156 215.906C33.2656 215.906 32.9141 215.922 32.4609 215.953C32.0234 215.984 31.6016 216.008 31.1953 216.023C30.7891 216.055 30.5234 216.078 30.3984 216.094C30.3359 216.031 30.3047 215.867 30.3047 215.602C30.3047 215.352 30.3359 215.227 30.3984 215.227C30.5234 215.227 30.6875 215.195 30.8906 215.133C31.1094 215.055 31.3125 214.969 31.5 214.875C31.7031 214.781 31.8125 214.703 31.8281 214.641C31.9375 214.203 31.9922 213.609 31.9922 212.859V210.75C31.9922 209.594 31.8281 208.773 31.5 208.289C31.1875 207.789 30.6797 207.539 29.9766 207.539C29.4922 207.539 29.1016 207.633 28.8047 207.82C28.5078 207.992 28.3594 208.242 28.3594 208.57V212.508C28.3594 213.539 28.4141 214.25 28.5234 214.641C28.5547 214.703 28.6641 214.781 28.8516 214.875C29.0391 214.969 29.2422 215.055 29.4609 215.133C29.6797 215.195 29.8281 215.227 29.9062 215.227C29.9375 215.227 29.9609 215.289 29.9766 215.414C29.9922 215.539 30 215.672 30 215.812C30 215.953 29.9844 216.047 29.9531 216.094C29.8281 216.078 29.5625 216.055 29.1562 216.023C28.75 216.008 28.3203 215.984 27.8672 215.953C27.4297 215.922 27.0859 215.906 26.8359 215.906C26.6484 215.906 26.3906 215.914 26.0625 215.93C25.75 215.945 25.4219 215.969 25.0781 216C24.7344 216.016 24.4297 216.031 24.1641 216.047C23.8984 216.078 23.7188 216.094 23.625 216.094ZM42.8672 216.164C41.9141 216.164 41.0312 215.922 40.2188 215.438C39.4219 214.953 38.7812 214.305 38.2969 213.492C37.8281 212.68 37.5938 211.789 37.5938 210.82C37.5938 209.82 37.8047 208.922 38.2266 208.125C38.6641 207.328 39.2656 206.695 40.0312 206.227C40.7969 205.758 41.6797 205.523 42.6797 205.523C43.6641 205.523 44.5 205.758 45.1875 206.227C45.8906 206.68 46.4219 207.25 46.7812 207.938C47.1562 208.609 47.3438 209.289 47.3438 209.977C47.3438 210.336 47.2656 210.57 47.1094 210.68C46.9688 210.789 46.6797 210.844 46.2422 210.844H40.9453C40.8516 210.844 40.8047 210.898 40.8047 211.008C40.8047 211.57 40.9062 212.102 41.1094 212.602C41.3281 213.102 41.6406 213.508 42.0469 213.82C42.4688 214.133 42.9766 214.289 43.5703 214.289C44.1016 214.289 44.5938 214.211 45.0469 214.055C45.3594 213.961 45.6016 213.875 45.7734 213.797C45.9453 213.719 46.1016 213.633 46.2422 213.539C46.3984 213.43 46.5781 213.297 46.7812 213.141C46.9219 213.203 46.9922 213.352 46.9922 213.586C46.9922 213.789 46.9609 213.945 46.8984 214.055C46.8047 214.305 46.5547 214.594 46.1484 214.922C45.7578 215.25 45.2734 215.539 44.6953 215.789C44.1328 216.039 43.5234 216.164 42.8672 216.164ZM40.9688 209.555H43.9453C44.1641 209.555 44.2734 209.406 44.2734 209.109C44.2734 208.516 44.1094 207.984 43.7812 207.516C43.4688 207.047 43.0625 206.812 42.5625 206.812C42.1094 206.812 41.75 206.977 41.4844 207.305C41.2344 207.617 41.0547 207.969 40.9453 208.359C40.8516 208.75 40.8047 209.07 40.8047 209.32C40.8047 209.477 40.8594 209.555 40.9688 209.555ZM53.25 216.164C52.3906 216.164 51.6484 215.898 51.0234 215.367C50.4141 214.82 50.1094 213.945 50.1094 212.742V207.328H48.5859C48.4609 207.328 48.3984 207.086 48.3984 206.602C48.3984 206.492 48.4141 206.406 48.4453 206.344C48.8828 206.125 49.2734 205.914 49.6172 205.711C49.9766 205.492 50.2891 205.281 50.5547 205.078C51.2422 204.531 51.7422 204.117 52.0547 203.836C52.3672 203.555 52.5312 203.406 52.5469 203.391C52.6719 203.391 52.8047 203.422 52.9453 203.484C53.0859 203.531 53.1562 203.586 53.1562 203.648V205.945H55.6875C55.8125 205.945 55.875 206.023 55.875 206.18C55.875 206.648 55.7969 207.031 55.6406 207.328H53.1562V212.883C53.1562 214.07 53.5781 214.664 54.4219 214.664C54.8594 214.664 55.1641 214.609 55.3359 214.5C55.5234 214.375 55.6484 214.312 55.7109 214.312C55.7734 214.312 55.8359 214.391 55.8984 214.547C55.9766 214.703 56.0156 214.82 56.0156 214.898C56.0156 215.023 55.8594 215.188 55.5469 215.391C55.25 215.594 54.8828 215.773 54.4453 215.93C54.0234 216.086 53.625 216.164 53.25 216.164ZM62.2266 216.094C62.1641 216.031 62.1328 215.898 62.1328 215.695C62.1328 215.383 62.1641 215.227 62.2266 215.227C62.3516 215.227 62.5312 215.203 62.7656 215.156C63 215.109 63.2188 215.047 63.4219 214.969C63.625 214.875 63.7422 214.789 63.7734 214.711C63.8672 214.352 63.9141 213.664 63.9141 212.648V203.789C63.9141 202.914 63.8672 202.305 63.7734 201.961C63.7422 201.867 63.6172 201.773 63.3984 201.68C63.1953 201.57 62.9766 201.484 62.7422 201.422C62.5078 201.344 62.3281 201.305 62.2031 201.305C62.1406 201.305 62.1094 201.164 62.1094 200.883C62.1094 200.633 62.1328 200.484 62.1797 200.438C62.8047 200.469 63.3984 200.5 63.9609 200.531C64.5391 200.547 65.0938 200.555 65.625 200.555L69.1641 200.508C69.7422 200.508 70.3281 200.586 70.9219 200.742C71.5156 200.883 72.0938 201.109 72.6562 201.422C73.2031 201.734 73.6484 202.172 73.9922 202.734C74.3359 203.297 74.5078 203.945 74.5078 204.68C74.5078 205.211 74.3906 205.688 74.1562 206.109C73.9375 206.531 73.6797 206.883 73.3828 207.164C73.0859 207.43 72.8125 207.609 72.5625 207.703C72.4375 207.75 72.3984 207.797 72.4453 207.844C72.8203 207.906 73.2031 208.102 73.5938 208.43C74 208.758 74.3438 209.195 74.625 209.742C74.9062 210.273 75.0469 210.898 75.0469 211.617C75.0469 212.508 74.7969 213.289 74.2969 213.961C73.7969 214.633 73.1016 215.148 72.2109 215.508C71.3203 215.852 70.2812 216.016 69.0938 216L65.6484 215.953C65.1797 215.953 64.6562 215.969 64.0781 216C63.5156 216.016 63.0625 216.031 62.7188 216.047L62.2266 216.094ZM68.4141 207.305C69.0234 207.305 69.4688 207.234 69.75 207.094C70 206.969 70.1797 206.852 70.2891 206.742C70.4141 206.633 70.5469 206.406 70.6875 206.062C70.8438 205.703 70.9219 205.25 70.9219 204.703C70.9219 202.766 70.2031 201.797 68.7656 201.797C68.0469 201.797 67.5938 201.828 67.4062 201.891C67.2656 201.906 67.1953 202 67.1953 202.172V206.977C67.1953 207.195 67.6016 207.305 68.4141 207.305ZM69.1172 214.711C70.7266 214.711 71.5312 213.766 71.5312 211.875C71.5312 209.703 70.5703 208.617 68.6484 208.617C68.1641 208.617 67.7656 208.656 67.4531 208.734C67.2812 208.812 67.1953 208.883 67.1953 208.945V214.219C67.1953 214.375 67.25 214.484 67.3594 214.547C67.5156 214.656 68.1016 214.711 69.1172 214.711ZM76.4062 216.094C76.3438 216.031 76.3125 215.867 76.3125 215.602C76.3125 215.352 76.3438 215.227 76.4062 215.227C76.5312 215.227 76.7109 215.195 76.9453 215.133C77.1797 215.055 77.3984 214.969 77.6016 214.875C77.8047 214.781 77.9141 214.703 77.9297 214.641C78.0391 214.203 78.0938 213.609 78.0938 212.859V209.648C78.0938 208.773 77.9531 208.188 77.6719 207.891C77.5469 207.734 77.375 207.625 77.1562 207.562C76.9531 207.5 76.7734 207.461 76.6172 207.445C76.4609 207.414 76.3828 207.383 76.3828 207.352C76.3828 206.805 76.4219 206.531 76.5 206.531C76.9062 206.531 77.4688 206.445 78.1875 206.273C78.9219 206.086 79.6953 205.906 80.5078 205.734L81.0469 205.617C81.125 205.617 81.2031 205.672 81.2812 205.781C81.3594 205.875 81.3984 205.953 81.3984 206.016C81.3828 206.109 81.3594 206.297 81.3281 206.578C81.3125 206.859 81.2969 207.016 81.2812 207.047C82.0625 206.031 82.9453 205.523 83.9297 205.523C84.6328 205.523 85.3047 205.812 85.9453 206.391C85.9453 207.203 85.8438 207.805 85.6406 208.195C85.4531 208.586 85.1016 208.781 84.5859 208.781C84.2734 208.781 83.9141 208.602 83.5078 208.242C83.1016 207.883 82.7422 207.703 82.4297 207.703C82.1172 207.703 81.8672 207.828 81.6797 208.078C81.4922 208.312 81.3516 208.617 81.2578 208.992C81.1797 209.367 81.1406 209.758 81.1406 210.164V212.531C81.1406 213.547 81.1953 214.25 81.3047 214.641C81.3359 214.703 81.4453 214.781 81.6328 214.875C81.8203 214.969 82.0234 215.055 82.2422 215.133C82.4609 215.195 82.6094 215.227 82.6875 215.227C82.7188 215.227 82.7422 215.289 82.7578 215.414C82.7734 215.539 82.7812 215.672 82.7812 215.812C82.7812 215.953 82.7656 216.047 82.7344 216.094C82.6094 216.078 82.3438 216.055 81.9375 216.023C81.5312 216.008 81.1016 215.984 80.6484 215.953C80.2109 215.922 79.8672 215.906 79.6172 215.906C79.4297 215.906 79.1719 215.914 78.8438 215.93C78.5312 215.945 78.2031 215.969 77.8594 216C77.5156 216.016 77.2109 216.031 76.9453 216.047C76.6797 216.078 76.5 216.094 76.4062 216.094ZM90.0469 216.164C89.1875 216.164 88.5 215.93 87.9844 215.461C87.4844 214.977 87.2344 214.375 87.2344 213.656C87.2344 213.047 87.4219 212.516 87.7969 212.062C88.1875 211.609 88.6719 211.25 89.25 210.984C89.4688 210.891 89.6719 210.812 89.8594 210.75C90.0469 210.672 90.2188 210.602 90.375 210.539C90.9688 210.352 91.4453 210.219 91.8047 210.141C92.1641 210.047 92.4297 209.969 92.6016 209.906C92.7422 209.859 92.8125 209.742 92.8125 209.555V208.711C92.8125 207.43 92.4219 206.789 91.6406 206.789C90.7344 206.789 90.2812 207.312 90.2812 208.359C90.2812 208.703 90.1406 208.961 89.8594 209.133C89.5781 209.289 89.2656 209.367 88.9219 209.367C88.2031 209.367 87.7109 209.133 87.4453 208.664C87.4453 208.258 87.5859 207.867 87.8672 207.492C88.1641 207.117 88.5469 206.781 89.0156 206.484C89.5 206.172 90.0391 205.93 90.6328 205.758C91.2422 205.57 91.8516 205.477 92.4609 205.477C93.5547 205.477 94.3906 205.781 94.9688 206.391C95.5625 206.984 95.8594 208.07 95.8594 209.648V213.445C95.8594 213.977 96.0469 214.242 96.4219 214.242C96.7031 214.242 96.9688 214.141 97.2188 213.938C97.3281 214 97.3828 214.117 97.3828 214.289C97.3828 214.695 97.3281 214.984 97.2188 215.156C97 215.359 96.6406 215.578 96.1406 215.812C95.6562 216.031 95.1953 216.141 94.7578 216.141C94.3828 216.141 94.0234 216.031 93.6797 215.812C93.3359 215.578 93.1094 215.312 93 215.016C92.9844 215.016 92.8984 215.07 92.7422 215.18C92.5859 215.289 92.4688 215.375 92.3906 215.438C92.0781 215.641 91.7188 215.812 91.3125 215.953C90.9062 216.094 90.4844 216.164 90.0469 216.164ZM91.5234 214.477C91.9297 214.477 92.2422 214.383 92.4609 214.195C92.6953 213.992 92.8125 213.75 92.8125 213.469V211.102L91.5938 211.523C91.2656 211.633 90.9609 211.797 90.6797 212.016C90.4141 212.234 90.2812 212.523 90.2812 212.883C90.2812 213.445 90.3984 213.852 90.6328 214.102C90.8828 214.352 91.1797 214.477 91.5234 214.477ZM99.0469 221.109C98.5781 221.109 98.1953 220.984 97.8984 220.734C97.6172 220.484 97.4766 220.195 97.4766 219.867C97.4766 219.398 97.6562 219.031 98.0156 218.766C100.016 218.766 101.305 218.156 101.883 216.938L102.609 215.391L99 207.375C98.8438 207.031 98.6016 206.797 98.2734 206.672C97.9609 206.547 97.6875 206.484 97.4531 206.484C97.3906 206.484 97.3594 206.367 97.3594 206.133C97.3594 205.82 97.375 205.648 97.4062 205.617C97.4688 205.617 97.6172 205.625 97.8516 205.641C98.1016 205.656 98.4453 205.68 98.8828 205.711C99.3203 205.742 99.6875 205.766 99.9844 205.781C100.297 205.797 100.547 205.805 100.734 205.805C100.969 205.805 101.305 205.789 101.742 205.758C102.18 205.727 102.602 205.695 103.008 205.664C103.43 205.633 103.695 205.617 103.805 205.617C103.852 205.758 103.875 205.922 103.875 206.109C103.875 206.359 103.844 206.484 103.781 206.484C103.656 206.484 103.477 206.516 103.242 206.578C103.008 206.641 102.797 206.719 102.609 206.812C102.422 206.891 102.328 206.984 102.328 207.094C102.359 207.328 102.523 207.836 102.82 208.617C103.133 209.398 103.586 210.484 104.18 211.875C104.711 210.719 105.117 209.828 105.398 209.203C105.695 208.562 105.867 208.188 105.914 208.078C106.008 207.859 106.055 207.625 106.055 207.375C106.055 207.172 105.906 206.977 105.609 206.789C105.312 206.586 104.906 206.484 104.391 206.484C104.328 206.484 104.297 206.344 104.297 206.062C104.297 205.953 104.297 205.867 104.297 205.805C104.312 205.727 104.328 205.664 104.344 205.617C104.469 205.617 104.727 205.633 105.117 205.664C105.523 205.695 105.945 205.727 106.383 205.758C106.82 205.789 107.164 205.805 107.414 205.805C107.586 205.805 107.781 205.797 108 205.781C108.219 205.75 108.461 205.727 108.727 205.711L109.922 205.617C109.984 205.727 110.016 205.859 110.016 206.016C110.016 206.328 109.984 206.484 109.922 206.484C109.766 206.484 109.547 206.523 109.266 206.602C109 206.664 108.734 206.766 108.469 206.906C108.219 207.031 108.047 207.203 107.953 207.422L103.594 216.867C102.281 219.695 100.766 221.109 99.0469 221.109Z" fill="#212529"/>
<path d="M7.815 246.1C9.365 246.1 10.58 246.53 11.46 247.39C12.35 248.24 12.795 249.46 12.795 251.05C12.795 252.64 12.35 253.865 11.46 254.725C10.58 255.575 9.365 256 7.815 256H4.62V246.1H7.815ZM7.935 254.875C9.065 254.875 9.945 254.54 10.575 253.87C11.215 253.19 11.535 252.25 11.535 251.05C11.535 249.85 11.215 248.915 10.575 248.245C9.945 247.565 9.065 247.225 7.935 247.225H5.82V254.875H7.935ZM15.4305 256V246.1H22.3755V247.225H16.6305V250.42H21.1005V251.545H16.6305V254.875H22.6005V256H15.4305ZM32.676 246.1L28.926 256H27.561L23.796 246.1H25.086L27.606 252.94L28.236 254.905L28.866 252.955L31.386 246.1H32.676ZM34.7225 256V246.1H41.6675V247.225H35.9225V250.42H40.3925V251.545H35.9225V254.875H41.8925V256H34.7225ZM45.488 254.875H51.158V256H44.288V246.1H45.488V254.875ZM56.8913 245.95C57.8313 245.95 58.6413 246.16 59.3213 246.58C60.0113 246.99 60.5413 247.575 60.9113 248.335C61.2913 249.095 61.4813 250 61.4813 251.05C61.4813 252.1 61.2913 253.005 60.9113 253.765C60.5413 254.525 60.0113 255.115 59.3213 255.535C58.6413 255.945 57.8313 256.15 56.8913 256.15C55.9513 256.15 55.1363 255.945 54.4463 255.535C53.7663 255.115 53.2363 254.525 52.8563 253.765C52.4863 253.005 52.3013 252.1 52.3013 251.05C52.3013 250 52.4863 249.095 52.8563 248.335C53.2363 247.575 53.7663 246.99 54.4463 246.58C55.1363 246.16 55.9513 245.95 56.8913 245.95ZM56.8913 247.075C56.2113 247.075 55.6213 247.235 55.1213 247.555C54.6213 247.865 54.2363 248.32 53.9663 248.92C53.6963 249.51 53.5613 250.22 53.5613 251.05C53.5613 251.88 53.6963 252.595 53.9663 253.195C54.2363 253.785 54.6213 254.24 55.1213 254.56C55.6213 254.87 56.2113 255.025 56.8913 255.025C57.5813 255.025 58.1713 254.87 58.6613 254.56C59.1613 254.24 59.5463 253.785 59.8163 253.195C60.0863 252.595 60.2213 251.88 60.2213 251.05C60.2213 250.22 60.0863 249.51 59.8163 248.92C59.5463 248.32 59.1613 247.865 58.6613 247.555C58.1713 247.235 57.5813 247.075 56.8913 247.075ZM67.617 246.1C68.287 246.1 68.867 246.225 69.357 246.475C69.857 246.715 70.247 247.06 70.527 247.51C70.807 247.96 70.947 248.495 70.947 249.115C70.947 249.735 70.807 250.27 70.527 250.72C70.247 251.17 69.857 251.52 69.357 251.77C68.867 252.01 68.287 252.13 67.617 252.13H65.322V256H64.122V246.1H67.617ZM67.437 251.005C68.217 251.005 68.787 250.845 69.147 250.525C69.507 250.195 69.687 249.725 69.687 249.115C69.687 248.495 69.507 248.025 69.147 247.705C68.787 247.385 68.217 247.225 67.437 247.225H65.322V251.005H67.437ZM73.2772 256V246.1H80.2222V247.225H74.4772V250.42H78.9472V251.545H74.4772V254.875H80.4472V256H73.2772ZM86.5927 246.1C87.6027 246.1 88.4127 246.36 89.0227 246.88C89.6327 247.4 89.9377 248.105 89.9377 248.995C89.9377 249.885 89.6277 250.58 89.0077 251.08C88.3977 251.57 87.5877 251.815 86.5777 251.815L86.4727 251.89H84.0427V256H82.8427V246.1H86.5927ZM86.5777 250.765C87.2877 250.765 87.8127 250.62 88.1527 250.33C88.5027 250.03 88.6777 249.585 88.6777 248.995C88.6777 248.405 88.5027 247.965 88.1527 247.675C87.8127 247.375 87.2877 247.225 86.5777 247.225H84.0427V250.765H86.5777ZM87.2677 251.005L90.5377 256H89.1127L86.2627 251.665L87.2677 251.005Z" fill="#212529" fill-opacity="0.75"/>
</svg>
