<svg width="202" height="260" viewBox="0 0 202 260" fill="none" xmlns="http://www.w3.org/2000/svg">
<circle cx="101" cy="87.5" r="87" stroke="black"/>
<mask id="mask0_6_369" style="mask-type:alpha" maskUnits="userSpaceOnUse" x="13" y="0" width="176" height="175">
<circle cx="101" cy="87.5" r="87.5" fill="#D9D9D9"/>
</mask>
<g mask="url(#mask0_6_369)">
<path d="M86.3 121.179C86.99 124.765 87.7689 128.527 90.1529 131.292C93.8769 135.612 100.245 136.192 105.941 136.461C109.168 136.613 112.928 136.533 114.903 133.978C116.362 132.093 116.308 129.5 116.548 127.128C117.313 119.576 121.596 112.925 124.72 106.008C132.726 88.2829 133.158 67.2839 125.891 49.2439C124.879 46.7339 123.672 44.2049 121.645 42.4109C119.365 40.3949 116.3 39.5289 113.302 39.0069C99.692 36.6339 73.4409 40.0269 74.3029 58.2649C75.2739 78.8159 82.408 100.955 86.3 121.179Z" fill="#FFE7FB"/>
<path d="M145.764 200.626C148.27 200.696 150.975 200.709 153.016 199.255C156.473 196.793 156.229 191.667 155.553 187.477C153.198 172.881 149.188 157.078 137.243 148.366C128.035 141.651 115.909 140.591 104.521 140.992C95.3933 141.314 86.3073 142.419 77.2853 143.842C71.3983 144.77 65.2563 145.956 60.6183 149.7C54.1973 154.883 52.1653 163.644 50.5273 171.732C49.2373 178.097 43.1073 192.285 49.1293 197.036C54.6923 201.425 72.8633 198.575 79.8333 198.771C101.81 199.389 123.787 199.998 145.764 200.626Z" fill="#6987FF"/>
<path d="M89.5912 188.839C90.5772 193.148 92.0382 197.564 95.2112 200.643C98.3832 203.721 103.699 204.979 107.295 202.408C111.626 199.312 111.368 192.969 111.377 187.646C111.386 181.815 112.261 175.987 113.962 170.41C116.45 162.256 120.715 154.537 121.503 146.049C121.769 143.191 121.44 139.905 119.179 138.138C117.805 137.064 115.989 136.783 114.257 136.576C104.688 135.433 88.0032 132.564 84.9542 145.033C83.4962 150.993 86.0142 159.217 86.5602 165.265C87.2722 173.162 87.8182 181.088 89.5912 188.839Z" fill="#DBC9FF"/>
<path d="M86.1171 89.6279C83.6871 89.6519 81.2551 89.6759 78.8251 89.6999C78.1261 89.7059 77.3331 89.7549 76.8851 90.2919C76.3341 90.9519 76.6611 92.0259 77.3351 92.5599C78.0101 93.0929 78.9061 93.2289 79.7581 93.3459C80.8541 93.4969 81.9501 93.6479 83.0451 93.7989C84.5891 94.0119 86.3421 94.1679 87.5321 93.1619C88.7231 92.1559 88.2751 89.6059 86.7211 89.7239" fill="#F03FA3"/>
<path d="M120.299 90.8477C117.868 90.8717 115.438 90.8947 113.007 90.9187C112.308 90.9257 111.516 90.9747 111.067 91.5117C110.517 92.1717 110.843 93.2457 111.518 93.7797C112.191 94.3127 113.088 94.4487 113.939 94.5657C115.035 94.7167 116.132 94.8677 117.228 95.0187C118.771 95.2307 120.523 95.3877 121.714 94.3817C122.904 93.3757 122.457 90.8257 120.903 90.9447" fill="#F03FA3"/>
<path d="M81.8857 72.9367C82.5647 72.1217 83.4297 71.5527 84.3317 71.0887C85.2407 70.6347 86.2147 70.3207 87.2167 70.1377C89.2057 69.7787 91.3797 69.9277 93.1867 71.0067C92.1617 71.2947 91.2297 71.4097 90.3047 71.6087L87.5737 72.1047C85.7467 72.4157 83.9577 72.7827 81.8857 72.9367Z" fill="black"/>
<path d="M89.2979 80.5768C89.2979 82.1918 88.4769 83.4998 87.4629 83.4998C86.4499 83.4998 85.6289 82.1918 85.6289 80.5768C85.6289 78.9618 86.4499 77.6528 87.4629 77.6528C88.4769 77.6528 89.2979 78.9618 89.2979 80.5768Z" fill="black"/>
<path d="M121.954 73.2486C119.893 72.9776 118.128 72.5106 116.322 72.0976L113.623 71.4486C112.71 71.1986 111.786 71.0306 110.779 70.6846C112.645 69.7106 114.823 69.6836 116.789 70.1536C117.778 70.3926 118.733 70.7616 119.615 71.2656C120.489 71.7806 121.321 72.3966 121.954 73.2486Z" fill="black"/>
<path d="M114.629 80.5768C114.629 82.1918 115.45 83.4998 116.464 83.4998C117.477 83.4998 118.298 82.1918 118.298 80.5768C118.298 78.9618 117.477 77.6528 116.464 77.6528C115.45 77.6528 114.629 78.9618 114.629 80.5768Z" fill="black"/>
<path d="M99.6589 78.9209C99.7729 79.1719 98.9599 85.6659 96.8999 89.1379C96.8999 89.1379 96.4479 91.5279 101.051 92.8269" stroke="black" stroke-miterlimit="10"/>
<path d="M95.0693 99.4517C95.0693 99.4517 103.156 102.133 109.424 99.5897" stroke="black" stroke-miterlimit="10"/>
<path d="M88.86 115.92L87.72 127.96L87.25 132.89L84.29 134.75L67.7 145.15C57.13 151.78 49.68 162.38 47.03 174.57L42 197.7" stroke="black" stroke-miterlimit="10"/>
<path d="M112.95 115.04L113.37 119.5L114.19 128.09L114.64 132.89L134.19 145.15C144.76 151.78 152.21 162.38 154.86 174.57L159.89 197.7" stroke="black" stroke-miterlimit="10"/>
<path d="M132.68 61.3696C132.73 63.2596 132.74 65.0896 132.71 66.8596C132.71 66.8996 132.72 66.9296 132.72 66.9496C132.72 66.9596 132.72 66.9796 132.71 66.9896C132.38 89.2996 126.44 102.07 119.76 109.37C117.51 111.83 115.18 113.66 112.95 115.04C112.21 115.5 111.48 115.9 110.77 116.26C105.08 119.15 100.52 119.15 100.52 119.15C99.3705 119.15 98.2605 119.07 97.2005 118.92C94.0905 118.49 91.3305 117.44 88.8605 115.92C87.2505 114.93 85.7705 113.74 84.4205 112.39C75.3605 103.41 71.5005 87.3296 69.7805 75.6096L69.7705 75.5996C69.7005 75.1196 69.6305 74.6396 69.5705 74.1796C68.5705 66.9196 68.3905 61.6496 68.2305 61.3696" stroke="black" stroke-miterlimit="10"/>
<path d="M142.969 35.6968C148.778 55.7188 156.343 135.45 116.402 133.998L112.946 115.04C121.815 109.56 132.266 96.7898 132.706 66.9898C132.716 66.9798 132.716 66.9798 132.716 66.9798C132.716 66.9798 132.716 66.9698 132.716 66.9498C132.716 66.9298 132.706 66.8998 132.706 66.8598C132.656 65.9598 131.896 59.9698 121.605 45.4698C121.605 45.4698 108.336 61.3698 88.8557 61.3698C70.5657 61.3698 69.3457 70.5798 69.5657 74.1798C69.6257 75.0598 69.7657 75.5998 69.7657 75.5998L69.7757 75.6098C71.7557 89.0898 76.5657 108.35 88.8557 115.92L87.2457 132.89L60.6177 149.7C58.2527 129.542 54.6547 103.132 54.8147 70.4218C54.8147 70.4218 53.5947 9.68884 110.736 15.3758C110.736 15.3758 124.33 17.7308 126.243 24.1188C126.243 24.1188 140.078 25.7378 142.969 35.6968Z" fill="black"/>
<path d="M87.2461 132.89C87.2461 132.89 100.788 141.66 114.636 132.89" stroke="black" stroke-miterlimit="10"/>
<path d="M85.4834 133.998C85.4834 133.998 100.958 147.621 116.402 133.998" stroke="black" stroke-miterlimit="10"/>
<path d="M93.856 197.7C93.856 197.7 93.746 197.19 93.546 196.25C93.316 195.18 92.976 193.56 92.546 191.53C92.226 190.03 91.856 188.29 91.456 186.39C91.136 184.91 90.806 183.33 90.446 181.67C90.096 180.02 89.736 178.3 89.356 176.53C89.036 174.99 88.696 173.41 88.356 171.81C87.996 170.1 87.636 168.38 87.266 166.67C86.936 165.09 86.596 163.51 86.266 161.95C85.896 160.2 85.536 158.48 85.186 156.81C84.836 155.19 84.506 153.6 84.186 152.09C82.346 143.33 80.996 136.82 81.036 136.79" stroke="black" stroke-miterlimit="10"/>
<path d="M71.8772 142.529C71.5612 142.727 70.2422 156.37 70.2422 156.37L82.7772 169.737L79.2612 177.853L92.2952 190.346" stroke="black" stroke-miterlimit="10"/>
<path d="M107.326 197.7C107.326 197.7 107.436 197.19 107.636 196.25C107.866 195.18 108.206 193.56 108.636 191.53C108.956 190.03 109.326 188.29 109.726 186.39C110.046 184.91 110.386 183.33 110.736 181.67C111.086 180.02 111.456 178.3 111.826 176.53C112.156 174.99 112.486 173.41 112.826 171.81C113.186 170.1 113.546 168.38 113.916 166.67C114.246 165.09 114.586 163.51 114.906 161.95C115.276 160.2 115.646 158.48 115.996 156.81C116.336 155.19 116.676 153.6 116.986 152.09C118.836 143.33 120.186 136.82 120.146 136.79" stroke="black" stroke-miterlimit="10"/>
<path d="M129.305 142.529C129.621 142.727 130.94 156.37 130.94 156.37L118.405 169.737L121.921 177.853L108.887 190.346" stroke="black" stroke-miterlimit="10"/>
<path d="M116.986 152.09C116.676 153.6 116.336 155.19 115.996 156.81H85.1855C84.8355 155.19 84.5055 153.6 84.1855 152.09H116.986Z" fill="black"/>
<path d="M114.906 161.95C114.586 163.51 114.246 165.09 113.916 166.67H87.2656C86.9356 165.09 86.5956 163.51 86.2656 161.95H114.906Z" fill="black"/>
<path d="M112.826 171.81C112.486 173.41 112.156 174.99 111.826 176.53H89.3564C89.0364 174.99 88.6964 173.41 88.3564 171.81H112.826Z" fill="black"/>
<path d="M96.0694 39.3787C96.0694 45.7947 89.7354 50.9967 81.9214 50.9967C74.1074 50.9967 67.7734 45.7947 67.7734 39.3787C67.7734 32.9627 74.1074 27.7607 81.9214 27.7607C89.7354 27.7607 96.0694 32.9627 96.0694 39.3787Z" stroke="white" stroke-width="2" stroke-miterlimit="10"/>
<path d="M133.176 39.3787C133.176 45.7947 126.841 50.9967 119.027 50.9967C111.214 50.9967 104.879 45.7947 104.879 39.3787C104.879 32.9627 111.214 27.7607 119.027 27.7607C126.841 27.7607 133.176 32.9627 133.176 39.3787Z" stroke="white" stroke-width="2" stroke-miterlimit="10"/>
<path d="M96.0693 39.3788C96.0693 39.3788 100.166 35.7238 104.879 39.3788" stroke="white" stroke-width="2" stroke-miterlimit="10"/>
<path d="M113.37 119.5C105.52 122.16 93.3397 126.13 87.7197 127.96L88.8597 115.92C91.3297 117.44 94.0897 118.49 97.1997 118.92C98.2597 119.07 99.3697 119.15 100.52 119.15C100.52 119.15 105.08 119.15 110.77 116.26C111.48 115.9 112.21 115.5 112.95 115.04L113.37 119.5Z" fill="black"/>
</g>
<path d="M0.351562 216.094C0.289062 216.031 0.257812 215.914 0.257812 215.742C0.257812 215.414 0.273438 215.25 0.304688 215.25C0.429688 215.25 0.617188 215.211 0.867188 215.133C1.11719 215.055 1.35938 214.961 1.59375 214.852C1.84375 214.727 2 214.609 2.0625 214.5C2.1875 214.312 2.32031 214.086 2.46094 213.82C2.60156 213.539 2.70312 213.312 2.76562 213.141L2.88281 212.859L8.0625 200.953C8.23438 200.547 8.52344 200.344 8.92969 200.344C9.16406 200.344 9.35156 200.445 9.49219 200.648L14.2969 212.531C14.4375 212.891 14.5703 213.234 14.6953 213.562C14.8359 213.875 14.9609 214.172 15.0703 214.453C15.1328 214.609 15.2734 214.75 15.4922 214.875C15.7109 214.984 15.9453 215.07 16.1953 215.133C16.4609 215.195 16.6641 215.227 16.8047 215.227C16.8672 215.227 16.8984 215.359 16.8984 215.625C16.8984 215.875 16.8828 216.031 16.8516 216.094L15.4219 216C14.9688 215.969 14.5781 215.945 14.25 215.93C13.9219 215.898 13.6562 215.891 13.4531 215.906L9.91406 216.094C9.85156 216.031 9.82031 215.867 9.82031 215.602C9.82031 215.352 9.85156 215.227 9.91406 215.227C10.2578 215.227 10.6094 215.156 10.9688 215.016C11.3281 214.859 11.5078 214.656 11.5078 214.406C11.5078 214.391 11.4609 214.25 11.3672 213.984C11.2891 213.719 11.1406 213.336 10.9219 212.836L10.2188 211.125C10.1562 211.062 10.1016 211.031 10.0547 211.031C9.89844 211.016 9.63281 211.008 9.25781 211.008C8.88281 211.008 8.39844 211.008 7.80469 211.008C7.28906 211.008 6.82812 211.008 6.42188 211.008C6.03125 211.008 5.70312 211.016 5.4375 211.031C5.375 211.031 5.32031 211.07 5.27344 211.148L4.5 212.93C4.23438 213.555 4.07812 214.008 4.03125 214.289C4 214.57 4.14062 214.789 4.45312 214.945C4.73438 215.086 4.97656 215.172 5.17969 215.203C5.39844 215.219 5.58594 215.227 5.74219 215.227C5.78906 215.242 5.8125 215.367 5.8125 215.602C5.8125 215.805 5.79688 215.969 5.76562 216.094C5.0625 216.047 4.54688 216.008 4.21875 215.977C3.90625 215.945 3.67188 215.93 3.51562 215.93C3.35938 215.914 3.1875 215.914 3 215.93C2.82812 215.945 2.54688 215.969 2.15625 216C1.76562 216.016 1.16406 216.047 0.351562 216.094ZM7.80469 209.602C8.11719 209.602 8.40625 209.602 8.67188 209.602C8.95312 209.586 9.21875 209.57 9.46875 209.555L9.53906 209.438L7.85156 205.242L6.02344 209.438C6.02344 209.5 6.03906 209.531 6.07031 209.531C6.53906 209.578 7.11719 209.602 7.80469 209.602ZM17.5781 216.094C17.5156 216.031 17.4844 215.867 17.4844 215.602C17.4844 215.352 17.5156 215.227 17.5781 215.227C17.7031 215.227 17.8828 215.195 18.1172 215.133C18.3516 215.055 18.5703 214.969 18.7734 214.875C18.9766 214.781 19.0859 214.703 19.1016 214.641C19.2109 214.203 19.2656 213.609 19.2656 212.859V203.555C19.2656 203.195 19.25 202.875 19.2188 202.594C19.2031 202.312 19.1797 202.07 19.1484 201.867C19.0859 201.617 18.6797 201.492 17.9297 201.492H17.7188C17.625 201.492 17.5781 201.336 17.5781 201.023C17.5781 200.758 17.625 200.625 17.7188 200.625C18.625 200.547 19.4766 200.414 20.2734 200.227C21.0859 200.039 21.6641 199.891 22.0078 199.781L22.2422 199.711H22.2891C22.3516 199.711 22.4141 199.758 22.4766 199.852C22.5391 199.945 22.5781 200.031 22.5938 200.109C22.4219 200.844 22.3359 201.633 22.3359 202.477L22.3125 212.508C22.3125 213.539 22.3672 214.25 22.4766 214.641C22.5078 214.703 22.625 214.781 22.8281 214.875C23.0312 214.969 23.2422 215.055 23.4609 215.133C23.6953 215.195 23.8594 215.227 23.9531 215.227C23.9844 215.227 24.0078 215.289 24.0234 215.414C24.0391 215.539 24.0469 215.672 24.0469 215.812C24.0469 215.953 24.0312 216.047 24 216.094C23.9062 216.094 23.7266 216.078 23.4609 216.047C23.1953 216.031 22.8828 216.016 22.5234 216C22.1797 215.969 21.8516 215.945 21.5391 215.93C21.2266 215.914 20.9766 215.906 20.7891 215.906C20.6016 215.906 20.3438 215.914 20.0156 215.93C19.7031 215.945 19.375 215.969 19.0312 216C18.6875 216.016 18.3828 216.031 18.1172 216.047C17.8516 216.078 17.6719 216.094 17.5781 216.094ZM30.3281 216.164C29.375 216.164 28.4922 215.922 27.6797 215.438C26.8828 214.953 26.2422 214.305 25.7578 213.492C25.2891 212.68 25.0547 211.789 25.0547 210.82C25.0547 209.82 25.2656 208.922 25.6875 208.125C26.125 207.328 26.7266 206.695 27.4922 206.227C28.2578 205.758 29.1406 205.523 30.1406 205.523C31.125 205.523 31.9609 205.758 32.6484 206.227C33.3516 206.68 33.8828 207.25 34.2422 207.938C34.6172 208.609 34.8047 209.289 34.8047 209.977C34.8047 210.336 34.7266 210.57 34.5703 210.68C34.4297 210.789 34.1406 210.844 33.7031 210.844H28.4062C28.3125 210.844 28.2656 210.898 28.2656 211.008C28.2656 211.57 28.3672 212.102 28.5703 212.602C28.7891 213.102 29.1016 213.508 29.5078 213.82C29.9297 214.133 30.4375 214.289 31.0312 214.289C31.5625 214.289 32.0547 214.211 32.5078 214.055C32.8203 213.961 33.0625 213.875 33.2344 213.797C33.4062 213.719 33.5625 213.633 33.7031 213.539C33.8594 213.43 34.0391 213.297 34.2422 213.141C34.3828 213.203 34.4531 213.352 34.4531 213.586C34.4531 213.789 34.4219 213.945 34.3594 214.055C34.2656 214.305 34.0156 214.594 33.6094 214.922C33.2188 215.25 32.7344 215.539 32.1562 215.789C31.5938 216.039 30.9844 216.164 30.3281 216.164ZM28.4297 209.555H31.4062C31.625 209.555 31.7344 209.406 31.7344 209.109C31.7344 208.516 31.5703 207.984 31.2422 207.516C30.9297 207.047 30.5234 206.812 30.0234 206.812C29.5703 206.812 29.2109 206.977 28.9453 207.305C28.6953 207.617 28.5156 207.969 28.4062 208.359C28.3125 208.75 28.2656 209.07 28.2656 209.32C28.2656 209.477 28.3203 209.555 28.4297 209.555ZM35.5547 216.094C35.5391 216.031 35.5234 215.961 35.5078 215.883C35.5078 215.805 35.5078 215.727 35.5078 215.648C35.5078 215.367 35.5391 215.227 35.6016 215.227C35.9922 215.164 36.3828 215.055 36.7734 214.898C37.1797 214.727 37.4531 214.562 37.5938 214.406L40.125 211.617C40.2031 211.539 40.2422 211.453 40.2422 211.359C40.2422 211.281 40.2109 211.211 40.1484 211.148L37.1484 207.375C36.9453 207.109 36.6875 206.898 36.375 206.742C36.0781 206.586 35.8047 206.508 35.5547 206.508C35.4766 206.508 35.4375 206.352 35.4375 206.039C35.4375 205.852 35.4609 205.711 35.5078 205.617C36.4766 205.68 37.2266 205.727 37.7578 205.758C38.2891 205.773 38.6094 205.781 38.7188 205.781C38.7969 205.781 39.1016 205.773 39.6328 205.758C40.1641 205.727 40.9141 205.68 41.8828 205.617C41.9297 205.68 41.9531 205.82 41.9531 206.039C41.9531 206.336 41.9141 206.484 41.8359 206.484C41.6172 206.484 41.3828 206.539 41.1328 206.648C40.8984 206.758 40.7812 206.891 40.7812 207.047C40.7812 207.125 40.8203 207.219 40.8984 207.328L42.3516 209.133C42.8203 208.492 43.1875 208.016 43.4531 207.703C43.7188 207.375 43.8516 207.133 43.8516 206.977C43.8516 206.648 43.3672 206.484 42.3984 206.484C42.3359 206.484 42.3047 206.344 42.3047 206.062C42.3047 205.828 42.3359 205.68 42.3984 205.617C43.3203 205.68 44.0234 205.727 44.5078 205.758C45.0078 205.773 45.2969 205.781 45.375 205.781C45.4531 205.781 45.7266 205.773 46.1953 205.758C46.6641 205.727 47.3125 205.68 48.1406 205.617C48.1875 205.711 48.2109 205.852 48.2109 206.039C48.2109 206.336 48.1875 206.484 48.1406 206.484C47.0469 206.594 46.3516 206.812 46.0547 207.141L43.4531 210C43.3594 210.109 43.3125 210.195 43.3125 210.258C43.3125 210.352 43.3438 210.43 43.4062 210.492L46.2188 214.031C46.7656 214.719 47.3984 215.133 48.1172 215.273C48.1797 215.273 48.2109 215.438 48.2109 215.766C48.2109 215.922 48.1797 216.031 48.1172 216.094C47.5234 216.062 46.9766 216.023 46.4766 215.977C45.9922 215.93 45.5078 215.906 45.0234 215.906C44.3984 215.906 43.8359 215.93 43.3359 215.977C42.8516 216.023 42.3359 216.062 41.7891 216.094L41.7422 215.812C41.7422 215.422 41.7734 215.227 41.8359 215.227C42.0391 215.211 42.2656 215.133 42.5156 214.992C42.7812 214.836 42.9141 214.664 42.9141 214.477C42.9141 214.414 42.875 214.344 42.7969 214.266L41.2734 212.484L39.9375 214.172C39.8281 214.328 39.7734 214.477 39.7734 214.617C39.7734 214.773 39.9062 214.898 40.1719 214.992C40.3906 215.07 40.5859 215.125 40.7578 215.156C40.9453 215.172 41.1172 215.195 41.2734 215.227C41.3047 215.227 41.3203 215.367 41.3203 215.648C41.3203 215.883 41.2891 216.031 41.2266 216.094C41.1484 216.078 40.9375 216.055 40.5938 216.023C40.25 216.008 39.875 215.984 39.4688 215.953C39.0781 215.922 38.7422 215.906 38.4609 215.906C37.9141 215.906 37.4141 215.93 36.9609 215.977C36.5078 216.023 36.0391 216.062 35.5547 216.094ZM52.4531 216.164C51.5938 216.164 50.9062 215.93 50.3906 215.461C49.8906 214.977 49.6406 214.375 49.6406 213.656C49.6406 213.047 49.8281 212.516 50.2031 212.062C50.5938 211.609 51.0781 211.25 51.6562 210.984C51.875 210.891 52.0781 210.812 52.2656 210.75C52.4531 210.672 52.625 210.602 52.7812 210.539C53.375 210.352 53.8516 210.219 54.2109 210.141C54.5703 210.047 54.8359 209.969 55.0078 209.906C55.1484 209.859 55.2188 209.742 55.2188 209.555V208.711C55.2188 207.43 54.8281 206.789 54.0469 206.789C53.1406 206.789 52.6875 207.312 52.6875 208.359C52.6875 208.703 52.5469 208.961 52.2656 209.133C51.9844 209.289 51.6719 209.367 51.3281 209.367C50.6094 209.367 50.1172 209.133 49.8516 208.664C49.8516 208.258 49.9922 207.867 50.2734 207.492C50.5703 207.117 50.9531 206.781 51.4219 206.484C51.9062 206.172 52.4453 205.93 53.0391 205.758C53.6484 205.57 54.2578 205.477 54.8672 205.477C55.9609 205.477 56.7969 205.781 57.375 206.391C57.9688 206.984 58.2656 208.07 58.2656 209.648V213.445C58.2656 213.977 58.4531 214.242 58.8281 214.242C59.1094 214.242 59.375 214.141 59.625 213.938C59.7344 214 59.7891 214.117 59.7891 214.289C59.7891 214.695 59.7344 214.984 59.625 215.156C59.4062 215.359 59.0469 215.578 58.5469 215.812C58.0625 216.031 57.6016 216.141 57.1641 216.141C56.7891 216.141 56.4297 216.031 56.0859 215.812C55.7422 215.578 55.5156 215.312 55.4062 215.016C55.3906 215.016 55.3047 215.07 55.1484 215.18C54.9922 215.289 54.875 215.375 54.7969 215.438C54.4844 215.641 54.125 215.812 53.7188 215.953C53.3125 216.094 52.8906 216.164 52.4531 216.164ZM53.9297 214.477C54.3359 214.477 54.6484 214.383 54.8672 214.195C55.1016 213.992 55.2188 213.75 55.2188 213.469V211.102L54 211.523C53.6719 211.633 53.3672 211.797 53.0859 212.016C52.8203 212.234 52.6875 212.523 52.6875 212.883C52.6875 213.445 52.8047 213.852 53.0391 214.102C53.2891 214.352 53.5859 214.477 53.9297 214.477ZM60.9375 216.094C60.875 216.031 60.8438 215.867 60.8438 215.602C60.8438 215.352 60.875 215.227 60.9375 215.227C61.0625 215.227 61.2344 215.195 61.4531 215.133C61.6875 215.055 61.9062 214.969 62.1094 214.875C62.3281 214.781 62.4453 214.703 62.4609 214.641C62.5703 214.203 62.625 213.609 62.625 212.859V209.648C62.625 208.773 62.4844 208.188 62.2031 207.891C62.0781 207.734 61.9062 207.625 61.6875 207.562C61.4844 207.5 61.3047 207.461 61.1484 207.445C60.9922 207.414 60.9141 207.383 60.9141 207.352C60.9141 206.805 60.9531 206.531 61.0312 206.531C61.4375 206.531 62.0156 206.445 62.7656 206.273C63.5156 206.086 64.3672 205.891 65.3203 205.688L65.4375 205.664C65.4531 205.648 65.4844 205.641 65.5312 205.641L65.5781 205.617C65.6562 205.617 65.7344 205.672 65.8125 205.781C65.9062 205.875 65.9453 205.953 65.9297 206.016L65.8359 206.742C65.8359 206.82 65.8438 206.867 65.8594 206.883C65.8906 206.883 65.9453 206.844 66.0234 206.766C66.8828 205.953 67.9688 205.547 69.2812 205.547C70.1875 205.547 70.9219 205.93 71.4844 206.695C72.0625 207.461 72.3516 208.625 72.3516 210.188V212.508C72.3516 213.539 72.4062 214.25 72.5156 214.641C72.5469 214.703 72.6641 214.781 72.8672 214.875C73.0703 214.969 73.2812 215.055 73.5 215.133C73.7344 215.195 73.8984 215.227 73.9922 215.227C74.0234 215.227 74.0469 215.289 74.0625 215.414C74.0781 215.539 74.0859 215.672 74.0859 215.812C74.0859 215.953 74.0703 216.047 74.0391 216.094C73.9453 216.094 73.7656 216.078 73.5 216.047C73.2344 216.031 72.9219 216.016 72.5625 216C72.2188 215.969 71.8906 215.945 71.5781 215.93C71.2656 215.914 71.0156 215.906 70.8281 215.906C70.5781 215.906 70.2266 215.922 69.7734 215.953C69.3359 215.984 68.9141 216.008 68.5078 216.023C68.1016 216.055 67.8359 216.078 67.7109 216.094C67.6484 216.031 67.6172 215.867 67.6172 215.602C67.6172 215.352 67.6484 215.227 67.7109 215.227C67.8359 215.227 68 215.195 68.2031 215.133C68.4219 215.055 68.625 214.969 68.8125 214.875C69.0156 214.781 69.125 214.703 69.1406 214.641C69.25 214.203 69.3047 213.609 69.3047 212.859V210.75C69.3047 209.594 69.1406 208.773 68.8125 208.289C68.5 207.789 67.9922 207.539 67.2891 207.539C66.8047 207.539 66.4141 207.633 66.1172 207.82C65.8203 207.992 65.6719 208.242 65.6719 208.57V212.508C65.6719 213.539 65.7266 214.25 65.8359 214.641C65.8672 214.703 65.9766 214.781 66.1641 214.875C66.3516 214.969 66.5547 215.055 66.7734 215.133C66.9922 215.195 67.1406 215.227 67.2188 215.227C67.25 215.227 67.2734 215.289 67.2891 215.414C67.3047 215.539 67.3125 215.672 67.3125 215.812C67.3125 215.953 67.2969 216.047 67.2656 216.094C67.1406 216.078 66.875 216.055 66.4688 216.023C66.0625 216.008 65.6328 215.984 65.1797 215.953C64.7422 215.922 64.3984 215.906 64.1484 215.906C63.9609 215.906 63.7031 215.914 63.375 215.93C63.0625 215.945 62.7344 215.969 62.3906 216C62.0469 216.016 61.7422 216.031 61.4766 216.047C61.2109 216.078 61.0312 216.094 60.9375 216.094ZM79.8516 216.141C79.0078 216.141 78.2109 215.93 77.4609 215.508C76.7266 215.086 76.125 214.492 75.6562 213.727C75.2031 212.961 74.9766 212.062 74.9766 211.031C74.9766 209.984 75.2188 209.047 75.7031 208.219C76.2031 207.391 76.875 206.734 77.7188 206.25C78.5781 205.766 79.5391 205.523 80.6016 205.523C81.2578 205.523 81.8047 205.594 82.2422 205.734C82.2891 205.734 82.3125 205.625 82.3125 205.406V203.555C82.3125 202.898 82.2656 202.336 82.1719 201.867C82.1094 201.617 81.7031 201.492 80.9531 201.492H80.7422C80.6484 201.492 80.6016 201.336 80.6016 201.023C80.6016 200.758 80.6484 200.625 80.7422 200.625C81.6484 200.547 82.5 200.414 83.2969 200.227C84.1094 200.039 84.6875 199.891 85.0312 199.781L85.2656 199.711H85.3125C85.375 199.711 85.4375 199.758 85.5 199.852C85.5625 199.945 85.6016 200.031 85.6172 200.109C85.4453 200.844 85.3594 201.633 85.3594 202.477V212.555C85.3594 212.898 85.375 213.273 85.4062 213.68C85.4375 214.07 85.5078 214.32 85.6172 214.43C85.7422 214.523 85.8828 214.578 86.0391 214.594C86.1953 214.594 86.3984 214.609 86.6484 214.641L86.8828 214.664C86.9297 214.68 86.9531 214.773 86.9531 214.945C86.9531 215.336 86.9062 215.531 86.8125 215.531C86.4219 215.547 85.9688 215.594 85.4531 215.672C84.9531 215.75 84.4609 215.828 83.9766 215.906C83.4922 215.984 83.1016 216.047 82.8047 216.094L82.4531 216.141C82.3594 216.156 82.3125 216.023 82.3125 215.742V215.25C82.3125 215.125 82.2812 215.094 82.2188 215.156C81.5625 215.812 80.7734 216.141 79.8516 216.141ZM80.4609 214.711C80.9922 214.711 81.4297 214.562 81.7734 214.266C82.1328 213.953 82.3125 213.578 82.3125 213.141V208.875C82.3125 208.688 82.2969 208.508 82.2656 208.336C82.2344 208.164 82.1641 207.945 82.0547 207.68C81.9453 207.414 81.75 207.203 81.4688 207.047C81.2031 206.875 80.8672 206.789 80.4609 206.789C79.7266 206.789 79.1875 207.086 78.8438 207.68C78.5156 208.258 78.3516 209.188 78.3516 210.469C78.3516 213.297 79.0547 214.711 80.4609 214.711ZM88.2656 216.094C88.2031 216.031 88.1719 215.867 88.1719 215.602C88.1719 215.352 88.2031 215.227 88.2656 215.227C88.3906 215.227 88.5703 215.195 88.8047 215.133C89.0391 215.055 89.2578 214.969 89.4609 214.875C89.6641 214.781 89.7734 214.703 89.7891 214.641C89.8984 214.203 89.9531 213.609 89.9531 212.859V209.648C89.9531 208.773 89.8125 208.188 89.5312 207.891C89.4062 207.734 89.2344 207.625 89.0156 207.562C88.8125 207.5 88.6328 207.461 88.4766 207.445C88.3203 207.414 88.2422 207.383 88.2422 207.352C88.2422 206.805 88.2812 206.531 88.3594 206.531C88.7656 206.531 89.3281 206.445 90.0469 206.273C90.7812 206.086 91.5547 205.906 92.3672 205.734L92.9062 205.617C92.9844 205.617 93.0625 205.672 93.1406 205.781C93.2188 205.875 93.2578 205.953 93.2578 206.016C93.2422 206.109 93.2188 206.297 93.1875 206.578C93.1719 206.859 93.1562 207.016 93.1406 207.047C93.9219 206.031 94.8047 205.523 95.7891 205.523C96.4922 205.523 97.1641 205.812 97.8047 206.391C97.8047 207.203 97.7031 207.805 97.5 208.195C97.3125 208.586 96.9609 208.781 96.4453 208.781C96.1328 208.781 95.7734 208.602 95.3672 208.242C94.9609 207.883 94.6016 207.703 94.2891 207.703C93.9766 207.703 93.7266 207.828 93.5391 208.078C93.3516 208.312 93.2109 208.617 93.1172 208.992C93.0391 209.367 93 209.758 93 210.164V212.531C93 213.547 93.0547 214.25 93.1641 214.641C93.1953 214.703 93.3047 214.781 93.4922 214.875C93.6797 214.969 93.8828 215.055 94.1016 215.133C94.3203 215.195 94.4688 215.227 94.5469 215.227C94.5781 215.227 94.6016 215.289 94.6172 215.414C94.6328 215.539 94.6406 215.672 94.6406 215.812C94.6406 215.953 94.625 216.047 94.5938 216.094C94.4688 216.078 94.2031 216.055 93.7969 216.023C93.3906 216.008 92.9609 215.984 92.5078 215.953C92.0703 215.922 91.7266 215.906 91.4766 215.906C91.2891 215.906 91.0312 215.914 90.7031 215.93C90.3906 215.945 90.0625 215.969 89.7188 216C89.375 216.016 89.0703 216.031 88.8047 216.047C88.5391 216.078 88.3594 216.094 88.2656 216.094ZM101.906 216.164C101.047 216.164 100.359 215.93 99.8438 215.461C99.3438 214.977 99.0938 214.375 99.0938 213.656C99.0938 213.047 99.2812 212.516 99.6562 212.062C100.047 211.609 100.531 211.25 101.109 210.984C101.328 210.891 101.531 210.812 101.719 210.75C101.906 210.672 102.078 210.602 102.234 210.539C102.828 210.352 103.305 210.219 103.664 210.141C104.023 210.047 104.289 209.969 104.461 209.906C104.602 209.859 104.672 209.742 104.672 209.555V208.711C104.672 207.43 104.281 206.789 103.5 206.789C102.594 206.789 102.141 207.312 102.141 208.359C102.141 208.703 102 208.961 101.719 209.133C101.438 209.289 101.125 209.367 100.781 209.367C100.062 209.367 99.5703 209.133 99.3047 208.664C99.3047 208.258 99.4453 207.867 99.7266 207.492C100.023 207.117 100.406 206.781 100.875 206.484C101.359 206.172 101.898 205.93 102.492 205.758C103.102 205.57 103.711 205.477 104.32 205.477C105.414 205.477 106.25 205.781 106.828 206.391C107.422 206.984 107.719 208.07 107.719 209.648V213.445C107.719 213.977 107.906 214.242 108.281 214.242C108.562 214.242 108.828 214.141 109.078 213.938C109.188 214 109.242 214.117 109.242 214.289C109.242 214.695 109.188 214.984 109.078 215.156C108.859 215.359 108.5 215.578 108 215.812C107.516 216.031 107.055 216.141 106.617 216.141C106.242 216.141 105.883 216.031 105.539 215.812C105.195 215.578 104.969 215.312 104.859 215.016C104.844 215.016 104.758 215.07 104.602 215.18C104.445 215.289 104.328 215.375 104.25 215.438C103.938 215.641 103.578 215.812 103.172 215.953C102.766 216.094 102.344 216.164 101.906 216.164ZM103.383 214.477C103.789 214.477 104.102 214.383 104.32 214.195C104.555 213.992 104.672 213.75 104.672 213.469V211.102L103.453 211.523C103.125 211.633 102.82 211.797 102.539 212.016C102.273 212.234 102.141 212.523 102.141 212.883C102.141 213.445 102.258 213.852 102.492 214.102C102.742 214.352 103.039 214.477 103.383 214.477ZM120.305 216.234C119.68 216.234 119 216.18 118.266 216.07C117.531 215.977 116.727 215.828 115.852 215.625C115.773 215.281 115.688 214.852 115.594 214.336C115.516 213.82 115.445 213.32 115.383 212.836C115.336 212.336 115.312 211.969 115.312 211.734C115.359 211.578 115.5 211.5 115.734 211.5C116.219 211.5 116.469 211.547 116.484 211.641C116.578 212.109 116.789 212.602 117.117 213.117C117.445 213.617 117.844 214.039 118.312 214.383C118.797 214.727 119.305 214.898 119.836 214.898C121.383 214.898 122.156 214.047 122.156 212.344C122.156 211.891 121.977 211.477 121.617 211.102C121.273 210.727 120.867 210.391 120.398 210.094C119.945 209.797 119.555 209.539 119.227 209.32L118.523 208.852C117.992 208.492 117.492 208.125 117.023 207.75C116.555 207.359 116.172 206.914 115.875 206.414C115.594 205.898 115.453 205.273 115.453 204.539C115.453 203.742 115.695 203.023 116.18 202.383C116.664 201.742 117.289 201.234 118.055 200.859C118.82 200.484 119.617 200.297 120.445 200.297C120.773 200.297 121.109 200.32 121.453 200.367C121.812 200.414 122.117 200.461 122.367 200.508C122.836 200.602 123.234 200.695 123.562 200.789C123.906 200.867 124.18 200.922 124.383 200.953C124.461 201.719 124.523 202.422 124.57 203.062C124.617 203.703 124.641 204.297 124.641 204.844C124.578 205 124.461 205.078 124.289 205.078C123.82 205.078 123.578 205.023 123.562 204.914C123.5 204.383 123.328 203.867 123.047 203.367C122.766 202.867 122.406 202.453 121.969 202.125C121.531 201.781 121.031 201.609 120.469 201.609C119.938 201.609 119.484 201.773 119.109 202.102C118.75 202.43 118.57 202.953 118.57 203.672C118.57 204.312 118.852 204.875 119.414 205.359C119.992 205.844 120.734 206.375 121.641 206.953L122.836 207.703C123.273 207.969 123.688 208.266 124.078 208.594C124.469 208.906 124.789 209.32 125.039 209.836C125.289 210.336 125.414 211.023 125.414 211.898C125.414 212.727 125.172 213.469 124.688 214.125C124.219 214.781 123.594 215.297 122.812 215.672C122.047 216.047 121.211 216.234 120.305 216.234ZM131.25 216.164C130.391 216.164 129.648 215.898 129.023 215.367C128.414 214.82 128.109 213.945 128.109 212.742V207.328H126.586C126.461 207.328 126.398 207.086 126.398 206.602C126.398 206.492 126.414 206.406 126.445 206.344C126.883 206.125 127.273 205.914 127.617 205.711C127.977 205.492 128.289 205.281 128.555 205.078C129.242 204.531 129.742 204.117 130.055 203.836C130.367 203.555 130.531 203.406 130.547 203.391C130.672 203.391 130.805 203.422 130.945 203.484C131.086 203.531 131.156 203.586 131.156 203.648V205.945H133.688C133.812 205.945 133.875 206.023 133.875 206.18C133.875 206.648 133.797 207.031 133.641 207.328H131.156V212.883C131.156 214.07 131.578 214.664 132.422 214.664C132.859 214.664 133.164 214.609 133.336 214.5C133.523 214.375 133.648 214.312 133.711 214.312C133.773 214.312 133.836 214.391 133.898 214.547C133.977 214.703 134.016 214.82 134.016 214.898C134.016 215.023 133.859 215.188 133.547 215.391C133.25 215.594 132.883 215.773 132.445 215.93C132.023 216.086 131.625 216.164 131.25 216.164ZM140.719 216.164C139.703 216.164 138.773 215.93 137.93 215.461C137.102 214.977 136.438 214.336 135.938 213.539C135.453 212.727 135.211 211.828 135.211 210.844C135.211 209.844 135.453 208.945 135.938 208.148C136.438 207.352 137.102 206.719 137.93 206.25C138.773 205.766 139.703 205.523 140.719 205.523C141.75 205.523 142.68 205.766 143.508 206.25C144.336 206.719 144.992 207.352 145.477 208.148C145.977 208.945 146.227 209.844 146.227 210.844C146.227 211.828 145.984 212.727 145.5 213.539C145.016 214.336 144.352 214.977 143.508 215.461C142.68 215.93 141.75 216.164 140.719 216.164ZM140.953 214.875C141.391 214.875 141.75 214.727 142.031 214.43C142.312 214.133 142.516 213.742 142.641 213.258C142.781 212.758 142.852 212.227 142.852 211.664C142.852 208.43 142.031 206.812 140.391 206.812C139.953 206.812 139.594 206.969 139.312 207.281C139.047 207.594 138.852 208 138.727 208.5C138.602 209 138.539 209.539 138.539 210.117C138.539 213.289 139.344 214.875 140.953 214.875ZM147.562 216.094C147.5 216.031 147.469 215.867 147.469 215.602C147.469 215.352 147.5 215.227 147.562 215.227C147.688 215.227 147.867 215.195 148.102 215.133C148.336 215.055 148.555 214.969 148.758 214.875C148.961 214.781 149.07 214.703 149.086 214.641C149.195 214.203 149.25 213.609 149.25 212.859V203.555C149.25 203.195 149.234 202.875 149.203 202.594C149.188 202.312 149.164 202.07 149.133 201.867C149.07 201.617 148.664 201.492 147.914 201.492H147.703C147.609 201.492 147.562 201.336 147.562 201.023C147.562 200.758 147.609 200.625 147.703 200.625C148.609 200.547 149.461 200.414 150.258 200.227C151.07 200.039 151.648 199.891 151.992 199.781L152.227 199.711H152.273C152.336 199.711 152.398 199.758 152.461 199.852C152.523 199.945 152.562 200.031 152.578 200.109C152.406 200.844 152.32 201.633 152.32 202.477L152.297 212.508C152.297 213.539 152.352 214.25 152.461 214.641C152.492 214.703 152.609 214.781 152.812 214.875C153.016 214.969 153.227 215.055 153.445 215.133C153.68 215.195 153.844 215.227 153.938 215.227C153.969 215.227 153.992 215.289 154.008 215.414C154.023 215.539 154.031 215.672 154.031 215.812C154.031 215.953 154.016 216.047 153.984 216.094C153.891 216.094 153.711 216.078 153.445 216.047C153.18 216.031 152.867 216.016 152.508 216C152.164 215.969 151.836 215.945 151.523 215.93C151.211 215.914 150.961 215.906 150.773 215.906C150.586 215.906 150.328 215.914 150 215.93C149.688 215.945 149.359 215.969 149.016 216C148.672 216.016 148.367 216.031 148.102 216.047C147.836 216.078 147.656 216.094 147.562 216.094ZM155.742 216C155.43 215.812 155.273 215.633 155.273 215.461C155.273 215.43 155.305 215.359 155.367 215.25L160.078 207.352L158.648 207.328C158.242 207.312 157.883 207.398 157.57 207.586C157.258 207.773 157 208 156.797 208.266C156.594 208.516 156.445 208.75 156.352 208.969C156.305 209.062 156.109 209.109 155.766 209.109C155.578 209.109 155.484 209.094 155.484 209.062C155.484 209.031 155.492 208.906 155.508 208.688C155.539 208.469 155.586 208.164 155.648 207.773C155.773 206.992 155.844 206.375 155.859 205.922C156.781 206.016 157.523 206.062 158.086 206.062H160.945C161.445 206.062 161.945 206.047 162.445 206.016C162.945 205.984 163.453 205.938 163.969 205.875C164.016 205.938 164.039 206.125 164.039 206.438L159.164 214.242C159.055 214.398 159 214.508 159 214.57C159 214.68 159.094 214.734 159.281 214.734H160.734C161.984 214.734 162.828 214.141 163.266 212.953C163.312 212.812 163.523 212.742 163.898 212.742C164.008 212.742 164.094 212.773 164.156 212.836L163.758 216H155.742Z" fill="#212529"/>
<path d="M4.815 246.1C6.365 246.1 7.58 246.53 8.46 247.39C9.35 248.24 9.795 249.46 9.795 251.05C9.795 252.64 9.35 253.865 8.46 254.725C7.58 255.575 6.365 256 4.815 256H1.62V246.1H4.815ZM4.935 254.875C6.065 254.875 6.945 254.54 7.575 253.87C8.215 253.19 8.535 252.25 8.535 251.05C8.535 249.85 8.215 248.915 7.575 248.245C6.945 247.565 6.065 247.225 4.935 247.225H2.82V254.875H4.935ZM12.4305 256V246.1H19.3755V247.225H13.6305V250.42H18.1005V251.545H13.6305V254.875H19.6005V256H12.4305ZM25.176 245.95C26.046 245.95 26.796 246.13 27.426 246.49C28.056 246.84 28.581 247.36 29.001 248.05L27.996 248.83C27.626 248.19 27.206 247.74 26.736 247.48C26.276 247.21 25.716 247.075 25.056 247.075C24.526 247.075 24.086 247.15 23.736 247.3C23.396 247.45 23.146 247.65 22.986 247.9C22.826 248.14 22.746 248.415 22.746 248.725C22.746 249.075 22.856 249.385 23.076 249.655C23.296 249.915 23.736 250.12 24.396 250.27L26.541 250.75C27.491 250.96 28.151 251.28 28.521 251.71C28.901 252.13 29.091 252.655 29.091 253.285C29.091 253.845 28.931 254.345 28.611 254.785C28.301 255.215 27.861 255.55 27.291 255.79C26.721 256.03 26.051 256.15 25.281 256.15C24.561 256.15 23.926 256.055 23.376 255.865C22.836 255.665 22.371 255.4 21.981 255.07C21.591 254.74 21.271 254.37 21.021 253.96L22.071 253.105C22.261 253.485 22.506 253.82 22.806 254.11C23.106 254.4 23.466 254.625 23.886 254.785C24.316 254.945 24.806 255.025 25.356 255.025C25.866 255.025 26.306 254.965 26.676 254.845C27.056 254.715 27.346 254.53 27.546 254.29C27.746 254.04 27.846 253.74 27.846 253.39C27.846 253.07 27.741 252.785 27.531 252.535C27.321 252.275 26.926 252.08 26.346 251.95L24.021 251.425C23.411 251.285 22.916 251.095 22.536 250.855C22.166 250.605 21.896 250.315 21.726 249.985C21.566 249.645 21.486 249.28 21.486 248.89C21.486 248.36 21.631 247.875 21.921 247.435C22.221 246.985 22.646 246.625 23.196 246.355C23.756 246.085 24.416 245.95 25.176 245.95ZM32.8054 246.1V256H31.6054V246.1H32.8054ZM40.0338 256.15C39.0938 256.15 38.2788 255.945 37.5888 255.535C36.9088 255.115 36.3788 254.525 35.9988 253.765C35.6288 253.005 35.4438 252.1 35.4438 251.05C35.4438 250 35.6388 249.095 36.0288 248.335C36.4288 247.575 36.9838 246.99 37.6938 246.58C38.4038 246.16 39.2188 245.95 40.1388 245.95C41.1188 245.95 41.9138 246.135 42.5238 246.505C43.1438 246.875 43.6438 247.445 44.0238 248.215L42.9288 248.815C42.7088 248.245 42.3588 247.815 41.8788 247.525C41.4088 247.225 40.8288 247.075 40.1388 247.075C39.4688 247.075 38.8738 247.235 38.3538 247.555C37.8438 247.865 37.4388 248.32 37.1388 248.92C36.8488 249.51 36.7038 250.22 36.7038 251.05C36.7038 251.88 36.8288 252.595 37.0788 253.195C37.3388 253.785 37.7188 254.24 38.2188 254.56C38.7288 254.87 39.3488 255.025 40.0788 255.025C40.4888 255.025 40.8688 254.975 41.2188 254.875C41.5788 254.765 41.8888 254.605 42.1488 254.395C42.4188 254.185 42.6288 253.92 42.7788 253.6C42.9288 253.28 43.0038 252.905 43.0038 252.475V252.13H39.8538V251.005H44.0988V256H43.1538L43.0938 254.155L43.3488 254.2C43.0888 254.82 42.6788 255.3 42.1188 255.64C41.5588 255.98 40.8638 256.15 40.0338 256.15ZM54.6683 246.1V256H53.1833L49.0433 249.37L47.9933 247.51H47.9783L48.0383 249.01V256H46.8983V246.1H48.3833L52.5083 252.7L53.5733 254.605H53.5883L53.5283 253.09V246.1H54.6683ZM57.9139 256V246.1H64.8589V247.225H59.1139V250.42H63.5839V251.545H59.1139V254.875H65.0839V256H57.9139ZM71.2294 246.1C72.2394 246.1 73.0494 246.36 73.6594 246.88C74.2694 247.4 74.5744 248.105 74.5744 248.995C74.5744 249.885 74.2644 250.58 73.6444 251.08C73.0344 251.57 72.2244 251.815 71.2144 251.815L71.1094 251.89H68.6794V256H67.4794V246.1H71.2294ZM71.2144 250.765C71.9244 250.765 72.4494 250.62 72.7894 250.33C73.1394 250.03 73.3144 249.585 73.3144 248.995C73.3144 248.405 73.1394 247.965 72.7894 247.675C72.4494 247.375 71.9244 247.225 71.2144 247.225H68.6794V250.765H71.2144ZM71.9044 251.005L75.1744 256H73.7494L70.8994 251.665L71.9044 251.005Z" fill="#212529" fill-opacity="0.75"/>
</svg>
