<svg width="202" height="260" viewBox="0 0 202 260" fill="none" xmlns="http://www.w3.org/2000/svg">
<circle cx="101" cy="87.5" r="87" stroke="black"/>
<mask id="mask0_6_282" style="mask-type:alpha" maskUnits="userSpaceOnUse" x="13" y="0" width="176" height="175">
<circle cx="101" cy="87.5" r="87.5" fill="#D9D9D9"/>
</mask>
<g mask="url(#mask0_6_282)">
<path d="M85.8187 94.4561C94.6422 102.833 104.732 112.577 103.873 124.714C103.622 128.252 102.293 131.845 99.6075 134.163C95.812 137.439 89.8848 137.789 86.7406 141.692C83.904 145.213 84.4987 150.67 87.2416 154.264C89.9856 157.856 94.4015 159.82 98.8286 160.735C108.948 162.826 119.985 159.866 127.702 152.993C128.921 151.908 130.088 150.69 130.695 149.176C131.761 146.515 130.918 143.51 130.013 140.791C126.975 131.651 123.265 122.071 125.341 112.667C127.673 102.109 136.739 94.4037 141.075 84.4989C145.107 75.2855 144.679 64.2376 139.947 55.3637C138.17 52.0312 135.696 48.8994 132.277 47.2995C129.05 45.7891 125.345 45.7943 121.784 45.9034C108.179 46.3211 83.7713 44.8467 74.1669 56.7516C63.8948 69.4827 76.4726 85.5812 85.8187 94.4561Z" fill="#FFE7FB"/>
<path d="M72.5603 163.678C71.1991 161.672 69.6908 159.676 67.6136 158.424C62.9539 155.617 56.6264 157.442 52.6797 161.187C48.732 164.932 46.6125 170.158 44.6052 175.216C43.5414 177.893 42.4786 180.572 41.4158 183.25C40.0659 186.65 38.7027 190.107 38.3621 193.749C38.0226 197.391 38.8406 201.309 41.3643 203.957C43.527 206.228 46.6527 207.305 49.7176 207.971C56.8517 209.518 64.2389 209.257 71.5356 208.988C97.4988 208.03 81.3231 176.591 72.5603 163.678Z" fill="#6987FF"/>
<path d="M126.173 181.792C126.95 177.471 127.193 173.065 128.04 168.756C128.954 164.103 130.573 159.587 132.823 155.413C134.058 153.123 135.661 150.788 138.118 149.935C140.517 149.103 143.212 149.901 145.361 151.252C151.858 155.335 154.269 163.476 156.18 170.906C158.492 179.895 160.804 188.882 163.116 197.869C163.583 199.683 163.837 202.055 162.224 203.006C161.594 203.375 160.829 203.406 160.098 203.426C149.359 203.708 136.541 205.211 125.975 203.071C119.253 201.709 120.372 202.405 122.091 195.828C123.329 191.092 125.299 186.658 126.173 181.792Z" fill="#6987FF"/>
<path d="M93.578 191.098C94.7334 194.042 96.037 197.173 98.6832 198.903C102.343 201.298 107.529 200.057 110.696 197.041C113.863 194.023 115.371 189.665 116.253 185.381C117.135 181.097 117.506 176.686 118.923 172.548C120.318 168.468 122.723 164.657 123.113 160.362C123.219 159.205 122.988 157.76 121.892 157.373C121.412 157.205 120.883 157.296 120.385 157.403C116.253 158.297 112.347 160.211 108.141 160.643C100.874 161.389 89.013 152.687 85.3091 161.068C81.8881 168.808 90.8124 184.056 93.578 191.098Z" fill="#DAC8FF"/>
<path d="M89.0886 90.6711C86.5874 90.6948 84.0873 90.7195 81.5851 90.7442C80.867 90.7514 80.0511 90.8018 79.5912 91.3533C79.0233 92.0323 79.3597 93.1383 80.0532 93.6878C80.7476 94.2361 81.6695 94.376 82.5461 94.4964C83.6737 94.6518 84.8003 94.8061 85.9279 94.9625C87.5175 95.1806 89.3201 95.3421 90.5444 94.3071C91.7688 93.2711 91.3089 90.6485 89.71 90.7709" fill="#F03FA3"/>
<path d="M124.256 91.927C121.755 91.9507 119.254 91.9753 116.754 92C116.035 92.0072 115.219 92.0577 114.758 92.6102C114.191 93.2892 114.526 94.3942 115.221 94.9426C115.914 95.491 116.837 95.6309 117.714 95.7512C118.84 95.9076 119.968 96.062 121.095 96.2184C122.684 96.4365 124.487 96.598 125.712 95.563C126.936 94.5269 126.476 91.9043 124.878 92.0257" fill="#F03FA3"/>
<path d="M42.4129 200.588L47.5881 176.79C50.3146 164.248 57.9795 153.342 68.8546 146.52L88.9687 133.906L89.514 128.135L90.9338 113.227L90.975 112.805" stroke="black" stroke-miterlimit="10"/>
<path d="M155.618 97.9249C153.044 88.9142 144.158 43.4994 144.158 43.4994L124.602 42.486C133.291 50.1067 135.7 60.3232 135.7 60.3232C135.298 72.5656 133.405 82.2986 130.73 90.0459H130.72C127.633 99.0073 123.467 105.305 119.3 109.708C117.931 111.159 116.553 112.404 115.215 113.463C112.633 115.532 110.184 116.94 108.157 117.876C104.854 119.43 102.622 119.77 102.622 119.77C96.243 117.384 91.109 113.854 86.973 109.708C68.8342 91.476 69.8528 61.0949 69.4001 60.3232C69.4001 60.3232 68.9896 47.8432 80.0107 40.1741L62.1014 39.2461C62.1014 39.2461 57.238 66.91 54.1781 87.1692C51.1183 107.428 54.6545 120.772 68.1881 122.188C81.7217 123.604 133.052 122.188 133.052 122.188C133.052 122.188 162.55 122.188 155.618 97.9249Z" fill="black"/>
<path d="M115.194 113.288L115.215 113.463L115.781 119.452L117.149 133.907L123.898 138.146H123.919V138.156L137.263 146.52C148.138 153.343 155.803 164.249 158.53 176.79L161.75 191.615L163.705 200.588" stroke="black" stroke-miterlimit="10"/>
<path d="M82.1055 69.0235C82.1055 69.0235 88.0029 67.0142 93.9013 69.0235" stroke="black" stroke-width="2" stroke-miterlimit="10" stroke-linecap="round" stroke-linejoin="bevel"/>
<path d="M89.8911 77.8701C89.8911 79.5317 89.0454 80.8775 88.0032 80.8775C86.962 80.8775 86.1162 79.5317 86.1162 77.8701C86.1162 76.2085 86.962 74.8628 88.0032 74.8628C89.0454 74.8628 89.8911 76.2085 89.8911 77.8701Z" fill="black"/>
<path d="M123.74 69.0233C123.74 69.0233 117.842 67.0139 111.944 69.0233" stroke="black" stroke-width="2" stroke-miterlimit="10" stroke-linecap="round" stroke-linejoin="bevel"/>
<path d="M115.954 77.8704C115.954 79.532 116.799 80.8777 117.841 80.8777C118.883 80.8777 119.729 79.532 119.729 77.8704C119.729 76.2088 118.883 74.863 117.841 74.863C116.799 74.863 115.954 76.2088 115.954 77.8704Z" fill="black"/>
<path d="M101.611 77.9009C101.729 78.1591 102.246 82.5297 98.9431 85.3755C98.9431 85.3755 98.2599 88.2491 103.214 88.3149" stroke="black" stroke-miterlimit="10"/>
<path d="M95.8289 97.2898C95.8289 97.2898 104.149 100.048 110.598 97.4318" stroke="black" stroke-miterlimit="10"/>
<path d="M70.4299 71.8164C70.4299 71.8164 63.5243 63.1287 59.9675 67.1567C56.4118 71.1847 63.4029 90.6959 74.3766 88.4108" stroke="black" stroke-miterlimit="10"/>
<path d="M64.4873 74.9663C64.4873 74.9663 69.6779 74.9951 71.891 79.1126" stroke="black" stroke-miterlimit="10"/>
<path d="M67.2412 79.1048C67.2412 79.1048 67.4069 77.331 70.7311 77.543" stroke="black" stroke-miterlimit="10"/>
<path d="M134.937 71.8165C134.937 71.8165 141.843 63.1288 145.398 67.1568C148.955 71.1848 141.963 90.696 130.99 88.4109" fill="#F7F6F2"/>
<path d="M141.073 74.9666C141.073 74.9666 135.882 74.9954 133.669 79.1128" stroke="black" stroke-miterlimit="10"/>
<path d="M138.318 79.1048C138.318 79.1048 138.152 77.331 134.828 77.543" stroke="black" stroke-miterlimit="10"/>
<path d="M69.4004 60.3234C69.8531 61.095 68.8346 91.4761 86.9733 109.708C91.1093 113.854 96.2433 117.384 102.622 119.77C102.622 119.77 104.855 119.431 108.157 117.877C110.184 116.94 112.633 115.532 115.215 113.463C116.553 112.404 117.932 111.159 119.3 109.708C123.467 105.305 127.634 99.0074 130.72 90.046H130.731C133.406 82.2987 135.299 72.5657 135.7 60.3234" stroke="black" stroke-miterlimit="10"/>
<path d="M127.529 50.6227C127.529 50.6227 106.111 71.6721 70.4312 73.8749C70.4312 73.8749 59.4275 62.2231 62.1015 41.3043C64.7755 20.3856 109.92 -3.53429 135.707 29.3367C135.707 29.3367 156.547 45.0782 134.936 73.8749C134.936 73.8749 136.179 68.5526 127.529 50.6227Z" fill="black"/>
<path d="M78.1602 140.684C78.1602 140.684 90.9304 154.53 104.253 158.516C104.253 158.516 118.486 156.509 127.174 140.192" stroke="black" stroke-miterlimit="10"/>
<path d="M75.7874 142.173C75.7874 142.173 85.3784 157.047 103.938 161.765C103.938 161.765 124.4 156.928 129.503 141.653" stroke="black" stroke-miterlimit="10"/>
<path d="M74.3946 143.045C74.3946 143.045 84.75 175.239 89.3109 200.587" stroke="black" stroke-miterlimit="10"/>
<path d="M63.8284 150.154C63.8284 150.154 59.5854 164.754 68.236 174.033C76.8856 183.313 87.3604 190.841 87.3604 190.841" stroke="black" stroke-miterlimit="10"/>
<path d="M131.734 143.045C131.734 143.045 121.377 175.239 116.817 200.587" stroke="black" stroke-miterlimit="10"/>
<path d="M142.303 150.154C142.303 150.154 146.545 164.753 137.894 174.033C129.244 183.313 118.77 190.841 118.77 190.841" stroke="black" stroke-miterlimit="10"/>
<path d="M115.781 119.452C108.734 121.859 96.48 125.862 89.5147 128.136L90.9345 113.228C94.268 115.851 98.1365 118.093 102.622 119.77C102.622 119.77 104.855 119.432 108.158 117.877C110.184 116.941 112.633 115.532 115.216 113.463L115.781 119.452Z" fill="black"/>
</g>
<path d="M0.726562 216.094C0.664062 216.031 0.632812 215.898 0.632812 215.695C0.632812 215.383 0.664062 215.227 0.726562 215.227C0.851562 215.227 1.03125 215.203 1.26562 215.156C1.5 215.109 1.71875 215.047 1.92188 214.969C2.125 214.875 2.24219 214.789 2.27344 214.711C2.36719 214.352 2.41406 213.664 2.41406 212.648V203.789C2.41406 202.914 2.36719 202.305 2.27344 201.961C2.24219 201.867 2.11719 201.773 1.89844 201.68C1.69531 201.57 1.47656 201.484 1.24219 201.422C1.00781 201.344 0.828125 201.305 0.703125 201.305C0.640625 201.305 0.609375 201.164 0.609375 200.883C0.609375 200.633 0.632812 200.484 0.679688 200.438C1.38281 200.469 2.02344 200.5 2.60156 200.531C3.17969 200.547 3.6875 200.555 4.125 200.555C4.34375 200.555 4.57812 200.555 4.82812 200.555C5.09375 200.539 5.35938 200.523 5.625 200.508C5.89062 200.492 6.14844 200.484 6.39844 200.484C6.64844 200.484 6.89062 200.484 7.125 200.484C8.0625 200.484 8.92969 200.609 9.72656 200.859C10.2734 201.016 10.7734 201.281 11.2266 201.656C11.6953 202.016 12.0703 202.461 12.3516 202.992C12.6328 203.508 12.7734 204.102 12.7734 204.773C12.7734 205.617 12.5469 206.391 12.0938 207.094C11.6562 207.797 11.0547 208.367 10.2891 208.805C9.53906 209.227 8.69531 209.438 7.75781 209.438C7.44531 209.438 7.13281 209.391 6.82031 209.297C6.52344 209.203 6.32031 209.078 6.21094 208.922C6.14844 208.828 6.10938 208.656 6.09375 208.406C6.07812 208.156 6.10938 208.031 6.1875 208.031C6.40625 208.156 6.75781 208.219 7.24219 208.219C8.55469 208.219 9.21094 207.156 9.21094 205.031C9.21094 202.891 8.49219 201.82 7.05469 201.82C6.50781 201.82 6.14844 201.883 5.97656 202.008C5.78906 202.148 5.69531 202.914 5.69531 204.305V212.695C5.69531 213.523 5.75 214.164 5.85938 214.617C5.89062 214.742 6.02344 214.852 6.25781 214.945C6.49219 215.039 6.75 215.109 7.03125 215.156C7.3125 215.203 7.53125 215.227 7.6875 215.227C7.75 215.227 7.78125 215.375 7.78125 215.672C7.78125 215.828 7.76562 215.969 7.73438 216.094C5.85938 216 4.66406 215.953 4.14844 215.953L0.726562 216.094ZM19.0312 216.164C18.0781 216.164 17.1953 215.922 16.3828 215.438C15.5859 214.953 14.9453 214.305 14.4609 213.492C13.9922 212.68 13.7578 211.789 13.7578 210.82C13.7578 209.82 13.9688 208.922 14.3906 208.125C14.8281 207.328 15.4297 206.695 16.1953 206.227C16.9609 205.758 17.8438 205.523 18.8438 205.523C19.8281 205.523 20.6641 205.758 21.3516 206.227C22.0547 206.68 22.5859 207.25 22.9453 207.938C23.3203 208.609 23.5078 209.289 23.5078 209.977C23.5078 210.336 23.4297 210.57 23.2734 210.68C23.1328 210.789 22.8438 210.844 22.4062 210.844H17.1094C17.0156 210.844 16.9688 210.898 16.9688 211.008C16.9688 211.57 17.0703 212.102 17.2734 212.602C17.4922 213.102 17.8047 213.508 18.2109 213.82C18.6328 214.133 19.1406 214.289 19.7344 214.289C20.2656 214.289 20.7578 214.211 21.2109 214.055C21.5234 213.961 21.7656 213.875 21.9375 213.797C22.1094 213.719 22.2656 213.633 22.4062 213.539C22.5625 213.43 22.7422 213.297 22.9453 213.141C23.0859 213.203 23.1562 213.352 23.1562 213.586C23.1562 213.789 23.125 213.945 23.0625 214.055C22.9688 214.305 22.7188 214.594 22.3125 214.922C21.9219 215.25 21.4375 215.539 20.8594 215.789C20.2969 216.039 19.6875 216.164 19.0312 216.164ZM17.1328 209.555H20.1094C20.3281 209.555 20.4375 209.406 20.4375 209.109C20.4375 208.516 20.2734 207.984 19.9453 207.516C19.6328 207.047 19.2266 206.812 18.7266 206.812C18.2734 206.812 17.9141 206.977 17.6484 207.305C17.3984 207.617 17.2188 207.969 17.1094 208.359C17.0156 208.75 16.9688 209.07 16.9688 209.32C16.9688 209.477 17.0234 209.555 17.1328 209.555ZM28.9688 221.109C28.1875 221.109 27.4766 221 26.8359 220.781C26.1953 220.578 25.6875 220.281 25.3125 219.891C24.9375 219.5 24.75 219.047 24.75 218.531C24.75 218.188 24.9297 217.82 25.2891 217.43C25.6641 217.039 26.125 216.758 26.6719 216.586C26.2656 216.414 25.8984 216.141 25.5703 215.766C25.2422 215.375 25.0781 214.953 25.0781 214.5C25.0781 214.109 25.25 213.773 25.5938 213.492C25.9531 213.211 26.375 212.938 26.8594 212.672C26.5625 212.5 26.2734 212.242 25.9922 211.898C25.7109 211.555 25.4844 211.164 25.3125 210.727C25.1406 210.273 25.0547 209.828 25.0547 209.391C25.0547 208.531 25.25 207.812 25.6406 207.234C26.0312 206.656 26.5547 206.219 27.2109 205.922C27.8828 205.625 28.625 205.477 29.4375 205.477C30.0156 205.477 30.6797 205.578 31.4297 205.781C31.8047 205.891 32.1406 205.969 32.4375 206.016C32.75 206.062 33.0156 206.086 33.2344 206.086H34.5234C34.5547 206.086 34.6016 206.156 34.6641 206.297C34.7422 206.438 34.8125 206.586 34.875 206.742C34.9375 206.883 34.9688 206.992 34.9688 207.07C34.9688 207.289 34.9219 207.398 34.8281 207.398H33.4453C33.3828 207.414 33.3516 207.438 33.3516 207.469L33.5391 208.102C33.5859 208.305 33.625 208.508 33.6562 208.711C33.6875 208.914 33.7031 209.102 33.7031 209.273C33.7031 209.93 33.5156 210.555 33.1406 211.148C32.7812 211.742 32.2891 212.234 31.6641 212.625C31.0391 213 30.3203 213.188 29.5078 213.188C29.1953 213.188 28.9062 213.18 28.6406 213.164C28.375 213.133 28.1328 213.102 27.9141 213.07C27.7109 213.133 27.5625 213.242 27.4688 213.398C27.3906 213.555 27.3516 213.68 27.3516 213.773C27.3516 213.914 27.4844 214.023 27.75 214.102C27.9688 214.164 28.2969 214.219 28.7344 214.266C29.1719 214.312 29.6094 214.344 30.0469 214.359C30.4844 214.375 30.8203 214.383 31.0547 214.383C33.5391 214.492 34.7969 215.312 34.8281 216.844C34.8281 217.422 34.6562 217.969 34.3125 218.484C33.9844 219 33.5312 219.453 32.9531 219.844C32.3906 220.234 31.7578 220.539 31.0547 220.758C30.3672 220.992 29.6719 221.109 28.9688 221.109ZM29.4141 211.969C30.0078 211.969 30.3672 211.75 30.4922 211.312C30.6172 210.875 30.6797 210.344 30.6797 209.719C30.6797 208.719 30.5859 207.969 30.3984 207.469C30.2109 206.969 29.8359 206.719 29.2734 206.719C28.8984 206.719 28.625 206.828 28.4531 207.047C28.2812 207.266 28.1719 207.547 28.125 207.891C28.0938 208.234 28.0781 208.602 28.0781 208.992V209.109C28.0781 209.609 28.1094 210.078 28.1719 210.516C28.2344 210.953 28.3594 211.305 28.5469 211.57C28.7344 211.836 29.0234 211.969 29.4141 211.969ZM29.3672 219.68C30.1797 219.68 30.8359 219.531 31.3359 219.234C31.8516 218.938 32.1094 218.492 32.1094 217.898C32.1094 217.195 30.7969 216.844 28.1719 216.844C27.7812 216.953 27.4844 217.086 27.2812 217.242C27.0781 217.398 26.9766 217.656 26.9766 218.016C26.9766 218.484 27.2188 218.875 27.7031 219.188C28.2031 219.516 28.7578 219.68 29.3672 219.68ZM41.1797 216.094C41.1172 216.031 41.0859 215.898 41.0859 215.695C41.0859 215.383 41.1172 215.227 41.1797 215.227C41.3047 215.227 41.4844 215.203 41.7188 215.156C41.9531 215.109 42.1719 215.047 42.375 214.969C42.5781 214.875 42.6953 214.789 42.7266 214.711C42.8203 214.352 42.8672 213.664 42.8672 212.648V203.695C42.8672 202.742 42.8047 202.156 42.6797 201.938C42.6328 201.844 42.5078 201.758 42.3047 201.68C42.1172 201.586 41.9219 201.508 41.7188 201.445C41.5156 201.383 41.3516 201.352 41.2266 201.352C41.1641 201.352 41.1328 201.219 41.1328 200.953C41.1328 200.672 41.1484 200.516 41.1797 200.484L44.5781 200.625C44.7344 200.641 45.0859 200.633 45.6328 200.602C46.1797 200.57 46.9219 200.531 47.8594 200.484C47.9062 200.625 47.9297 200.766 47.9297 200.906C47.9297 201.203 47.8984 201.352 47.8359 201.352C47.7422 201.352 47.5781 201.383 47.3438 201.445C47.1094 201.508 46.8828 201.586 46.6641 201.68C46.4609 201.758 46.3438 201.836 46.3125 201.914C46.25 202.117 46.2031 202.383 46.1719 202.711C46.1562 203.023 46.1484 203.383 46.1484 203.789V212.672C46.1484 213.422 46.2109 213.984 46.3359 214.359C46.3984 214.609 46.9297 214.734 47.9297 214.734H48.5391C49.5078 214.734 50.3828 214.531 51.1641 214.125C51.4297 213.984 51.7266 213.719 52.0547 213.328C52.3984 212.938 52.6641 212.5 52.8516 212.016C52.8828 211.922 52.9922 211.875 53.1797 211.875C53.5547 211.875 53.7891 211.922 53.8828 212.016C53.1016 214.172 52.6797 215.516 52.6172 216.047C52.1797 216.047 51.6094 216.039 50.9062 216.023C50.2188 216.023 49.3984 216.016 48.4453 216C47.4922 215.984 46.6953 215.969 46.0547 215.953C45.4297 215.938 44.9453 215.938 44.6016 215.953L41.1797 216.094ZM60.1172 216.164C59.1641 216.164 58.2812 215.922 57.4688 215.438C56.6719 214.953 56.0312 214.305 55.5469 213.492C55.0781 212.68 54.8438 211.789 54.8438 210.82C54.8438 209.82 55.0547 208.922 55.4766 208.125C55.9141 207.328 56.5156 206.695 57.2812 206.227C58.0469 205.758 58.9297 205.523 59.9297 205.523C60.9141 205.523 61.75 205.758 62.4375 206.227C63.1406 206.68 63.6719 207.25 64.0312 207.938C64.4062 208.609 64.5938 209.289 64.5938 209.977C64.5938 210.336 64.5156 210.57 64.3594 210.68C64.2188 210.789 63.9297 210.844 63.4922 210.844H58.1953C58.1016 210.844 58.0547 210.898 58.0547 211.008C58.0547 211.57 58.1562 212.102 58.3594 212.602C58.5781 213.102 58.8906 213.508 59.2969 213.82C59.7188 214.133 60.2266 214.289 60.8203 214.289C61.3516 214.289 61.8438 214.211 62.2969 214.055C62.6094 213.961 62.8516 213.875 63.0234 213.797C63.1953 213.719 63.3516 213.633 63.4922 213.539C63.6484 213.43 63.8281 213.297 64.0312 213.141C64.1719 213.203 64.2422 213.352 64.2422 213.586C64.2422 213.789 64.2109 213.945 64.1484 214.055C64.0547 214.305 63.8047 214.594 63.3984 214.922C63.0078 215.25 62.5234 215.539 61.9453 215.789C61.3828 216.039 60.7734 216.164 60.1172 216.164ZM58.2188 209.555H61.1953C61.4141 209.555 61.5234 209.406 61.5234 209.109C61.5234 208.516 61.3594 207.984 61.0312 207.516C60.7188 207.047 60.3125 206.812 59.8125 206.812C59.3594 206.812 59 206.977 58.7344 207.305C58.4844 207.617 58.3047 207.969 58.1953 208.359C58.1016 208.75 58.0547 209.07 58.0547 209.32C58.0547 209.477 58.1094 209.555 58.2188 209.555ZM70.0547 221.109C69.2734 221.109 68.5625 221 67.9219 220.781C67.2812 220.578 66.7734 220.281 66.3984 219.891C66.0234 219.5 65.8359 219.047 65.8359 218.531C65.8359 218.188 66.0156 217.82 66.375 217.43C66.75 217.039 67.2109 216.758 67.7578 216.586C67.3516 216.414 66.9844 216.141 66.6562 215.766C66.3281 215.375 66.1641 214.953 66.1641 214.5C66.1641 214.109 66.3359 213.773 66.6797 213.492C67.0391 213.211 67.4609 212.938 67.9453 212.672C67.6484 212.5 67.3594 212.242 67.0781 211.898C66.7969 211.555 66.5703 211.164 66.3984 210.727C66.2266 210.273 66.1406 209.828 66.1406 209.391C66.1406 208.531 66.3359 207.812 66.7266 207.234C67.1172 206.656 67.6406 206.219 68.2969 205.922C68.9688 205.625 69.7109 205.477 70.5234 205.477C71.1016 205.477 71.7656 205.578 72.5156 205.781C72.8906 205.891 73.2266 205.969 73.5234 206.016C73.8359 206.062 74.1016 206.086 74.3203 206.086H75.6094C75.6406 206.086 75.6875 206.156 75.75 206.297C75.8281 206.438 75.8984 206.586 75.9609 206.742C76.0234 206.883 76.0547 206.992 76.0547 207.07C76.0547 207.289 76.0078 207.398 75.9141 207.398H74.5312C74.4688 207.414 74.4375 207.438 74.4375 207.469L74.625 208.102C74.6719 208.305 74.7109 208.508 74.7422 208.711C74.7734 208.914 74.7891 209.102 74.7891 209.273C74.7891 209.93 74.6016 210.555 74.2266 211.148C73.8672 211.742 73.375 212.234 72.75 212.625C72.125 213 71.4062 213.188 70.5938 213.188C70.2812 213.188 69.9922 213.18 69.7266 213.164C69.4609 213.133 69.2188 213.102 69 213.07C68.7969 213.133 68.6484 213.242 68.5547 213.398C68.4766 213.555 68.4375 213.68 68.4375 213.773C68.4375 213.914 68.5703 214.023 68.8359 214.102C69.0547 214.164 69.3828 214.219 69.8203 214.266C70.2578 214.312 70.6953 214.344 71.1328 214.359C71.5703 214.375 71.9062 214.383 72.1406 214.383C74.625 214.492 75.8828 215.312 75.9141 216.844C75.9141 217.422 75.7422 217.969 75.3984 218.484C75.0703 219 74.6172 219.453 74.0391 219.844C73.4766 220.234 72.8438 220.539 72.1406 220.758C71.4531 220.992 70.7578 221.109 70.0547 221.109ZM70.5 211.969C71.0938 211.969 71.4531 211.75 71.5781 211.312C71.7031 210.875 71.7656 210.344 71.7656 209.719C71.7656 208.719 71.6719 207.969 71.4844 207.469C71.2969 206.969 70.9219 206.719 70.3594 206.719C69.9844 206.719 69.7109 206.828 69.5391 207.047C69.3672 207.266 69.2578 207.547 69.2109 207.891C69.1797 208.234 69.1641 208.602 69.1641 208.992V209.109C69.1641 209.609 69.1953 210.078 69.2578 210.516C69.3203 210.953 69.4453 211.305 69.6328 211.57C69.8203 211.836 70.1094 211.969 70.5 211.969ZM70.4531 219.68C71.2656 219.68 71.9219 219.531 72.4219 219.234C72.9375 218.938 73.1953 218.492 73.1953 217.898C73.1953 217.195 71.8828 216.844 69.2578 216.844C68.8672 216.953 68.5703 217.086 68.3672 217.242C68.1641 217.398 68.0625 217.656 68.0625 218.016C68.0625 218.484 68.3047 218.875 68.7891 219.188C69.2891 219.516 69.8438 219.68 70.4531 219.68ZM81.4219 221.109C80.6406 221.109 79.9297 221 79.2891 220.781C78.6484 220.578 78.1406 220.281 77.7656 219.891C77.3906 219.5 77.2031 219.047 77.2031 218.531C77.2031 218.188 77.3828 217.82 77.7422 217.43C78.1172 217.039 78.5781 216.758 79.125 216.586C78.7188 216.414 78.3516 216.141 78.0234 215.766C77.6953 215.375 77.5312 214.953 77.5312 214.5C77.5312 214.109 77.7031 213.773 78.0469 213.492C78.4062 213.211 78.8281 212.938 79.3125 212.672C79.0156 212.5 78.7266 212.242 78.4453 211.898C78.1641 211.555 77.9375 211.164 77.7656 210.727C77.5938 210.273 77.5078 209.828 77.5078 209.391C77.5078 208.531 77.7031 207.812 78.0938 207.234C78.4844 206.656 79.0078 206.219 79.6641 205.922C80.3359 205.625 81.0781 205.477 81.8906 205.477C82.4688 205.477 83.1328 205.578 83.8828 205.781C84.2578 205.891 84.5938 205.969 84.8906 206.016C85.2031 206.062 85.4688 206.086 85.6875 206.086H86.9766C87.0078 206.086 87.0547 206.156 87.1172 206.297C87.1953 206.438 87.2656 206.586 87.3281 206.742C87.3906 206.883 87.4219 206.992 87.4219 207.07C87.4219 207.289 87.375 207.398 87.2812 207.398H85.8984C85.8359 207.414 85.8047 207.438 85.8047 207.469L85.9922 208.102C86.0391 208.305 86.0781 208.508 86.1094 208.711C86.1406 208.914 86.1562 209.102 86.1562 209.273C86.1562 209.93 85.9688 210.555 85.5938 211.148C85.2344 211.742 84.7422 212.234 84.1172 212.625C83.4922 213 82.7734 213.188 81.9609 213.188C81.6484 213.188 81.3594 213.18 81.0938 213.164C80.8281 213.133 80.5859 213.102 80.3672 213.07C80.1641 213.133 80.0156 213.242 79.9219 213.398C79.8438 213.555 79.8047 213.68 79.8047 213.773C79.8047 213.914 79.9375 214.023 80.2031 214.102C80.4219 214.164 80.75 214.219 81.1875 214.266C81.625 214.312 82.0625 214.344 82.5 214.359C82.9375 214.375 83.2734 214.383 83.5078 214.383C85.9922 214.492 87.25 215.312 87.2812 216.844C87.2812 217.422 87.1094 217.969 86.7656 218.484C86.4375 219 85.9844 219.453 85.4062 219.844C84.8438 220.234 84.2109 220.539 83.5078 220.758C82.8203 220.992 82.125 221.109 81.4219 221.109ZM81.8672 211.969C82.4609 211.969 82.8203 211.75 82.9453 211.312C83.0703 210.875 83.1328 210.344 83.1328 209.719C83.1328 208.719 83.0391 207.969 82.8516 207.469C82.6641 206.969 82.2891 206.719 81.7266 206.719C81.3516 206.719 81.0781 206.828 80.9062 207.047C80.7344 207.266 80.625 207.547 80.5781 207.891C80.5469 208.234 80.5312 208.602 80.5312 208.992V209.109C80.5312 209.609 80.5625 210.078 80.625 210.516C80.6875 210.953 80.8125 211.305 81 211.57C81.1875 211.836 81.4766 211.969 81.8672 211.969ZM81.8203 219.68C82.6328 219.68 83.2891 219.531 83.7891 219.234C84.3047 218.938 84.5625 218.492 84.5625 217.898C84.5625 217.195 83.25 216.844 80.625 216.844C80.2344 216.953 79.9375 217.086 79.7344 217.242C79.5312 217.398 79.4297 217.656 79.4297 218.016C79.4297 218.484 79.6719 218.875 80.1562 219.188C80.6562 219.516 81.2109 219.68 81.8203 219.68ZM93.6562 216.164C92.7031 216.164 91.8203 215.922 91.0078 215.438C90.2109 214.953 89.5703 214.305 89.0859 213.492C88.6172 212.68 88.3828 211.789 88.3828 210.82C88.3828 209.82 88.5938 208.922 89.0156 208.125C89.4531 207.328 90.0547 206.695 90.8203 206.227C91.5859 205.758 92.4688 205.523 93.4688 205.523C94.4531 205.523 95.2891 205.758 95.9766 206.227C96.6797 206.68 97.2109 207.25 97.5703 207.938C97.9453 208.609 98.1328 209.289 98.1328 209.977C98.1328 210.336 98.0547 210.57 97.8984 210.68C97.7578 210.789 97.4688 210.844 97.0312 210.844H91.7344C91.6406 210.844 91.5938 210.898 91.5938 211.008C91.5938 211.57 91.6953 212.102 91.8984 212.602C92.1172 213.102 92.4297 213.508 92.8359 213.82C93.2578 214.133 93.7656 214.289 94.3594 214.289C94.8906 214.289 95.3828 214.211 95.8359 214.055C96.1484 213.961 96.3906 213.875 96.5625 213.797C96.7344 213.719 96.8906 213.633 97.0312 213.539C97.1875 213.43 97.3672 213.297 97.5703 213.141C97.7109 213.203 97.7812 213.352 97.7812 213.586C97.7812 213.789 97.75 213.945 97.6875 214.055C97.5938 214.305 97.3438 214.594 96.9375 214.922C96.5469 215.25 96.0625 215.539 95.4844 215.789C94.9219 216.039 94.3125 216.164 93.6562 216.164ZM91.7578 209.555H94.7344C94.9531 209.555 95.0625 209.406 95.0625 209.109C95.0625 208.516 94.8984 207.984 94.5703 207.516C94.2578 207.047 93.8516 206.812 93.3516 206.812C92.8984 206.812 92.5391 206.977 92.2734 207.305C92.0234 207.617 91.8438 207.969 91.7344 208.359C91.6406 208.75 91.5938 209.07 91.5938 209.32C91.5938 209.477 91.6484 209.555 91.7578 209.555Z" fill="#212529"/>
<path d="M9.6 253.465C9.39 254.025 9.09 254.51 8.7 254.92C8.31 255.32 7.85 255.625 7.32 255.835C6.8 256.045 6.23 256.15 5.61 256.15C4.67 256.15 3.855 255.945 3.165 255.535C2.485 255.115 1.955 254.525 1.575 253.765C1.205 253.005 1.02 252.1 1.02 251.05C1.02 250 1.205 249.095 1.575 248.335C1.955 247.575 2.485 246.99 3.165 246.58C3.855 246.16 4.66 245.95 5.58 245.95C6.22 245.95 6.79 246.04 7.29 246.22C7.79 246.39 8.215 246.65 8.565 247C8.925 247.34 9.21 247.76 9.42 248.26L8.235 248.815C8.015 248.245 7.695 247.815 7.275 247.525C6.865 247.225 6.33 247.075 5.67 247.075C5 247.075 4.41 247.235 3.9 247.555C3.39 247.865 2.99 248.315 2.7 248.905C2.42 249.495 2.28 250.21 2.28 251.05C2.28 251.88 2.415 252.595 2.685 253.195C2.955 253.785 3.34 254.24 3.84 254.56C4.34 254.87 4.93 255.025 5.61 255.025C6.27 255.025 6.845 254.86 7.335 254.53C7.825 254.19 8.18 253.685 8.4 253.015L9.6 253.465ZM11.9032 256V246.1H18.8482V247.225H13.1032V250.42H17.5732V251.545H13.1032V254.875H19.0732V256H11.9032ZM25.2389 245.95C26.1789 245.95 26.9889 246.16 27.6689 246.58C28.3589 246.99 28.8889 247.575 29.2589 248.335C29.6389 249.095 29.8289 250 29.8289 251.05C29.8289 252.1 29.6389 253.005 29.2589 253.765C28.8889 254.525 28.3589 255.115 27.6689 255.535C26.9889 255.945 26.1789 256.15 25.2389 256.15C24.2989 256.15 23.4839 255.945 22.7939 255.535C22.1139 255.115 21.5839 254.525 21.2039 253.765C20.8339 253.005 20.6489 252.1 20.6489 251.05C20.6489 250 20.8339 249.095 21.2039 248.335C21.5839 247.575 22.1139 246.99 22.7939 246.58C23.4839 246.16 24.2989 245.95 25.2389 245.95ZM25.2389 247.075C24.5589 247.075 23.9689 247.235 23.4689 247.555C22.9689 247.865 22.5839 248.32 22.3139 248.92C22.0439 249.51 21.9089 250.22 21.9089 251.05C21.9089 251.88 22.0439 252.595 22.3139 253.195C22.5839 253.785 22.9689 254.24 23.4689 254.56C23.9689 254.87 24.5589 255.025 25.2389 255.025C25.9289 255.025 26.5189 254.87 27.0089 254.56C27.5089 254.24 27.8939 253.785 28.1639 253.195C28.4339 252.595 28.5689 251.88 28.5689 251.05C28.5689 250.22 28.4339 249.51 28.1639 248.92C27.8939 248.32 27.5089 247.865 27.0089 247.555C26.5189 247.235 25.9289 247.075 25.2389 247.075Z" fill="#212529" fill-opacity="0.75"/>
</svg>
