<svg width="202" height="260" viewBox="0 0 202 260" fill="none" xmlns="http://www.w3.org/2000/svg">
<circle cx="101" cy="87.5" r="87" stroke="black"/>
<mask id="mask0_6_323" style="mask-type:alpha" maskUnits="userSpaceOnUse" x="13" y="0" width="176" height="175">
<circle cx="101" cy="87.5" r="87.5" fill="#D9D9D9"/>
</mask>
<g mask="url(#mask0_6_323)">
<path d="M61.8501 97.6966C64.6687 102.47 68.6015 106.475 71.8861 110.941C77.4269 118.475 81.1015 127.369 82.4963 136.616C83.4466 142.912 83.844 150.272 89.0463 153.943C91.671 155.796 95.0167 156.251 98.2263 156.435C101.762 156.639 105.672 156.449 108.282 154.054C111.639 150.973 111.413 145.753 111.693 141.205C112.399 129.732 117.845 119.185 121.797 108.389C127.004 94.1667 129.702 79.0292 129.732 63.8831C129.744 57.7606 129.109 51.1056 124.955 46.6072C121.486 42.8502 116.231 41.361 111.186 40.5244C97.0339 38.1771 77.2962 40.3337 70.2213 54.6774C64.4255 66.4296 54.8267 85.7998 61.8501 97.6966Z" fill="#FFE7FB"/>
<path d="M54.0847 185.001C57.5783 172.864 66.8547 161.526 79.3118 159.447C82.1133 158.98 85.084 159.009 87.6765 160.168C89.4238 160.949 90.9097 162.2 92.5135 163.245C96.4205 165.79 101.112 167.112 105.774 166.981C112.152 166.804 118.423 163.996 124.729 164.974C132.873 166.238 138.757 173.448 142.505 180.788C149.197 193.901 151.647 209.137 149.403 223.687C149.142 225.358 78.925 223.351 72.3408 223.312C63.8197 223.262 56.2627 224.003 52.8645 215.012C49.6195 206.427 51.6572 193.438 54.0847 185.001Z" fill="#C3C62B"/>
<path d="M135.859 83.9242C133.006 89.7746 131.941 96.4831 132.839 102.931C137.123 104.243 141.577 101.657 145.084 98.8678C147.383 97.038 149.628 94.9961 150.91 92.3521C152.195 89.7082 152.33 86.3271 150.559 83.982C148.931 81.8266 146.025 80.9567 143.327 81.112C140.631 81.2674 138.072 82.2947 135.568 83.3082" fill="#FFE7FB"/>
<path d="M101.991 102.752C102.33 102.832 101.161 107.182 96.2476 107.1C91.3346 107.019 87.7318 108.983 87.8143 117.582L85.6599 116.27C85.6599 116.27 81.1219 97.831 101.991 102.752Z" fill="black"/>
<path d="M102.101 102.752C101.76 102.832 102.93 107.182 107.843 107.1C112.756 107.019 116.359 108.983 116.277 117.582L118.432 116.27C118.432 116.27 122.969 97.831 102.101 102.752Z" fill="black"/>
<path d="M68.0682 66.7738C68.0682 66.7738 67.8753 78.9749 70.35 92.8493C72.5783 105.341 76.96 119.182 85.584 126.681C89.5799 130.151 94.4758 132.263 100.486 132.272C105.264 132.272 109.388 131.352 112.945 129.713C113.749 129.348 114.52 128.942 115.259 128.501C115.505 128.363 115.752 128.212 115.988 128.051C116.48 127.752 116.952 127.43 117.412 127.088C117.605 126.949 117.787 126.81 117.98 126.669C118.248 126.456 118.516 126.253 118.773 126.028C119.201 125.674 119.619 125.309 120.026 124.924C120.476 124.505 120.926 124.067 121.355 123.606C121.698 123.242 122.04 122.856 122.373 122.471C122.405 122.439 122.437 122.396 122.469 122.363C122.769 122.01 123.058 121.645 123.337 121.282C123.38 121.239 123.422 121.185 123.455 121.142C129.282 113.558 132.218 103.187 133.632 93.5232C133.643 93.4921 133.643 93.4803 133.643 93.4803C135.71 79.3498 134.553 66.7738 134.553 66.7738" stroke="black" stroke-miterlimit="10"/>
<path d="M89.1084 129.08L89.0977 129.22L87.9407 141.411L86.9765 151.598L71.8497 161.081L66.0325 164.734C65.4004 165.13 64.7791 165.537 64.1684 165.966C53.8304 173.111 46.5669 183.931 43.8887 196.261L38.5 221.041" stroke="black" stroke-miterlimit="10"/>
<path d="M112.945 129.713L113.267 133.109L115.024 151.598L131.961 162.226L135.968 164.734C137.232 165.525 138.464 166.372 139.642 167.283C149.016 174.397 155.594 184.66 158.111 196.261L163.5 221.041" stroke="black" stroke-miterlimit="10"/>
<path d="M69.0963 85.7811C69.0963 85.7811 61.5619 75.1817 57.147 79.6715C52.7332 84.1613 59.6871 107.432 72.6702 105.448" stroke="black" stroke-miterlimit="10"/>
<path d="M134.571 85.4786C134.571 85.4786 141.746 74.6328 146.308 78.9715C150.871 83.3103 144.702 106.802 131.659 105.255" stroke="black" stroke-miterlimit="10"/>
<path d="M61.943 89.0945C61.943 89.0945 68.0141 89.4544 70.3463 94.4114" stroke="black" stroke-miterlimit="10"/>
<path d="M64.9062 94.1082C64.9062 94.1082 65.2116 92.0438 69.0875 92.5002" stroke="black" stroke-miterlimit="10"/>
<path d="M141.971 88.5535C141.971 88.5535 135.915 89.1159 133.751 94.1478" stroke="black" stroke-miterlimit="10"/>
<path d="M139.178 93.6635C139.178 93.6635 138.804 91.6098 134.944 92.1968" stroke="black" stroke-miterlimit="10"/>
<path d="M133.751 87.4038C133.751 87.4038 129.984 85.7658 129.984 81.8352C129.984 77.9046 131.949 70.8629 129.329 66.7684C126.71 62.6749 122.942 58.9082 122.942 58.9082C122.942 58.9082 100.179 53.3407 74.3036 62.0193C74.3036 62.0193 70.4983 65.5075 71.5193 72.276C73.9758 88.5534 69.3424 87.466 69.3424 87.466C69.3424 87.466 61.9429 76.7583 64.2462 66.1963C64.2462 66.1963 50.361 52.9582 60.9573 32.296C72.6709 9.45042 113.059 11.1463 126.817 26.2838C137.862 38.4378 133.751 46.4618 133.751 46.4618C133.751 46.4618 149.475 60.5463 133.751 87.4038Z" fill="black"/>
<path d="M80.6157 56.1227C78.547 53.6126 76.9647 50.7137 75.7317 47.6851C74.4997 44.649 73.7508 41.4094 73.4851 38.1301C73.3052 36.49 73.4251 34.8402 73.4766 33.1957C73.7572 31.5727 73.859 29.9164 74.4086 28.3566C74.6582 27.5735 74.8135 26.7636 75.1392 26.0105L76.0959 23.75C76.3905 22.9862 76.8469 22.3016 77.2593 21.5999C77.6729 20.8982 78.0982 20.2061 78.5278 19.5205C77.1587 22.4623 75.7981 25.3955 75.2078 28.5548C74.7889 30.0986 74.7011 31.7012 74.4879 33.276C74.4718 34.8691 74.3593 36.461 74.5522 38.0476C74.7846 41.223 75.4767 44.363 76.4998 47.399C77.029 48.9117 77.6182 50.4083 78.3221 51.8567C78.9734 53.333 79.7672 54.7396 80.6157 56.1227Z" fill="white"/>
<path d="M87.9819 15.8914C86.8635 17.7244 86.1575 19.7363 85.549 21.7492C84.9715 23.7772 84.5837 25.8523 84.3352 27.9446L84.1606 29.5162L84.0684 31.0974C83.9624 32.1516 84.017 33.2111 83.9699 34.2717C83.9624 35.3323 84.0192 36.394 84.0224 37.461C84.0609 38.5269 84.1552 39.5907 84.1702 40.6696C83.9142 39.6272 83.717 38.5709 83.4996 37.5135C83.3699 36.4465 83.1996 35.3784 83.1343 34.3006C82.9982 32.1473 83.0046 29.9726 83.2714 27.8171C83.5478 25.667 83.9967 23.5276 84.7573 21.4889C85.5158 19.462 86.5239 17.4844 87.9819 15.8914Z" fill="white"/>
<path d="M86.6258 28.281C86.4951 27.1208 86.5412 25.9584 86.6644 24.8057C86.7812 23.6519 87.0126 22.5099 87.334 21.3882C87.6725 20.2719 88.0807 19.1642 88.6935 18.1497C89.2891 17.1394 90.0508 16.1742 91.0525 15.5614C90.3604 16.5009 89.8751 17.4983 89.4412 18.5225C89.0138 19.5477 88.6699 20.6115 88.3624 21.6882C87.7143 23.8383 87.2483 26.0441 86.6258 28.281Z" fill="white"/>
<path d="M100.558 28.2809C100.473 30.6067 100.321 32.9057 100.356 35.2037C100.394 37.4995 100.508 39.7867 100.811 42.0504C101.115 44.3129 101.624 46.5348 102.285 48.7192C102.664 49.7927 103.024 50.8822 103.542 51.9042C103.944 52.9916 104.604 53.9333 105.12 54.9842C103.615 53.2144 102.394 51.1811 101.509 48.9999C100.641 46.8144 100.085 44.5144 99.7478 42.1918C99.4661 39.8617 99.3772 37.5123 99.5357 35.1822C99.6064 34.0166 99.736 32.8564 99.8957 31.7037C100.084 30.5531 100.308 29.4133 100.558 28.2809Z" fill="white"/>
<path d="M95.8463 57.5541C95.8463 57.5541 86.7499 60.4638 89.8202 66.7684C89.8202 66.7684 82.9564 56.1593 95.8463 57.5541Z" fill="black"/>
<path d="M77.2513 75.7553C77.8019 75.0482 78.4147 74.5576 79.0371 74.083L80.9034 74.158C82.145 74.2308 83.3845 74.3723 84.6197 74.5833C85.8571 74.7901 87.0859 75.1061 88.3018 75.4928C88.906 75.7018 89.5113 75.9128 90.1026 76.1828C90.5076 76.8663 90.8451 77.6183 91.054 78.4432C90.2033 78.7368 89.5199 78.8771 88.8149 79.1288C88.3275 78.9028 87.8111 78.7239 87.2948 78.545C86.2492 78.214 85.1747 77.9333 84.0691 77.7501C82.9656 77.5615 81.8451 77.433 80.717 77.3666C80.1524 77.343 79.5878 77.2991 79.0254 77.3291C78.4597 76.8459 77.8855 76.3852 77.2513 75.7553Z" fill="black"/>
<path d="M85.6606 84.998C85.6606 86.7271 84.781 88.1294 83.6947 88.1294C82.6095 88.1294 81.7299 86.7271 81.7299 84.998C81.7299 83.2678 82.6095 81.8655 83.6947 81.8655C84.781 81.8655 85.6606 83.2678 85.6606 84.998Z" fill="black"/>
<path d="M124.118 74.9571C123.495 75.5902 122.952 76.0734 122.425 76.5758C121.879 76.5694 121.333 76.6412 120.788 76.699C119.698 76.8319 118.618 77.0547 117.567 77.3558C116.514 77.6493 115.489 78.0296 114.515 78.5031C114.02 78.7259 113.549 78.9906 113.084 79.2637C112.359 79.103 111.657 79.0484 110.783 78.8459C110.899 78.006 111.134 77.2272 111.444 76.4998C111.995 76.1762 112.554 75.8656 113.133 75.602C114.279 75.046 115.473 74.6036 116.69 74.264C117.905 73.9169 119.142 73.6619 120.392 73.5098C121.017 73.4273 121.646 73.3941 122.277 73.333C122.928 73.784 123.565 74.2533 124.118 74.9571Z" fill="black"/>
<path d="M116.011 84.998C116.011 86.7271 116.891 88.1294 117.976 88.1294C119.062 88.1294 119.942 86.7271 119.942 84.998C119.942 83.2678 119.062 81.8655 117.976 81.8655C116.891 81.8655 116.011 83.2678 116.011 84.998Z" fill="black"/>
<path d="M98.3271 83.5903C98.4503 84.081 98.6956 91.5105 95.1346 99.8024C95.1346 99.8024 98.8884 102.307 103.433 99.5238" stroke="black" stroke-miterlimit="10"/>
<path d="M93.7319 109.714C93.7319 109.714 101.999 111.494 110.784 110.192" stroke="black" stroke-miterlimit="10"/>
<path d="M98.4294 113.472C98.4294 113.472 103.099 114.25 105.552 112.94" stroke="black" stroke-miterlimit="10"/>
<path d="M133.632 93.5235C132.218 103.188 129.283 113.558 123.455 121.143C120.659 124.764 117.209 127.753 112.946 129.713C109.389 131.352 105.264 132.273 100.486 132.273C94.4762 132.263 89.5804 130.151 85.5844 126.681C76.9604 119.182 72.5788 105.341 70.3504 92.8496C70.3504 92.8496 76.0605 106.487 80.1208 111.147C84.1703 115.818 88.177 119.417 102.447 119.664C116.717 119.417 120.734 115.818 124.783 111.147C128.704 106.637 133.343 94.2841 133.632 93.5235Z" fill="black"/>
<path d="M86.9735 151.599L103.433 169.123L115.027 151.599" stroke="black" stroke-miterlimit="10"/>
<path d="M80.7391 155.51L88.3871 171.251L98.8891 164.284" stroke="black" stroke-miterlimit="10"/>
<path d="M107.8 162.522L116.719 171.251L124.345 157.443" stroke="black" stroke-miterlimit="10"/>
<path d="M103.433 169.123H107.8C107.8 169.123 108.694 177.147 104.272 178.621L103.433 221.036" stroke="black" stroke-miterlimit="10"/>
<path d="M75.4384 221.042H66.9216L64.1683 165.966C64.7789 165.537 65.4003 165.13 66.0324 164.734L71.8496 161.081L75.4384 221.042Z" fill="black"/>
<path d="M139.642 167.283L136.963 221.041H128.447L131.96 162.227L135.967 164.734C137.231 165.525 138.463 166.372 139.642 167.283Z" fill="black"/>
<path d="M113.267 133.109C104.396 136.076 92.6657 139.89 87.9412 141.411L89.0982 129.22C92.3657 131.159 96.1367 132.262 100.486 132.272C105.264 132.272 109.389 131.352 112.945 129.713L113.267 133.109Z" fill="black"/>
</g>
<path d="M14.9531 216.164C14.1875 216.164 13.4844 216.094 12.8438 215.953C12.2188 215.797 11.7188 215.625 11.3438 215.438C10.9531 215.25 10.5703 214.969 10.1953 214.594C10.0078 214.406 9.83594 214.227 9.67969 214.055C9.52344 213.883 9.35156 213.672 9.16406 213.422C8.99219 213.156 8.76562 212.812 8.48438 212.391C8.20312 211.953 7.83594 211.375 7.38281 210.656C6.77344 209.734 6.36719 209.234 6.16406 209.156C6.13281 209.141 6.04688 209.133 5.90625 209.133C5.76562 209.133 5.69531 209.258 5.69531 209.508V212.695C5.69531 213.523 5.75 214.164 5.85938 214.617C5.89062 214.742 6.02344 214.852 6.25781 214.945C6.49219 215.039 6.75 215.109 7.03125 215.156C7.3125 215.203 7.53125 215.227 7.6875 215.227C7.75 215.227 7.78125 215.375 7.78125 215.672C7.78125 215.828 7.76562 215.969 7.73438 216.094C6.79688 216.047 6.03125 216.008 5.4375 215.977C4.84375 215.945 4.41406 215.938 4.14844 215.953L0.726562 216.094C0.664062 216.031 0.632812 215.898 0.632812 215.695C0.632812 215.383 0.664062 215.227 0.726562 215.227C0.851562 215.227 1.03125 215.203 1.26562 215.156C1.5 215.109 1.71875 215.047 1.92188 214.969C2.125 214.875 2.24219 214.789 2.27344 214.711C2.36719 214.352 2.41406 213.664 2.41406 212.648V203.789C2.41406 202.914 2.36719 202.305 2.27344 201.961C2.24219 201.867 2.11719 201.773 1.89844 201.68C1.69531 201.57 1.47656 201.484 1.24219 201.422C1.00781 201.344 0.828125 201.305 0.703125 201.305C0.640625 201.305 0.609375 201.164 0.609375 200.883C0.609375 200.633 0.632812 200.484 0.679688 200.438C1.39844 200.469 2.03906 200.5 2.60156 200.531C3.17969 200.547 3.6875 200.555 4.125 200.555C4.875 200.539 5.46094 200.531 5.88281 200.531C6.30469 200.531 6.625 200.531 6.84375 200.531C7.0625 200.531 7.25 200.531 7.40625 200.531C8.03125 200.531 8.65625 200.609 9.28125 200.766C9.92188 200.922 10.5078 201.164 11.0391 201.492C11.5703 201.805 11.9922 202.211 12.3047 202.711C12.6328 203.195 12.7969 203.781 12.7969 204.469C12.7969 205.156 12.6562 205.797 12.375 206.391C12.0938 206.984 11.7266 207.484 11.2734 207.891C10.8359 208.297 10.3828 208.578 9.91406 208.734C9.78906 208.781 9.76562 208.867 9.84375 208.992C10.1875 209.57 10.4531 210.008 10.6406 210.305C10.8281 210.602 10.9844 210.844 11.1094 211.031C11.25 211.203 11.4141 211.422 11.6016 211.688C11.7891 211.938 12.0547 212.32 12.3984 212.836C12.6641 213.211 12.9766 213.586 13.3359 213.961C13.7109 214.32 14.1094 214.625 14.5312 214.875C14.9688 215.109 15.3828 215.227 15.7734 215.227C15.8359 215.289 15.8672 215.43 15.8672 215.648C15.8672 215.836 15.8359 215.992 15.7734 216.117C15.6641 216.133 15.5391 216.141 15.3984 216.141C15.2734 216.156 15.125 216.164 14.9531 216.164ZM6.67969 207.844H7.3125C7.92188 207.844 8.39062 207.578 8.71875 207.047C9.0625 206.516 9.23438 205.812 9.23438 204.938C9.23438 202.859 8.50781 201.82 7.05469 201.82C6.50781 201.82 6.14844 201.883 5.97656 202.008C5.78906 202.148 5.69531 202.914 5.69531 204.305V206.836C5.69531 207.273 5.78125 207.555 5.95312 207.68C6.14062 207.789 6.38281 207.844 6.67969 207.844ZM16.7344 216.094C16.6719 216.031 16.6406 215.883 16.6406 215.648C16.6406 215.414 16.6719 215.297 16.7344 215.297C16.8594 215.297 17.0234 215.266 17.2266 215.203C17.4297 215.141 17.625 215.062 17.8125 214.969C18 214.875 18.1016 214.789 18.1172 214.711C18.2266 214.273 18.2812 213.68 18.2812 212.93V209.508C18.2812 208.633 18.1406 208.047 17.8594 207.75C17.7344 207.594 17.5625 207.484 17.3438 207.422C17.1406 207.359 16.9609 207.32 16.8047 207.305C16.6484 207.273 16.5703 207.242 16.5703 207.211C16.5703 206.758 16.6094 206.531 16.6875 206.531C16.8281 206.531 17.0859 206.5 17.4609 206.438C17.8359 206.375 18.25 206.297 18.7031 206.203C19.1719 206.109 19.6094 206.016 20.0156 205.922C20.4375 205.828 20.7578 205.75 20.9766 205.688L21.2344 205.617C21.3125 205.617 21.3906 205.672 21.4688 205.781C21.5469 205.875 21.5859 205.953 21.5859 206.016C21.5078 206.703 21.4453 207.242 21.3984 207.633C21.3516 208.023 21.3281 208.266 21.3281 208.359V212.578C21.3281 213.469 21.3906 214.18 21.5156 214.711C21.5469 214.773 21.6484 214.852 21.8203 214.945C22.0078 215.039 22.2031 215.125 22.4062 215.203C22.6094 215.266 22.75 215.297 22.8281 215.297C22.875 215.297 22.8984 215.414 22.8984 215.648C22.9141 215.883 22.9062 216.031 22.875 216.094C22.75 216.078 22.4844 216.055 22.0781 216.023C21.6875 216.008 21.2734 215.984 20.8359 215.953C20.3984 215.922 20.0547 215.906 19.8047 215.906C19.5547 215.906 19.2109 215.922 18.7734 215.953C18.3359 215.984 17.9219 216.008 17.5312 216.023C17.1406 216.055 16.875 216.078 16.7344 216.094ZM19.6875 203.297C19.2031 203.297 18.7891 203.133 18.4453 202.805C18.1172 202.461 17.9531 202.047 17.9531 201.562C17.9531 201.078 18.1172 200.672 18.4453 200.344C18.7891 200 19.2031 199.828 19.6875 199.828C20.1719 199.828 20.5781 200 20.9062 200.344C21.25 200.672 21.4219 201.078 21.4219 201.562C21.4219 202.047 21.25 202.461 20.9062 202.805C20.5781 203.133 20.1719 203.297 19.6875 203.297ZM29.5547 216.164C28.5547 216.164 27.6562 215.922 26.8594 215.438C26.0625 214.953 25.4297 214.297 24.9609 213.469C24.4922 212.641 24.2578 211.719 24.2578 210.703C24.2578 209.734 24.5078 208.859 25.0078 208.078C25.5078 207.297 26.1797 206.68 27.0234 206.227C27.8828 205.758 28.8281 205.523 29.8594 205.523C30.6562 205.523 31.3906 205.664 32.0625 205.945C32.7344 206.211 33.2188 206.531 33.5156 206.906C33.5156 208.344 33.0938 209.062 32.25 209.062C31.6406 209.062 31.1797 208.672 30.8672 207.891C30.7266 207.531 30.5469 207.266 30.3281 207.094C30.125 206.906 29.8359 206.812 29.4609 206.812C28.2109 206.812 27.5859 207.984 27.5859 210.328C27.5859 212.969 28.4688 214.289 30.2344 214.289C30.7656 214.289 31.2578 214.211 31.7109 214.055C32.0234 213.961 32.2656 213.875 32.4375 213.797C32.6094 213.719 32.7656 213.633 32.9062 213.539C33.0625 213.43 33.2422 213.297 33.4453 213.141C33.5859 213.203 33.6562 213.352 33.6562 213.586C33.6562 213.789 33.625 213.945 33.5625 214.055C33.4688 214.305 33.2266 214.602 32.8359 214.945C32.4453 215.273 31.9609 215.562 31.3828 215.812C30.8203 216.047 30.2109 216.164 29.5547 216.164ZM34.9453 216.094C34.8828 216.031 34.8516 215.867 34.8516 215.602C34.8516 215.352 34.8828 215.227 34.9453 215.227C35.0703 215.227 35.25 215.195 35.4844 215.133C35.7188 215.055 35.9375 214.969 36.1406 214.875C36.3438 214.781 36.4531 214.703 36.4688 214.641C36.5781 214.203 36.6328 213.609 36.6328 212.859V203.555C36.6328 203.195 36.6172 202.875 36.5859 202.594C36.5703 202.312 36.5469 202.07 36.5156 201.867C36.4531 201.617 36.0469 201.492 35.2969 201.492H35.0859C34.9922 201.492 34.9453 201.336 34.9453 201.023C34.9453 200.758 34.9922 200.625 35.0859 200.625C35.9922 200.547 36.8438 200.414 37.6406 200.227C38.4531 200.039 39.0312 199.891 39.375 199.781L39.6094 199.711H39.6562C39.7188 199.711 39.7812 199.758 39.8438 199.852C39.9062 199.945 39.9453 200.031 39.9609 200.109C39.7734 200.812 39.6797 201.602 39.6797 202.477V206.836C39.6797 206.945 39.7109 207 39.7734 207C39.7891 207 39.8281 206.969 39.8906 206.906C40.2344 206.516 40.7188 206.195 41.3438 205.945C41.9688 205.68 42.6172 205.547 43.2891 205.547C44.1953 205.547 44.9297 205.93 45.4922 206.695C46.0703 207.461 46.3594 208.625 46.3594 210.188V212.508C46.3594 213.539 46.4141 214.25 46.5234 214.641C46.5547 214.703 46.6719 214.781 46.875 214.875C47.0781 214.969 47.2891 215.055 47.5078 215.133C47.7422 215.195 47.9062 215.227 48 215.227C48.0312 215.227 48.0547 215.289 48.0703 215.414C48.0859 215.539 48.0938 215.672 48.0938 215.812C48.0938 215.953 48.0781 216.047 48.0469 216.094C47.9531 216.094 47.7734 216.078 47.5078 216.047C47.2422 216.031 46.9297 216.016 46.5703 216C46.2266 215.969 45.8984 215.945 45.5859 215.93C45.2734 215.914 45.0234 215.906 44.8359 215.906C44.5859 215.906 44.2344 215.922 43.7812 215.953C43.3438 215.984 42.9219 216.008 42.5156 216.023C42.1094 216.055 41.8438 216.078 41.7188 216.094C41.6562 216.031 41.625 215.867 41.625 215.602C41.625 215.352 41.6562 215.227 41.7188 215.227C41.8438 215.227 42.0078 215.195 42.2109 215.133C42.4297 215.055 42.6328 214.969 42.8203 214.875C43.0234 214.781 43.1328 214.703 43.1484 214.641C43.2578 214.203 43.3125 213.609 43.3125 212.859V210.75C43.3125 209.594 43.1562 208.773 42.8438 208.289C42.5312 207.789 42.0234 207.539 41.3203 207.539C40.2266 207.539 39.6797 207.883 39.6797 208.57V212.508C39.6797 213.539 39.7344 214.25 39.8438 214.641C39.875 214.703 39.9844 214.781 40.1719 214.875C40.3594 214.969 40.5625 215.055 40.7812 215.133C41 215.195 41.1484 215.227 41.2266 215.227C41.2578 215.227 41.2812 215.289 41.2969 215.414C41.3125 215.539 41.3203 215.672 41.3203 215.812C41.3203 215.953 41.3047 216.047 41.2734 216.094C41.1484 216.078 40.8828 216.055 40.4766 216.023C40.0703 216.008 39.6406 215.984 39.1875 215.953C38.75 215.922 38.4062 215.906 38.1562 215.906C37.9688 215.906 37.7109 215.914 37.3828 215.93C37.0703 215.945 36.7422 215.969 36.3984 216C36.0547 216.016 35.75 216.031 35.4844 216.047C35.2188 216.078 35.0391 216.094 34.9453 216.094ZM51.5625 216.164C50.7031 216.164 50.0156 215.93 49.5 215.461C49 214.977 48.75 214.375 48.75 213.656C48.75 213.047 48.9375 212.516 49.3125 212.062C49.7031 211.609 50.1875 211.25 50.7656 210.984C50.9844 210.891 51.1875 210.812 51.375 210.75C51.5625 210.672 51.7344 210.602 51.8906 210.539C52.4844 210.352 52.9609 210.219 53.3203 210.141C53.6797 210.047 53.9453 209.969 54.1172 209.906C54.2578 209.859 54.3281 209.742 54.3281 209.555V208.711C54.3281 207.43 53.9375 206.789 53.1562 206.789C52.25 206.789 51.7969 207.312 51.7969 208.359C51.7969 208.703 51.6562 208.961 51.375 209.133C51.0938 209.289 50.7812 209.367 50.4375 209.367C49.7188 209.367 49.2266 209.133 48.9609 208.664C48.9609 208.258 49.1016 207.867 49.3828 207.492C49.6797 207.117 50.0625 206.781 50.5312 206.484C51.0156 206.172 51.5547 205.93 52.1484 205.758C52.7578 205.57 53.3672 205.477 53.9766 205.477C55.0703 205.477 55.9062 205.781 56.4844 206.391C57.0781 206.984 57.375 208.07 57.375 209.648V213.445C57.375 213.977 57.5625 214.242 57.9375 214.242C58.2188 214.242 58.4844 214.141 58.7344 213.938C58.8438 214 58.8984 214.117 58.8984 214.289C58.8984 214.695 58.8438 214.984 58.7344 215.156C58.5156 215.359 58.1562 215.578 57.6562 215.812C57.1719 216.031 56.7109 216.141 56.2734 216.141C55.8984 216.141 55.5391 216.031 55.1953 215.812C54.8516 215.578 54.625 215.312 54.5156 215.016C54.5 215.016 54.4141 215.07 54.2578 215.18C54.1016 215.289 53.9844 215.375 53.9062 215.438C53.5938 215.641 53.2344 215.812 52.8281 215.953C52.4219 216.094 52 216.164 51.5625 216.164ZM53.0391 214.477C53.4453 214.477 53.7578 214.383 53.9766 214.195C54.2109 213.992 54.3281 213.75 54.3281 213.469V211.102L53.1094 211.523C52.7812 211.633 52.4766 211.797 52.1953 212.016C51.9297 212.234 51.7969 212.523 51.7969 212.883C51.7969 213.445 51.9141 213.852 52.1484 214.102C52.3984 214.352 52.6953 214.477 53.0391 214.477ZM60.2109 216.094C60.1484 216.031 60.1172 215.867 60.1172 215.602C60.1172 215.352 60.1484 215.227 60.2109 215.227C60.3359 215.227 60.5156 215.195 60.75 215.133C60.9844 215.055 61.2031 214.969 61.4062 214.875C61.6094 214.781 61.7188 214.703 61.7344 214.641C61.8438 214.203 61.8984 213.609 61.8984 212.859V209.648C61.8984 208.773 61.7578 208.188 61.4766 207.891C61.3516 207.734 61.1797 207.625 60.9609 207.562C60.7578 207.5 60.5781 207.461 60.4219 207.445C60.2656 207.414 60.1875 207.383 60.1875 207.352C60.1875 206.805 60.2266 206.531 60.3047 206.531C60.7109 206.531 61.2734 206.445 61.9922 206.273C62.7266 206.086 63.5 205.906 64.3125 205.734L64.8516 205.617C64.9297 205.617 65.0078 205.672 65.0859 205.781C65.1641 205.875 65.2031 205.953 65.2031 206.016C65.1875 206.109 65.1641 206.297 65.1328 206.578C65.1172 206.859 65.1016 207.016 65.0859 207.047C65.8672 206.031 66.75 205.523 67.7344 205.523C68.4375 205.523 69.1094 205.812 69.75 206.391C69.75 207.203 69.6484 207.805 69.4453 208.195C69.2578 208.586 68.9062 208.781 68.3906 208.781C68.0781 208.781 67.7188 208.602 67.3125 208.242C66.9062 207.883 66.5469 207.703 66.2344 207.703C65.9219 207.703 65.6719 207.828 65.4844 208.078C65.2969 208.312 65.1562 208.617 65.0625 208.992C64.9844 209.367 64.9453 209.758 64.9453 210.164V212.531C64.9453 213.547 65 214.25 65.1094 214.641C65.1406 214.703 65.25 214.781 65.4375 214.875C65.625 214.969 65.8281 215.055 66.0469 215.133C66.2656 215.195 66.4141 215.227 66.4922 215.227C66.5234 215.227 66.5469 215.289 66.5625 215.414C66.5781 215.539 66.5859 215.672 66.5859 215.812C66.5859 215.953 66.5703 216.047 66.5391 216.094C66.4141 216.078 66.1484 216.055 65.7422 216.023C65.3359 216.008 64.9062 215.984 64.4531 215.953C64.0156 215.922 63.6719 215.906 63.4219 215.906C63.2344 215.906 62.9766 215.914 62.6484 215.93C62.3359 215.945 62.0078 215.969 61.6641 216C61.3203 216.016 61.0156 216.031 60.75 216.047C60.4844 216.078 60.3047 216.094 60.2109 216.094ZM75.6797 216.141C74.8359 216.141 74.0391 215.93 73.2891 215.508C72.5547 215.086 71.9531 214.492 71.4844 213.727C71.0312 212.961 70.8047 212.062 70.8047 211.031C70.8047 209.984 71.0469 209.047 71.5312 208.219C72.0312 207.391 72.7031 206.734 73.5469 206.25C74.4062 205.766 75.3672 205.523 76.4297 205.523C77.0859 205.523 77.6328 205.594 78.0703 205.734C78.1172 205.734 78.1406 205.625 78.1406 205.406V203.555C78.1406 202.898 78.0938 202.336 78 201.867C77.9375 201.617 77.5312 201.492 76.7812 201.492H76.5703C76.4766 201.492 76.4297 201.336 76.4297 201.023C76.4297 200.758 76.4766 200.625 76.5703 200.625C77.4766 200.547 78.3281 200.414 79.125 200.227C79.9375 200.039 80.5156 199.891 80.8594 199.781L81.0938 199.711H81.1406C81.2031 199.711 81.2656 199.758 81.3281 199.852C81.3906 199.945 81.4297 200.031 81.4453 200.109C81.2734 200.844 81.1875 201.633 81.1875 202.477V212.555C81.1875 212.898 81.2031 213.273 81.2344 213.68C81.2656 214.07 81.3359 214.32 81.4453 214.43C81.5703 214.523 81.7109 214.578 81.8672 214.594C82.0234 214.594 82.2266 214.609 82.4766 214.641L82.7109 214.664C82.7578 214.68 82.7812 214.773 82.7812 214.945C82.7812 215.336 82.7344 215.531 82.6406 215.531C82.25 215.547 81.7969 215.594 81.2812 215.672C80.7812 215.75 80.2891 215.828 79.8047 215.906C79.3203 215.984 78.9297 216.047 78.6328 216.094L78.2812 216.141C78.1875 216.156 78.1406 216.023 78.1406 215.742V215.25C78.1406 215.125 78.1094 215.094 78.0469 215.156C77.3906 215.812 76.6016 216.141 75.6797 216.141ZM76.2891 214.711C76.8203 214.711 77.2578 214.562 77.6016 214.266C77.9609 213.953 78.1406 213.578 78.1406 213.141V208.875C78.1406 208.688 78.125 208.508 78.0938 208.336C78.0625 208.164 77.9922 207.945 77.8828 207.68C77.7734 207.414 77.5781 207.203 77.2969 207.047C77.0312 206.875 76.6953 206.789 76.2891 206.789C75.5547 206.789 75.0156 207.086 74.6719 207.68C74.3438 208.258 74.1797 209.188 74.1797 210.469C74.1797 213.297 74.8828 214.711 76.2891 214.711ZM96.3047 216.211C95.2734 216.211 94.3047 216.008 93.3984 215.602C92.5078 215.195 91.7188 214.633 91.0312 213.914C90.3438 213.195 89.8047 212.367 89.4141 211.43C89.0391 210.492 88.8516 209.5 88.8516 208.453C88.8516 207.344 89.0469 206.305 89.4375 205.336C89.8438 204.367 90.3984 203.508 91.1016 202.758C91.8047 202.008 92.6172 201.422 93.5391 201C94.4766 200.578 95.4844 200.367 96.5625 200.367C97.4219 200.367 98.2969 200.43 99.1875 200.555C100.078 200.664 100.992 200.828 101.93 201.047C101.977 201.047 102.023 201.227 102.07 201.586C102.133 201.93 102.195 202.344 102.258 202.828C102.32 203.297 102.367 203.734 102.398 204.141C102.445 204.531 102.469 204.781 102.469 204.891C102.469 205.016 102.328 205.078 102.047 205.078C101.75 205.078 101.508 205.039 101.32 204.961C101.242 204.664 101.117 204.359 100.945 204.047C100.773 203.734 100.516 203.383 100.172 202.992C99.8281 202.602 99.3516 202.289 98.7422 202.055C98.1328 201.805 97.4453 201.68 96.6797 201.68C93.8672 201.68 92.4609 203.758 92.4609 207.914C92.4609 209.055 92.6172 210.141 92.9297 211.172C93.1328 211.844 93.4375 212.461 93.8438 213.023C94.2656 213.586 94.7734 214.039 95.3672 214.383C95.9766 214.727 96.6641 214.898 97.4297 214.898C98.1328 214.898 98.6328 214.773 98.9297 214.523C99.1016 214.383 99.1875 214.148 99.1875 213.82V212.18C99.1875 211.352 99.1328 210.75 99.0234 210.375C98.9141 209.953 98.3984 209.742 97.4766 209.742C97.4453 209.742 97.4141 209.68 97.3828 209.555C97.3672 209.43 97.3672 209.297 97.3828 209.156C97.3984 209 97.4219 208.906 97.4531 208.875C98.0781 208.906 98.7031 208.938 99.3281 208.969C99.9531 209 100.492 209.016 100.945 209.016C101.18 209.016 102.234 208.969 104.109 208.875C104.156 209.016 104.18 209.172 104.18 209.344C104.18 209.625 104.148 209.766 104.086 209.766C103.727 209.766 103.312 209.883 102.844 210.117C102.594 210.227 102.469 210.844 102.469 211.969V213.328C102.469 213.609 102.492 213.82 102.539 213.961C102.586 214.102 102.609 214.188 102.609 214.219C102.609 214.484 102.445 214.703 102.117 214.875C101.539 215.172 101.094 215.383 100.781 215.508C100.453 215.648 99.875 215.805 99.0469 215.977C98.2344 216.133 97.3203 216.211 96.3047 216.211ZM113.836 216.117C113.742 216.117 113.695 215.977 113.695 215.695V214.828C113.695 214.703 113.664 214.672 113.602 214.734C113.273 215.078 112.789 215.391 112.148 215.672C111.523 215.953 110.844 216.094 110.109 216.094C109.5 216.094 108.961 215.906 108.492 215.531C108.039 215.156 107.688 214.656 107.438 214.031C107.188 213.391 107.062 212.688 107.062 211.922V209.648C107.062 208.773 106.922 208.188 106.641 207.891C106.516 207.734 106.344 207.625 106.125 207.562C105.922 207.5 105.742 207.461 105.586 207.445C105.43 207.414 105.352 207.383 105.352 207.352C105.352 206.805 105.391 206.531 105.469 206.531C105.609 206.531 105.867 206.5 106.242 206.438C106.633 206.375 107.055 206.305 107.508 206.227C107.961 206.133 108.391 206.039 108.797 205.945C109.219 205.836 109.539 205.75 109.758 205.688C109.805 205.672 109.844 205.656 109.875 205.641C109.922 205.625 109.969 205.617 110.016 205.617C110.094 205.617 110.172 205.672 110.25 205.781C110.328 205.875 110.367 205.953 110.367 206.016C110.289 206.703 110.227 207.242 110.18 207.633C110.133 208.023 110.109 208.266 110.109 208.359V210.867C110.109 212.086 110.266 212.945 110.578 213.445C110.891 213.93 111.414 214.172 112.148 214.172C112.68 214.172 113.078 214.055 113.344 213.82C113.609 213.57 113.742 213.297 113.742 213V209.648C113.742 208.773 113.602 208.188 113.32 207.891C113.195 207.734 113.023 207.625 112.805 207.562C112.602 207.5 112.422 207.461 112.266 207.445C112.109 207.414 112.031 207.383 112.031 207.352C112.031 206.805 112.07 206.531 112.148 206.531C112.289 206.531 112.547 206.5 112.922 206.438C113.312 206.375 113.734 206.305 114.188 206.227C114.641 206.133 115.07 206.039 115.477 205.945C115.898 205.836 116.219 205.75 116.438 205.688L116.695 205.617C116.773 205.617 116.852 205.672 116.93 205.781C117.008 205.875 117.047 205.953 117.047 206.016C116.969 206.703 116.906 207.242 116.859 207.633C116.812 208.023 116.789 208.258 116.789 208.336V212.93C116.789 213.758 116.867 214.25 117.023 214.406C117.102 214.484 117.227 214.547 117.398 214.594C117.57 214.625 117.742 214.641 117.914 214.641H118.148C118.211 214.656 118.242 214.719 118.242 214.828C118.242 215.281 118.195 215.508 118.102 215.508C117.133 215.602 116.32 215.695 115.664 215.789C115.023 215.883 114.523 215.969 114.164 216.047L113.836 216.117ZM124.453 216.164C123.5 216.164 122.617 215.922 121.805 215.438C121.008 214.953 120.367 214.305 119.883 213.492C119.414 212.68 119.18 211.789 119.18 210.82C119.18 209.82 119.391 208.922 119.812 208.125C120.25 207.328 120.852 206.695 121.617 206.227C122.383 205.758 123.266 205.523 124.266 205.523C125.25 205.523 126.086 205.758 126.773 206.227C127.477 206.68 128.008 207.25 128.367 207.938C128.742 208.609 128.93 209.289 128.93 209.977C128.93 210.336 128.852 210.57 128.695 210.68C128.555 210.789 128.266 210.844 127.828 210.844H122.531C122.438 210.844 122.391 210.898 122.391 211.008C122.391 211.57 122.492 212.102 122.695 212.602C122.914 213.102 123.227 213.508 123.633 213.82C124.055 214.133 124.562 214.289 125.156 214.289C125.688 214.289 126.18 214.211 126.633 214.055C126.945 213.961 127.188 213.875 127.359 213.797C127.531 213.719 127.688 213.633 127.828 213.539C127.984 213.43 128.164 213.297 128.367 213.141C128.508 213.203 128.578 213.352 128.578 213.586C128.578 213.789 128.547 213.945 128.484 214.055C128.391 214.305 128.141 214.594 127.734 214.922C127.344 215.25 126.859 215.539 126.281 215.789C125.719 216.039 125.109 216.164 124.453 216.164ZM122.555 209.555H125.531C125.75 209.555 125.859 209.406 125.859 209.109C125.859 208.516 125.695 207.984 125.367 207.516C125.055 207.047 124.648 206.812 124.148 206.812C123.695 206.812 123.336 206.977 123.07 207.305C122.82 207.617 122.641 207.969 122.531 208.359C122.438 208.75 122.391 209.07 122.391 209.32C122.391 209.477 122.445 209.555 122.555 209.555ZM130.359 216.094C130.297 216.031 130.266 215.867 130.266 215.602C130.266 215.352 130.297 215.227 130.359 215.227C130.484 215.227 130.664 215.195 130.898 215.133C131.133 215.055 131.352 214.969 131.555 214.875C131.758 214.781 131.867 214.703 131.883 214.641C131.992 214.203 132.047 213.609 132.047 212.859V209.648C132.047 208.773 131.906 208.188 131.625 207.891C131.5 207.734 131.328 207.625 131.109 207.562C130.906 207.5 130.727 207.461 130.57 207.445C130.414 207.414 130.336 207.383 130.336 207.352C130.336 206.805 130.375 206.531 130.453 206.531C130.859 206.531 131.422 206.445 132.141 206.273C132.875 206.086 133.648 205.906 134.461 205.734L135 205.617C135.078 205.617 135.156 205.672 135.234 205.781C135.312 205.875 135.352 205.953 135.352 206.016C135.336 206.109 135.312 206.297 135.281 206.578C135.266 206.859 135.25 207.016 135.234 207.047C136.016 206.031 136.898 205.523 137.883 205.523C138.586 205.523 139.258 205.812 139.898 206.391C139.898 207.203 139.797 207.805 139.594 208.195C139.406 208.586 139.055 208.781 138.539 208.781C138.227 208.781 137.867 208.602 137.461 208.242C137.055 207.883 136.695 207.703 136.383 207.703C136.07 207.703 135.82 207.828 135.633 208.078C135.445 208.312 135.305 208.617 135.211 208.992C135.133 209.367 135.094 209.758 135.094 210.164V212.531C135.094 213.547 135.148 214.25 135.258 214.641C135.289 214.703 135.398 214.781 135.586 214.875C135.773 214.969 135.977 215.055 136.195 215.133C136.414 215.195 136.562 215.227 136.641 215.227C136.672 215.227 136.695 215.289 136.711 215.414C136.727 215.539 136.734 215.672 136.734 215.812C136.734 215.953 136.719 216.047 136.688 216.094C136.562 216.078 136.297 216.055 135.891 216.023C135.484 216.008 135.055 215.984 134.602 215.953C134.164 215.922 133.82 215.906 133.57 215.906C133.383 215.906 133.125 215.914 132.797 215.93C132.484 215.945 132.156 215.969 131.812 216C131.469 216.016 131.164 216.031 130.898 216.047C130.633 216.078 130.453 216.094 130.359 216.094ZM141.258 216.094C141.195 216.031 141.164 215.867 141.164 215.602C141.164 215.352 141.195 215.227 141.258 215.227C141.383 215.227 141.562 215.195 141.797 215.133C142.031 215.055 142.25 214.969 142.453 214.875C142.656 214.781 142.766 214.703 142.781 214.641C142.891 214.203 142.945 213.609 142.945 212.859V209.648C142.945 208.773 142.805 208.188 142.523 207.891C142.398 207.734 142.227 207.625 142.008 207.562C141.805 207.5 141.625 207.461 141.469 207.445C141.312 207.414 141.234 207.383 141.234 207.352C141.234 206.805 141.273 206.531 141.352 206.531C141.758 206.531 142.32 206.445 143.039 206.273C143.773 206.086 144.547 205.906 145.359 205.734L145.898 205.617C145.977 205.617 146.055 205.672 146.133 205.781C146.211 205.875 146.25 205.953 146.25 206.016C146.234 206.109 146.211 206.297 146.18 206.578C146.164 206.859 146.148 207.016 146.133 207.047C146.914 206.031 147.797 205.523 148.781 205.523C149.484 205.523 150.156 205.812 150.797 206.391C150.797 207.203 150.695 207.805 150.492 208.195C150.305 208.586 149.953 208.781 149.438 208.781C149.125 208.781 148.766 208.602 148.359 208.242C147.953 207.883 147.594 207.703 147.281 207.703C146.969 207.703 146.719 207.828 146.531 208.078C146.344 208.312 146.203 208.617 146.109 208.992C146.031 209.367 145.992 209.758 145.992 210.164V212.531C145.992 213.547 146.047 214.25 146.156 214.641C146.188 214.703 146.297 214.781 146.484 214.875C146.672 214.969 146.875 215.055 147.094 215.133C147.312 215.195 147.461 215.227 147.539 215.227C147.57 215.227 147.594 215.289 147.609 215.414C147.625 215.539 147.633 215.672 147.633 215.812C147.633 215.953 147.617 216.047 147.586 216.094C147.461 216.078 147.195 216.055 146.789 216.023C146.383 216.008 145.953 215.984 145.5 215.953C145.062 215.922 144.719 215.906 144.469 215.906C144.281 215.906 144.023 215.914 143.695 215.93C143.383 215.945 143.055 215.969 142.711 216C142.367 216.016 142.062 216.031 141.797 216.047C141.531 216.078 141.352 216.094 141.258 216.094ZM154.898 216.164C154.039 216.164 153.352 215.93 152.836 215.461C152.336 214.977 152.086 214.375 152.086 213.656C152.086 213.047 152.273 212.516 152.648 212.062C153.039 211.609 153.523 211.25 154.102 210.984C154.32 210.891 154.523 210.812 154.711 210.75C154.898 210.672 155.07 210.602 155.227 210.539C155.82 210.352 156.297 210.219 156.656 210.141C157.016 210.047 157.281 209.969 157.453 209.906C157.594 209.859 157.664 209.742 157.664 209.555V208.711C157.664 207.43 157.273 206.789 156.492 206.789C155.586 206.789 155.133 207.312 155.133 208.359C155.133 208.703 154.992 208.961 154.711 209.133C154.43 209.289 154.117 209.367 153.773 209.367C153.055 209.367 152.562 209.133 152.297 208.664C152.297 208.258 152.438 207.867 152.719 207.492C153.016 207.117 153.398 206.781 153.867 206.484C154.352 206.172 154.891 205.93 155.484 205.758C156.094 205.57 156.703 205.477 157.312 205.477C158.406 205.477 159.242 205.781 159.82 206.391C160.414 206.984 160.711 208.07 160.711 209.648V213.445C160.711 213.977 160.898 214.242 161.273 214.242C161.555 214.242 161.82 214.141 162.07 213.938C162.18 214 162.234 214.117 162.234 214.289C162.234 214.695 162.18 214.984 162.07 215.156C161.852 215.359 161.492 215.578 160.992 215.812C160.508 216.031 160.047 216.141 159.609 216.141C159.234 216.141 158.875 216.031 158.531 215.812C158.188 215.578 157.961 215.312 157.852 215.016C157.836 215.016 157.75 215.07 157.594 215.18C157.438 215.289 157.32 215.375 157.242 215.438C156.93 215.641 156.57 215.812 156.164 215.953C155.758 216.094 155.336 216.164 154.898 216.164ZM156.375 214.477C156.781 214.477 157.094 214.383 157.312 214.195C157.547 213.992 157.664 213.75 157.664 213.469V211.102L156.445 211.523C156.117 211.633 155.812 211.797 155.531 212.016C155.266 212.234 155.133 212.523 155.133 212.883C155.133 213.445 155.25 213.852 155.484 214.102C155.734 214.352 156.031 214.477 156.375 214.477Z" fill="#212529"/>
<path d="M9.6 253.465C9.39 254.025 9.09 254.51 8.7 254.92C8.31 255.32 7.85 255.625 7.32 255.835C6.8 256.045 6.23 256.15 5.61 256.15C4.67 256.15 3.855 255.945 3.165 255.535C2.485 255.115 1.955 254.525 1.575 253.765C1.205 253.005 1.02 252.1 1.02 251.05C1.02 250 1.205 249.095 1.575 248.335C1.955 247.575 2.485 246.99 3.165 246.58C3.855 246.16 4.66 245.95 5.58 245.95C6.22 245.95 6.79 246.04 7.29 246.22C7.79 246.39 8.215 246.65 8.565 247C8.925 247.34 9.21 247.76 9.42 248.26L8.235 248.815C8.015 248.245 7.695 247.815 7.275 247.525C6.865 247.225 6.33 247.075 5.67 247.075C5 247.075 4.41 247.235 3.9 247.555C3.39 247.865 2.99 248.315 2.7 248.905C2.42 249.495 2.28 250.21 2.28 251.05C2.28 251.88 2.415 252.595 2.685 253.195C2.955 253.785 3.34 254.24 3.84 254.56C4.34 254.87 4.93 255.025 5.61 255.025C6.27 255.025 6.845 254.86 7.335 254.53C7.825 254.19 8.18 253.685 8.4 253.015L9.6 253.465ZM18.8632 246.1V247.225H15.4132V256H14.2132V247.225H10.7632V246.1H18.8632ZM24.609 245.95C25.549 245.95 26.359 246.16 27.039 246.58C27.729 246.99 28.259 247.575 28.629 248.335C29.009 249.095 29.199 250 29.199 251.05C29.199 252.1 29.009 253.005 28.629 253.765C28.259 254.525 27.729 255.115 27.039 255.535C26.359 255.945 25.549 256.15 24.609 256.15C23.669 256.15 22.854 255.945 22.164 255.535C21.484 255.115 20.954 254.525 20.574 253.765C20.204 253.005 20.019 252.1 20.019 251.05C20.019 250 20.204 249.095 20.574 248.335C20.954 247.575 21.484 246.99 22.164 246.58C22.854 246.16 23.669 245.95 24.609 245.95ZM24.609 247.075C23.929 247.075 23.339 247.235 22.839 247.555C22.339 247.865 21.954 248.32 21.684 248.92C21.414 249.51 21.279 250.22 21.279 251.05C21.279 251.88 21.414 252.595 21.684 253.195C21.954 253.785 22.339 254.24 22.839 254.56C23.339 254.87 23.929 255.025 24.609 255.025C25.299 255.025 25.889 254.87 26.379 254.56C26.879 254.24 27.264 253.785 27.534 253.195C27.804 252.595 27.939 251.88 27.939 251.05C27.939 250.22 27.804 249.51 27.534 248.92C27.264 248.32 26.879 247.865 26.379 247.555C25.889 247.235 25.299 247.075 24.609 247.075Z" fill="#212529" fill-opacity="0.75"/>
</svg>
