<svg width="32" height="32" viewBox="0 0 32 32" fill="none" xmlns="http://www.w3.org/2000/svg">
<path d="M29.4058 2.91971C29.9094 3.42389 30.2894 4.03379 30.517 4.70321C30.7445 5.37264 30.8137 6.08403 30.7191 6.78352C30.6246 7.48301 30.3689 8.15224 29.9714 8.74054C29.5739 9.32883 29.045 9.82076 28.4248 10.1791C23.9539 12.7553 18.7366 13.8036 13.592 13.1595C8.44742 12.5154 3.66663 10.2154 0 6.62038L6.61762 0C8.80883 2.147 11.6626 3.52408 14.735 3.91703C17.8074 4.30998 20.9261 3.69676 23.6061 2.17278C24.5184 1.64592 25.584 1.43257 26.6341 1.56653C27.6841 1.7005 28.6585 2.17412 29.4028 2.91232L29.4058 2.91971Z" fill="#9C5AFF"/>
<path d="M29.3772 2.89014C28.4902 2.02134 27.2876 1.53329 26.0336 1.53329C24.7797 1.53329 23.577 2.02134 22.6901 2.89014L2.61843 22.562C1.73198 23.4312 1.23401 24.6099 1.23401 25.8389C1.23401 27.0679 1.73198 28.2465 2.61843 29.1158C3.05739 29.5463 3.57861 29.8879 4.15231 30.1209C4.72601 30.3539 5.34094 30.4739 5.96195 30.4739C6.58297 30.4739 7.1979 30.3539 7.7716 30.1209C8.3453 29.8879 8.86652 29.5463 9.30547 29.1158L29.3772 9.44396C29.8165 9.01375 30.1649 8.50291 30.4027 7.94064C30.6405 7.37838 30.7628 6.7757 30.7628 6.16705C30.7628 5.55841 30.6405 4.95573 30.4027 4.39346C30.1649 3.83119 29.8165 3.32035 29.3772 2.89014Z" fill="url(#paint0_linear_3_2952)"/>
<path d="M2.59422 29.0788C2.09051 28.5749 1.71042 27.9652 1.48276 27.2959C1.25509 26.6267 1.18583 25.9154 1.28021 25.2161C1.37459 24.5167 1.63014 23.8476 2.02749 23.2593C2.42485 22.6711 2.95359 22.1792 3.57366 21.8209C8.04492 19.2452 13.2621 18.197 18.4068 18.8408C23.5515 19.4846 28.3325 21.7839 32 25.3781L25.3794 32C23.1882 29.853 20.3344 28.4759 17.262 28.083C14.1896 27.69 11.0709 28.3032 8.39087 29.8272C7.47753 30.3527 6.41139 30.5645 5.36138 30.4289C4.31136 30.2933 3.33754 29.8182 2.59422 29.0788Z" fill="url(#paint1_linear_3_2952)"/>
<defs>
<linearGradient id="paint0_linear_3_2952" x1="30.4577" y1="4.34408" x2="10.3005" y2="21.262" gradientUnits="userSpaceOnUse">
<stop stop-color="#22BFFF"/>
<stop offset="0.15" stop-color="#22BFFF" stop-opacity="0.84"/>
<stop offset="0.57" stop-color="#22BFFF" stop-opacity="0.39"/>
<stop offset="0.87" stop-color="#22BFFF" stop-opacity="0.11"/>
<stop offset="1" stop-color="#22BFFF" stop-opacity="0"/>
</linearGradient>
<linearGradient id="paint1_linear_3_2952" x1="1.61931" y1="25.4625" x2="31.8037" y2="25.2376" gradientUnits="userSpaceOnUse">
<stop stop-color="#FFC99E"/>
<stop offset="0.67" stop-color="#FF87A4"/>
<stop offset="1" stop-color="#FF6BA6"/>
</linearGradient>
</defs>
</svg>
