<svg width="138" height="32" viewBox="0 0 138 32" fill="none" xmlns="http://www.w3.org/2000/svg">
<g clip-path="url(#clip0_3_2738)">
<path d="M54.7831 22.5607V26.4195H38.7318V23.3734L48.4027 12.4653H38.7318V8.60791H54.5022V11.7999L45.1898 22.5607H54.7831Z" fill="#131B3A"/>
<path d="M73.2797 14.9209V26.4248H68.5178V23.9693H68.4134C67.8169 24.9159 66.0659 26.6002 62.5962 26.6002C59.1264 26.6002 56.7107 24.6361 56.7107 21.4789C56.7107 18.0419 59.303 15.4123 66.7655 15.4123H68.5178V14.8861C68.5178 12.9567 67.3273 11.7999 65.3998 11.7999C63.5071 11.7999 62.3514 12.8161 62.2109 14.3599H57.5159C57.5855 10.3619 60.8091 8.15137 65.3998 8.15137C70.4801 8.15137 73.2797 10.6444 73.2797 14.9209ZM68.5178 19.6901V18.4275H66.8016C62.7714 18.4275 61.6157 19.6553 61.6157 21.1281C61.6157 22.4268 62.6671 23.2302 64.3177 23.2302C66.6612 23.2302 68.5178 21.6543 68.5178 19.6901Z" fill="#131B3A"/>
<path d="M94.307 15.4818V26.4247H89.3659V16.5355C89.3659 14.0452 88.1393 12.5014 86.2131 12.5014C83.7252 12.5014 82.0077 14.2205 82.0077 17.3764V26.4261H77.0679V8.60783H82.0077V11.9042C83.1299 9.34423 85.1618 8.15528 87.7193 8.15528C91.9595 8.15126 94.307 11.133 94.307 15.4818Z" fill="#131B3A"/>
<path d="M103.943 12.4652V19.7958C103.943 21.6194 105.029 22.6075 106.816 22.6075C107.552 22.6075 108.463 22.5017 109.724 21.8349V26.0083C108.602 26.6055 107.202 26.7809 106.044 26.7809C101.806 26.7809 99.002 24.2905 99.002 20.5027V12.4692H95.8131V8.6078H95.884C98.0242 8.6078 99.002 7.73082 99.002 5.6622V3.28027H103.943V8.61182H110.075V12.4652H103.943Z" fill="#131B3A"/>
<path d="M114.746 0H114.906C115.679 0 116.421 0.307518 116.968 0.854905C117.515 1.40229 117.822 2.14471 117.822 2.91883C117.822 3.30207 117.747 3.68156 117.6 4.03561C117.454 4.38967 117.239 4.71135 116.968 4.98228C116.697 5.25321 116.376 5.46808 116.022 5.61462C115.668 5.76116 115.289 5.83649 114.906 5.83632H114.746C114.363 5.83649 113.984 5.76116 113.63 5.61462C113.276 5.46808 112.955 5.25321 112.684 4.98228C112.413 4.71135 112.198 4.38967 112.052 4.03561C111.905 3.68156 111.83 3.30207 111.83 2.91883C111.83 2.14471 112.137 1.40229 112.684 0.854905C113.231 0.307518 113.972 0 114.746 0ZM112.355 8.60787H117.287V26.4248H112.351L112.355 8.60787Z" fill="#131B3A"/>
<path d="M129.31 26.8801C123.634 26.8801 120.095 23.0575 120.095 17.4809C120.095 11.974 123.634 8.15137 129.31 8.15137C134.11 8.15137 137.438 10.9229 137.929 15.3815H133.059C132.708 13.3477 131.447 12.0155 129.24 12.0155C126.471 12.0155 124.859 14.2247 124.859 17.4863C124.859 20.7479 126.471 22.9571 129.24 22.9571C131.553 22.9571 132.814 21.5552 133.165 19.342H137.999C137.619 23.8996 134.285 26.8801 129.31 26.8801Z" fill="#131B3A"/>
<path d="M26.062 5.67573C26.5084 6.13212 26.8452 6.68422 27.0469 7.29021C27.2486 7.89619 27.3099 8.54017 27.2261 9.17336C27.1423 9.80656 26.9157 10.4124 26.5634 10.9449C26.211 11.4775 25.7423 11.9228 25.1926 12.2471C21.2298 14.5792 16.6056 15.5281 12.0457 14.9451C7.4859 14.3621 3.24852 12.28 -0.00134277 9.02569L5.86408 3.03271C7.80623 4.97624 10.3356 6.22282 13.0588 6.57853C15.7819 6.93424 18.5462 6.37914 20.9216 4.99958C21.7302 4.52265 22.6747 4.32952 23.6054 4.45079C24.536 4.57206 25.3997 5.00079 26.0593 5.66903L26.062 5.67573Z" fill="#9C5AFF"/>
<path d="M26.0367 5.64891C25.2505 4.86245 24.1846 4.42065 23.0732 4.42065C21.9617 4.42065 20.8958 4.86245 20.1097 5.64891L2.31947 23.4564C1.53377 24.2433 1.09241 25.3103 1.09241 26.4228C1.09241 27.5353 1.53377 28.6023 2.31947 29.3892C2.70853 29.7789 3.17051 30.0881 3.679 30.299C4.18749 30.51 4.73252 30.6185 5.28295 30.6185C5.83338 30.6185 6.37841 30.51 6.8869 30.299C7.39539 30.0881 7.85736 29.7789 8.24643 29.3892L26.0367 11.5816C26.426 11.1922 26.7349 10.7298 26.9456 10.2208C27.1564 9.7118 27.2648 9.16623 27.2648 8.61527C27.2648 8.06431 27.1564 7.51875 26.9456 7.00976C26.7349 6.50078 26.426 6.03835 26.0367 5.64891Z" fill="url(#paint0_linear_3_2738)"/>
<path d="M2.298 29.3555C1.85154 28.8994 1.51465 28.3474 1.31287 27.7416C1.11108 27.1358 1.04969 26.492 1.13334 25.8589C1.21699 25.2258 1.44349 24.62 1.79569 24.0876C2.14788 23.5551 2.61652 23.1098 3.16611 22.7855C7.12914 20.4538 11.7533 19.505 16.3132 20.0878C20.8731 20.6705 25.1108 22.752 28.3614 26.0056L22.4933 31.9999C20.5511 30.0564 18.0217 28.8098 15.2986 28.4541C12.5754 28.0984 9.81114 28.6535 7.43576 30.033C6.62625 30.5087 5.68129 30.7004 4.75062 30.5777C3.81996 30.4549 2.95683 30.0248 2.298 29.3555Z" fill="url(#paint1_linear_3_2738)"/>
</g>
<defs>
<linearGradient id="paint0_linear_3_2738" x1="26.9944" y1="6.96506" x2="8.81805" y2="21.902" gradientUnits="userSpaceOnUse">
<stop stop-color="#22BFFF"/>
<stop offset="0.15" stop-color="#22BFFF" stop-opacity="0.84"/>
<stop offset="0.57" stop-color="#22BFFF" stop-opacity="0.39"/>
<stop offset="0.87" stop-color="#22BFFF" stop-opacity="0.11"/>
<stop offset="1" stop-color="#22BFFF" stop-opacity="0"/>
</linearGradient>
<linearGradient id="paint1_linear_3_2738" x1="1.4339" y1="26.0819" x2="28.1875" y2="25.8868" gradientUnits="userSpaceOnUse">
<stop stop-color="#FFC99E"/>
<stop offset="0.67" stop-color="#FF87A4"/>
<stop offset="1" stop-color="#FF6BA6"/>
</linearGradient>
<clipPath id="clip0_3_2738">
<rect width="138" height="32" fill="white"/>
</clipPath>
</defs>
</svg>
